<?xml version="1.0" encoding="utf-8"?>
<!-- Generator: Adobe Illustrator 19.1.0, SVG Export Plug-In . SVG Version: 6.00 Build 0)  -->
<svg version="1.1" id="Layer_1" xmlns="http://www.w3.org/2000/svg" xmlns:xlink="http://www.w3.org/1999/xlink" x="0px" y="0px"
	 width="100.8px" height="100.8px" viewBox="0 0 100.8 100.8" enable-background="new 0 0 100.8 100.8" xml:space="preserve">
<g>
	<g>
		<path fill="#4FCDAD" d="M100.8,94.8c0,3.3-2.7,6-6,6H6c-3.3,0-6-2.7-6-6V6c0-3.3,2.7-6,6-6h88.8c3.3,0,6,2.7,6,6V94.8z"/>
	</g>
	<text transform="matrix(0.9732 0 0 1 30.8702 74.6511)"><tspan x="0" y="0" fill="#FFFFFF" font-family="'Gotham-Medium'" font-size="11.7824px">Beauty </tspan><tspan x="-17.6" y="14.7" fill="#FFFFFF" font-family="'Gotham-Medium'" font-size="11.7824px">Personal Care</tspan></text>
	<path fill="#FFFFFF" d="M53.2,27.9l-4.3-4.4c0,0,0,0,0-0.1v-5.2c0-0.6-0.4-1-1-1h-5.4v-5.8h3c0.6,0,1-0.4,1-1s-0.4-1-1-1h-7.2
		c-0.2,0-0.3,0-0.5,0.1l-3.5,2c-0.5,0.3-0.7,0.9-0.4,1.4c0.2,0.3,0.5,0.5,0.9,0.5c0.2,0,0.3,0,0.5-0.1l3.3-1.9h2v5.8h-6.2
		c-0.6,0-1,0.4-1,1v5l-4.5,4.6c-0.2,0.2-0.3,0.4-0.3,0.7v28.9c0,0.6,0.4,1,1,1h23c0.6,0,1-0.4,1-1V28.6
		C53.4,28.4,53.3,28.1,53.2,27.9z M35.3,19.3h11.6v3.2H35.3V19.3z M51.4,56.5h-21V29l4.5-4.6h12l4.5,4.6V56.5z"/>
	<polygon fill="#FFFFFF" points="42.6,29.4 39.9,29.4 39.9,32.6 36.7,32.6 36.7,35.3 39.9,35.3 39.9,38.6 42.6,38.6 42.6,35.3 
		45.8,35.3 45.8,32.6 42.6,32.6 	"/>
	<path fill="#FFFFFF" d="M73.4,18.2h-14c-0.6,0-1,0.4-1,1v3c0,0,0,0.1,0,0.1l3.2,22c0.1,0.5,0.5,0.9,1,0.9h0.1v3.5c0,0.6,0.4,1,1,1
		h6.1c0.6,0,1-0.4,1-1v-3.5c0.5,0,0.9-0.4,1-0.9l2.6-22c0,0,0-0.1,0-0.1v-3C74.4,18.7,74,18.2,73.4,18.2z M68.8,47.7h-4.1v-2.4h4.1
		V47.7z M72.4,22.2l-2.5,21h-6.4l-3.1-21v-2h12V22.2z"/>
</g>
</svg>
