<?xml version="1.0" encoding="utf-8"?>
<!-- Generator: Adobe Illustrator 19.1.0, SVG Export Plug-In . SVG Version: 6.00 Build 0)  -->
<svg version="1.1" id="Layer_1" xmlns="http://www.w3.org/2000/svg" xmlns:xlink="http://www.w3.org/1999/xlink" x="0px" y="0px"
	 width="92.4px" height="90px" viewBox="0 0 92.4 90" enable-background="new 0 0 92.4 90" xml:space="preserve">
<g>
	<path fill="#4FCDAD" d="M92.4,84c0,3.3-2.7,6-6,6H6c-3.3,0-6-2.7-6-6V6c0-3.3,2.7-6,6-6h80.4c3.3,0,6,2.7,6,6V84z"/>
</g>
<text transform="matrix(0.9732 0 0 1 8.5926 73.4679)" fill="#FFFFFF" font-family="'Gotham-Medium'" font-size="11.7824px">Personal Care</text>
<path fill="#FFFFFF" d="M48,26.7l-4.3-4.4c0,0,0,0,0-0.1v-5.2c0-0.6-0.4-1-1-1h-5.4v-5.8h3c0.6,0,1-0.4,1-1s-0.4-1-1-1H33
	c-0.2,0-0.3,0-0.5,0.1l-3.5,2c-0.5,0.3-0.7,0.9-0.4,1.4c0.2,0.3,0.5,0.5,0.9,0.5c0.2,0,0.3,0,0.5-0.1l3.3-1.9h2v5.8h-6.2
	c-0.6,0-1,0.4-1,1v5l-4.5,4.6c-0.2,0.2-0.3,0.4-0.3,0.7v28.9c0,0.6,0.4,1,1,1h23c0.6,0,1-0.4,1-1V27.4C48.3,27.2,48.2,26.9,48,26.7z
	 M30.1,18.1h11.6v3.2H30.1V18.1z M46.3,55.3h-21V27.9l4.5-4.6h12l4.5,4.6V55.3z"/>
<polygon fill="#FFFFFF" points="37.4,28.2 34.7,28.2 34.7,31.4 31.5,31.4 31.5,34.2 34.7,34.2 34.7,37.4 37.4,37.4 37.4,34.2 
	40.7,34.2 40.7,31.4 37.4,31.4 "/>
<path fill="#FFFFFF" d="M68.3,17h-14c-0.6,0-1,0.4-1,1v3c0,0,0,0.1,0,0.1l3.2,22c0.1,0.5,0.5,0.9,1,0.9h0.1v3.5c0,0.6,0.4,1,1,1h6.1
	c0.6,0,1-0.4,1-1V44c0.5,0,0.9-0.4,1-0.9l2.6-22c0,0,0-0.1,0-0.1v-3C69.3,17.5,68.8,17,68.3,17z M63.7,46.5h-4.1v-2.4h4.1V46.5z
	 M67.3,21l-2.5,21h-6.4l-3.1-21v-2h12V21z"/>
</svg>
