<?xml version="1.0" encoding="utf-8"?>
<!-- Generator: Adobe Illustrator 18.1.1, SVG Export Plug-In . SVG Version: 6.00 Build 0)  -->
<svg version="1.1" id="Layer_1" xmlns="http://www.w3.org/2000/svg" xmlns:xlink="http://www.w3.org/1999/xlink" x="0px" y="0px"
	 width="900px" height="115.9px" viewBox="0 0 900 115.9" enable-background="new 0 0 900 115.9" xml:space="preserve">
<g>
	<path fill="#FFFFFF" d="M154.7,83.7c-15.9,0-27.8-10.8-27.8-26.3c0-14.9,11.7-26.4,27.5-26.4c9,0,15.3,2.7,20.7,7.4l-8.3,10.1
		c-3.6-3.1-7.3-4.8-12.3-4.8c-7.4,0-13,6-13,13.9c0,8.3,5.8,14.1,13.8,14.1c3.4,0,6-0.7,8.2-2.1v-6h-10.1V53h23.5v22.8
		C171.4,80.4,163.9,83.7,154.7,83.7z"/>
	<path fill="#FFFFFF" d="M185.7,31.8h14.1v38.6h24.7v12.4h-38.8V31.8z"/>
	<path fill="#FFFFFF" d="M254.9,83.7c-15.7,0-27.4-11.6-27.4-26.3c0-14.7,11.8-26.4,27.5-26.4s27.4,11.6,27.4,26.3
		S270.6,83.7,254.9,83.7z M254.9,43.7c-7.7,0-12.9,6.1-12.9,13.5c0,7.4,5.3,13.7,13,13.7c7.8,0,13-6.1,13-13.5
		C268,50,262.7,43.7,254.9,43.7z"/>
	<path fill="#FFFFFF" d="M333.5,45c0,5.8-3.5,9.3-7.9,11.2c6,2.1,10.2,5.4,10.2,12.7c0,8.8-7.5,14-19.5,14h-26.3v-51h26.2
		C326.7,31.8,333.5,36.6,333.5,45z M319.5,47.6c0-2.9-2.3-4.4-6.5-4.4h-9.3v9h9C317,52.2,319.5,50.8,319.5,47.6z M321.5,66.7
		c0-3-2.2-4.7-6.9-4.7h-10.9v9.4h11.1C319.1,71.5,321.5,69.9,321.5,66.7z"/>
	<path fill="#FFFFFF" d="M394.3,82.8h-15.2l-3.7-9.1h-19.7l-3.6,9.1h-14.9L359,31.5h13.6L394.3,82.8z M365.7,48.2l-5.8,14.5h11.4
		L365.7,48.2z"/>
	<path fill="#FFFFFF" d="M399.2,31.8h14.1v38.6h24.7v12.4h-38.8V31.8z"/>
	<path fill="#FFFFFF" d="M493.4,83.7c-15.9,0-27.8-10.8-27.8-26.3c0-14.9,11.7-26.4,27.5-26.4c9,0,15.3,2.7,20.7,7.4l-8.3,10.1
		c-3.6-3.1-7.3-4.8-12.3-4.8c-7.4,0-13,6-13,13.9c0,8.3,5.8,14.1,13.8,14.1c3.4,0,6-0.7,8.2-2.1v-6h-10.1V53h23.5v22.8
		C510.2,80.4,502.7,83.7,493.4,83.7z"/>
	<path fill="#FFFFFF" d="M549.2,83.7c-15.7,0-27.4-11.6-27.4-26.3c0-14.7,11.8-26.4,27.5-26.4s27.4,11.6,27.4,26.3
		S564.9,83.7,549.2,83.7z M549.2,43.7c-7.7,0-12.9,6.1-12.9,13.5c0,7.4,5.3,13.7,13,13.7c7.8,0,13-6.1,13-13.5
		C562.3,50,556.9,43.7,549.2,43.7z"/>
	<path fill="#FFFFFF" d="M609.2,83.7c-15.7,0-27.4-11.6-27.4-26.3c0-14.7,11.8-26.4,27.5-26.4s27.4,11.6,27.4,26.3
		S624.9,83.7,609.2,83.7z M609.2,43.7c-7.7,0-12.9,6.1-12.9,13.5c0,7.4,5.3,13.7,13,13.7c7.8,0,13-6.1,13-13.5
		C622.3,50,617,43.7,609.2,43.7z"/>
	<path fill="#FFFFFF" d="M664,82.8h-19.8v-51H664c18,0,28.6,10.6,28.6,25.4S682,82.8,664,82.8z M664.4,44.4h-6.1v25.9h6.1
		c8.3,0,13.7-4.8,13.7-12.9C678.1,49.3,672.7,44.4,664.4,44.4z"/>
	<path fill="#FFFFFF" d="M729.1,31.3l-24.4,52.2H692l24.4-52.2H729.1z"/>
	<path fill="#FFFFFF" d="M754,50.9c11.9,2.4,18.9,6.1,18.9,16c0,10.6-8.2,16.8-20.4,16.8c-9.3,0-17.8-2.8-24.2-8.4l7.9-9.3
		c5.3,4.2,10.6,6,16.6,6c3.8,0,5.8-1.3,5.8-3.5s-1.7-3.2-8.8-4.7c-11.1-2.3-19.1-5.4-19.1-16.2c0-9.5,7.5-16.4,19.8-16.4
		c8.6,0,15.4,2.3,21,6.8l-7.1,9.9c-4.7-3.4-9.8-5-14.3-5c-3.4,0-5.2,1.4-5.2,3.2C745,48.4,746.8,49.3,754,50.9z"/>
</g>
</svg>
