<?xml version="1.0" encoding="utf-8"?>
<!-- Generator: Adobe Illustrator 19.1.0, SVG Export Plug-In . SVG Version: 6.00 Build 0)  -->
<svg version="1.1" id="Layer_1" xmlns="http://www.w3.org/2000/svg" xmlns:xlink="http://www.w3.org/1999/xlink" x="0px" y="0px"
	 width="100.8px" height="100.8px" viewBox="0 0 100.8 100.8" enable-background="new 0 0 100.8 100.8" xml:space="preserve">
<g>
	<g>
		<path fill="#B2B2B2" d="M100.8,94.8c0,3.3-2.7,6-6,6H6c-3.3,0-6-2.7-6-6V6c0-3.3,2.7-6,6-6h88.8c3.3,0,6,2.7,6,6V94.8z"/>
	</g>
	<text transform="matrix(0.9732 0 0 1 34.3649 83.7542)" fill="#FFFFFF" font-family="'Gotham-Medium'" font-size="11.7824px">Other</text>
	<path fill="#FFFFFF" d="M46,14.7H28.2c-2.8,0-5,2.2-5,5V22v28.9v5.9c0,2.8,2.2,5,5,5H46c2.8,0,5-2.2,5-5v-5.9V22v-2.3
		C51,16.9,48.7,14.7,46,14.7z M28.2,16.7H46c1.7,0,3,1.3,3,3V21H25.2v-1.3C25.2,18,26.5,16.7,28.2,16.7z M49,49.9H25.2V23H49V49.9z
		 M46,59.7H28.2c-1.7,0-3-1.3-3-3v-4.9H49v4.9C49,58.4,47.6,59.7,46,59.7z M39.1,55.4c0,1.2-1,2.2-2.2,2.2c-1.2,0-2.2-1-2.2-2.2
		c0-1.2,1-2.2,2.2-2.2C38.1,53.3,39.1,54.2,39.1,55.4z"/>
	<path fill="#FFFFFF" d="M82,29.2c0-0.7,0-1.6,0-2.2c0-0.6-0.4-1.3-1-1.3H57.9c-0.6,0-1,0.7-1,1.3c0,8.6,2.2,18.9,12.6,18.9
		c5.5,0,8.8-2.8,10.5-6.8c0.1,0.1,0.2,0.2,0.4,0.2c0.3,0,0.6,0.1,0.9,0.1c0.1,0,0.2,0,0.3,0c3-0.2,5.4-2.6,5.2-5.4
		C86.8,31.5,84.7,29.5,82,29.2z M69.5,43.5c-6.8,0-10.4-4.8-10.6-15.8h21.2C79.8,38.7,76.3,43.5,69.5,43.5z M81.6,37.4
		c-0.3,0-0.6,0-0.8,0c0,0,0,0,0,0c0.6-1.9,1-4,1.2-6.1c1.7,0.2,3,1.4,3,2.9C85,35.8,83.5,37.3,81.6,37.4z M80.6,48.7
		c0,0.6-0.4,1-1,1h-20c-0.6,0-1-0.4-1-1s0.4-1,1-1h20C80.2,47.7,80.6,48.2,80.6,48.7z"/>
</g>
</svg>
