<?xml version="1.0" encoding="utf-8"?>
<!-- Generator: Adobe Illustrator 19.1.0, SVG Export Plug-In . SVG Version: 6.00 Build 0)  -->
<svg version="1.1" id="Layer_1" xmlns="http://www.w3.org/2000/svg" xmlns:xlink="http://www.w3.org/1999/xlink" x="0px" y="0px"
	 width="100.8px" height="100.8px" viewBox="0 0 100.8 100.8" enable-background="new 0 0 100.8 100.8" xml:space="preserve">
<g>
	<g>
		<path fill="#4FCDAD" d="M100.8,94.8c0,3.3-2.7,6-6,6H6c-3.3,0-6-2.7-6-6V6c0-3.3,2.7-6,6-6h88.8c3.3,0,6,2.7,6,6V94.8z"/>
	</g>
	<g>
		<path fill="#FFFFFF" d="M38,68.5c0,1-0.6,1.5-1.1,1.8c0.9,0.3,1.6,0.9,1.6,2c0,1.5-1.2,2.3-3,2.3h-3.8v-8.2h3.7
			C37,66.4,38,67.2,38,68.5z M36.6,68.7c0-0.7-0.5-1.1-1.4-1.1h-2.1v2.2h2C36,69.9,36.6,69.5,36.6,68.7z M37.1,72.2
			c0-0.7-0.5-1.1-1.6-1.1h-2.3v2.3h2.4C36.5,73.4,37.1,73,37.1,72.2z"/>
		<path fill="#FFFFFF" d="M42.5,73.6c0.7,0,1.2-0.3,1.6-0.7l0.8,0.7c-0.6,0.7-1.4,1.2-2.5,1.2c-1.8,0-3.1-1.3-3.1-3.2
			c0-1.8,1.2-3.3,3-3.3c1.9,0,2.9,1.6,2.9,3.4c0,0.1,0,0.2,0,0.4h-4.4C40.9,73.1,41.6,73.6,42.5,73.6z M43.9,71.1
			c-0.1-0.9-0.6-1.6-1.5-1.6c-0.8,0-1.4,0.7-1.6,1.6H43.9z"/>
		<path fill="#FFFFFF" d="M46.9,70l-0.4-1.1c0.7-0.3,1.3-0.5,2.3-0.5c1.8,0,2.7,1,2.7,2.6v3.7h-1.4v-0.8c-0.4,0.5-1,0.9-2,0.9
			c-1.1,0-2.1-0.7-2.1-1.9c0-1.4,1-2,2.5-2c0.7,0,1.2,0.1,1.6,0.3v-0.2c0-0.9-0.5-1.4-1.5-1.4C47.9,69.6,47.4,69.7,46.9,70z
			 M47.3,72.8c0,0.6,0.5,1,1.2,1c0.9,0,1.6-0.5,1.6-1.3V72c-0.4-0.1-0.8-0.2-1.4-0.2C47.9,71.7,47.3,72.1,47.3,72.8z"/>
		<path fill="#FFFFFF" d="M56.9,68.4h1.4v6.2h-1.4v-1c-0.4,0.6-1,1.1-1.9,1.1c-1.4,0-2.2-0.9-2.2-2.4v-4h1.4V72c0,1,0.5,1.5,1.3,1.5
			c0.8,0,1.4-0.6,1.4-1.5V68.4z"/>
		<path fill="#FFFFFF" d="M61.4,72.7c0,0.6,0.3,0.8,0.7,0.8c0.3,0,0.6-0.1,0.9-0.2v1.2c-0.3,0.2-0.7,0.3-1.2,0.3
			c-1,0-1.7-0.5-1.7-1.8v-3.3h-0.8v-1.2H60v-1.7h1.4v1.7H63v1.2h-1.6V72.7z"/>
		<path fill="#FFFFFF" d="M67.5,74.8c-0.5,1.3-1,1.7-2,1.7c-0.6,0-1-0.1-1.4-0.4l0.5-1.1c0.3,0.1,0.5,0.2,0.8,0.2
			c0.4,0,0.6-0.2,0.9-0.7l-2.5-6.2h1.5l1.7,4.6l1.6-4.6h1.4L67.5,74.8z"/>
		<path fill="#FFFFFF" d="M17.6,86.7H16v2.7h-1.4v-8.2h3.2c1.9,0,3,1.1,3,2.8C20.8,85.8,19.4,86.7,17.6,86.7z M17.7,82.5H16v3h1.6
			c1.1,0,1.7-0.6,1.7-1.5C19.4,83,18.7,82.5,17.7,82.5z"/>
		<path fill="#FFFFFF" d="M24.6,88.4c0.7,0,1.2-0.3,1.6-0.7l0.8,0.7c-0.6,0.7-1.4,1.2-2.5,1.2c-1.8,0-3.1-1.3-3.1-3.2
			c0-1.8,1.2-3.3,3-3.3c1.9,0,2.9,1.6,2.9,3.4c0,0.1,0,0.2,0,0.4h-4.4C23,87.8,23.7,88.4,24.6,88.4z M26,85.8
			c-0.1-0.9-0.6-1.6-1.5-1.6c-0.8,0-1.4,0.7-1.6,1.6H26z"/>
		<path fill="#FFFFFF" d="M29.9,89.4h-1.4v-6.2h1.4v1.4C30.3,83.6,31,83,32,83v1.5H32c-1.2,0-2.1,0.8-2.1,2.5V89.4z"/>
		<path fill="#FFFFFF" d="M32.5,88.6l0.6-1c0.7,0.5,1.4,0.8,2,0.8c0.6,0,0.9-0.3,0.9-0.7c0-1.1-3.2-0.5-3.2-2.7c0-1.2,1-1.9,2.2-1.9
			c0.8,0,1.6,0.3,2.2,0.7l-0.6,1c-0.6-0.4-1.2-0.6-1.7-0.6c-0.5,0-0.8,0.3-0.8,0.6c0,1,3.2,0.6,3.2,2.7c0,1.3-1,2-2.2,2
			C34.2,89.5,33.3,89.2,32.5,88.6z"/>
		<path fill="#FFFFFF" d="M41.3,89.5c-1.8,0-3.2-1.4-3.2-3.2c0-1.8,1.4-3.3,3.2-3.3s3.2,1.4,3.2,3.2C44.5,88,43.2,89.5,41.3,89.5z
			 M41.3,84.3c-1.1,0-1.8,0.9-1.8,2c0,1.1,0.8,2,1.8,2c1.1,0,1.8-0.9,1.8-2C43.2,85.2,42.4,84.3,41.3,84.3z"/>
		<path fill="#FFFFFF" d="M47.1,89.4h-1.4v-6.2h1.4v1c0.4-0.6,1-1.1,1.9-1.1c1.4,0,2.2,0.9,2.2,2.4v4h-1.4v-3.5c0-1-0.5-1.5-1.3-1.5
			c-0.8,0-1.4,0.6-1.4,1.5V89.4z"/>
		<path fill="#FFFFFF" d="M53.1,84.7l-0.4-1.1c0.7-0.3,1.3-0.5,2.3-0.5c1.8,0,2.7,1,2.7,2.6v3.7h-1.4v-0.8c-0.4,0.5-1,0.9-2,0.9
			c-1.1,0-2.1-0.7-2.1-1.9c0-1.4,1-2,2.5-2c0.7,0,1.2,0.1,1.6,0.3v-0.2c0-0.9-0.5-1.4-1.5-1.4C54.1,84.3,53.6,84.5,53.1,84.7z
			 M53.5,87.5c0,0.6,0.5,1,1.2,1c0.9,0,1.6-0.5,1.6-1.3v-0.4c-0.4-0.1-0.8-0.2-1.4-0.2C54.1,86.5,53.5,86.9,53.5,87.5z"/>
		<path fill="#FFFFFF" d="M59.1,89.4v-8.6h1.4v8.6H59.1z"/>
		<path fill="#FFFFFF" d="M69.1,89.5c-2.3,0-4.1-1.9-4.1-4.3c0-2.4,1.7-4.3,4.1-4.3c1.5,0,2.4,0.5,3.1,1.3l-0.9,1.1
			c-0.6-0.6-1.3-1-2.2-1c-1.5,0-2.6,1.3-2.6,2.9s1.1,2.9,2.6,2.9c1,0,1.6-0.4,2.3-1.1l0.9,0.9C71.5,89,70.6,89.5,69.1,89.5z"/>
		<path fill="#FFFFFF" d="M74,84.7l-0.4-1.1c0.7-0.3,1.3-0.5,2.3-0.5c1.8,0,2.7,1,2.7,2.6v3.7h-1.4v-0.8c-0.4,0.5-1,0.9-2,0.9
			c-1.1,0-2.1-0.7-2.1-1.9c0-1.4,1-2,2.5-2c0.7,0,1.2,0.1,1.6,0.3v-0.2c0-0.9-0.5-1.4-1.5-1.4C75.1,84.3,74.6,84.5,74,84.7z
			 M74.5,87.5c0,0.6,0.5,1,1.2,1c0.9,0,1.6-0.5,1.6-1.3v-0.4c-0.4-0.1-0.8-0.2-1.4-0.2C75,86.5,74.5,86.9,74.5,87.5z"/>
		<path fill="#FFFFFF" d="M81.4,89.4h-1.4v-6.2h1.4v1.4c0.4-0.9,1.1-1.6,2.1-1.5v1.5h-0.1c-1.2,0-2.1,0.8-2.1,2.5V89.4z"/>
		<path fill="#FFFFFF" d="M87.2,88.4c0.7,0,1.2-0.3,1.6-0.7l0.8,0.7c-0.6,0.7-1.4,1.2-2.5,1.2c-1.8,0-3.1-1.3-3.1-3.2
			c0-1.8,1.2-3.3,3-3.3c1.9,0,2.9,1.6,2.9,3.4c0,0.1,0,0.2,0,0.4h-4.4C85.7,87.8,86.3,88.4,87.2,88.4z M88.6,85.8
			c-0.1-0.9-0.6-1.6-1.5-1.6c-0.8,0-1.4,0.7-1.6,1.6H88.6z"/>
	</g>
	<path fill="#FFFFFF" d="M53.2,27.9l-4.3-4.4c0,0,0,0,0-0.1v-5.2c0-0.6-0.4-1-1-1h-5.4v-5.8h3c0.6,0,1-0.4,1-1s-0.4-1-1-1h-7.2
		c-0.2,0-0.3,0-0.5,0.1l-3.5,2c-0.5,0.3-0.7,0.9-0.4,1.4c0.2,0.3,0.5,0.5,0.9,0.5c0.2,0,0.3,0,0.5-0.1l3.3-1.9h2v5.8h-6.2
		c-0.6,0-1,0.4-1,1v5l-4.5,4.6c-0.2,0.2-0.3,0.4-0.3,0.7v28.9c0,0.6,0.4,1,1,1h23c0.6,0,1-0.4,1-1V28.6
		C53.4,28.4,53.3,28.1,53.2,27.9z M35.3,19.3h11.6v3.2H35.3V19.3z M51.4,56.5h-21V29l4.5-4.6h12l4.5,4.6V56.5z"/>
	<polygon fill="#FFFFFF" points="42.6,29.4 39.9,29.4 39.9,32.6 36.7,32.6 36.7,35.3 39.9,35.3 39.9,38.6 42.6,38.6 42.6,35.3 
		45.8,35.3 45.8,32.6 42.6,32.6 	"/>
	<path fill="#FFFFFF" d="M73.4,18.2h-14c-0.6,0-1,0.4-1,1v3c0,0,0,0.1,0,0.1l3.2,22c0.1,0.5,0.5,0.9,1,0.9h0.1v3.5c0,0.6,0.4,1,1,1
		h6.1c0.6,0,1-0.4,1-1v-3.5c0.5,0,0.9-0.4,1-0.9l2.6-22c0,0,0-0.1,0-0.1v-3C74.4,18.7,74,18.2,73.4,18.2z M68.8,47.7h-4.1v-2.4h4.1
		V47.7z M72.4,22.2l-2.5,21h-6.4l-3.1-21v-2h12V22.2z"/>
</g>
</svg>
