<?xml version="1.0" encoding="utf-8"?>
<!-- Generator: Adobe Illustrator 18.1.1, SVG Export Plug-In . SVG Version: 6.00 Build 0)  -->
<svg version="1.1" id="Layer_1" xmlns="http://www.w3.org/2000/svg" xmlns:xlink="http://www.w3.org/1999/xlink" x="0px" y="0px"
	 width="550px" height="200px" viewBox="0 0 550 200" enable-background="new 0 0 550 200" xml:space="preserve">
<g>
	<g>
		<path fill="#FFFFFF" d="M58.4,156.4v25.7h-5.7v-25.7H58.4z"/>
		<path fill="#FFFFFF" d="M87.8,156.4h5.6v25.7h-4.8l-12.5-16.4v16.4h-5.6v-25.7h5.2l12.1,15.9V156.4z"/>
		<path fill="#FFFFFF" d="M116.5,182.1h-5.7v-20.5H103v-5.2h21.3v5.2h-7.8V182.1z"/>
		<path fill="#FFFFFF" d="M153.3,161.4h-13.8v5.2h12.1v5h-12.1v5.4h14v5h-19.6v-25.7h19.4V161.4z"/>
		<path fill="#FFFFFF" d="M180.2,182.1l-5.5-8.2h-4.4v8.2h-5.7v-25.7h11.8c6.1,0,9.7,3.2,9.7,8.5c0,4.2-2.2,6.8-5.5,8l6.3,9.2H180.2
			z M175.9,161.5h-5.6v7.4h5.7c2.8,0,4.3-1.5,4.3-3.7C180.3,162.7,178.6,161.5,175.9,161.5z"/>
		<path fill="#FFFFFF" d="M214.3,156.4h5.6v25.7h-4.8l-12.5-16.4v16.4H197v-25.7h5.2l12.1,15.9V156.4z"/>
		<path fill="#FFFFFF" d="M256.6,182.1h-5.9l-2.4-5.8h-10.9l-2.4,5.8h-5.8l11-25.9h5.2L256.6,182.1z M242.9,163l-3.4,8.3h6.8
			L242.9,163z"/>
		<path fill="#FFFFFF" d="M274.6,182.1H269v-20.5h-7.8v-5.2h21.3v5.2h-7.8V182.1z"/>
		<path fill="#FFFFFF" d="M297.8,156.4v25.7h-5.7v-25.7H297.8z"/>
		<path fill="#FFFFFF" d="M322.3,182.5c-7.9,0-13.6-5.9-13.6-13.3c0-7.4,5.8-13.3,13.7-13.3c7.9,0,13.6,5.9,13.6,13.3
			C336,176.5,330.2,182.5,322.3,182.5z M322.3,161.1c-4.6,0-7.7,3.6-7.7,8.1c0,4.5,3.2,8.1,7.8,8.1s7.7-3.6,7.7-8.1
			C330.1,164.8,326.8,161.1,322.3,161.1z"/>
		<path fill="#FFFFFF" d="M364,156.4h5.6v25.7h-4.8l-12.5-16.4v16.4h-5.6v-25.7h5.2l12.1,15.9V156.4z"/>
		<path fill="#FFFFFF" d="M406.3,182.1h-5.9l-2.4-5.8h-10.9l-2.4,5.8H379l11-25.9h5.2L406.3,182.1z M392.5,163l-3.4,8.3h6.8
			L392.5,163z"/>
		<path fill="#FFFFFF" d="M415.7,156.4h5.7v20.6h12.8v5.1h-18.5V156.4z"/>
	</g>
	<path fill="#FFFFFF" d="M124.8,132v-3.6c-4.1,4.6-10.8,7-18.6,7c-16.4,0-28.7-10.6-28.7-24.8c0-18.6,16.4-24.9,32.4-24.9
		c6.5,0,12,0.9,14.9,1.7v-4.3c0-7.9-9.9-12.6-15.4-12.6c-8.5,0-13.1,1.7-18.1,6L80.3,64.3c9-7,18.8-9.4,29.2-9.4
		c22.2,0,31.4,14.5,31.4,29.9V132H124.8z M124.8,102.7c-2.7-0.9-8.5-2.1-15.5-2.1c-11.1,0-15.9,4.1-15.9,10.1
		c0,3.1,4.8,9.4,12.8,9.4c7.2,0,15-2.7,18.6-11.8V102.7z"/>
	<path fill="#FFFFFF" d="M206.1,132V95c0-11.8-3.2-24.2-15-24.2c-6.5,0-12.3,3.4-17.1,13.7V132h-16V58.3h16v4.8
		c5.6-5.5,12.1-8.2,17.1-8.2c22.7,0,31.1,15.2,31.1,36.9V132H206.1z"/>
	<path fill="#FFFFFF" d="M235,94.3c0-22.5,15.2-39.4,37.9-39.4c5.6,0,14,2.6,19.6,8.2V15h16V132h-16v-5c-5.1,5.1-11.1,8.4-19.6,8.4
		C250.2,135.4,235,116.8,235,94.3z M252.5,94.3c0,12.1,7.2,25.6,20.3,25.6c6.8,0,21.3-5,21.3-25.6c0-17.4-13.8-23.9-21.3-23.9
		C259.7,70.4,252.5,84.1,252.5,94.3z"/>
	<g>
		<path fill="#FFFFFF" d="M331.9,33.2c5.3,0,9.6,4.3,9.6,9.6s-4.3,9.6-9.6,9.6c-5.3,0-9.6-4.3-9.6-9.6S326.6,33.2,331.9,33.2z
			 M371.1,84.4c4.8-10.2,10.6-13.7,17.1-13.7c11.8,0,15,12.5,15,24.2v37h16V91.7c0-21.7-8.4-36.9-31.1-36.9c-5,0-11.4,2.7-17.1,8.2
			v-4.8h-16v53.3c0,4.3-3.4,7.7-7.7,7.7c-4.3,0-7.7-3.4-7.7-7.7V58.3h-16v53.3c0,13.1,10.6,23.7,23.7,23.7
			c13.1,0,23.7-10.6,23.7-23.7V84.4z"/>
	</g>
	<path fill="#FFFFFF" d="M65.7,119.2c-4.3,0-7.7-3.4-7.7-7.7V15H42v96.6c0,13.1,10.6,23.7,23.7,23.7V119.2z"/>
	<g>
		<path fill="#FFFFFF" d="M508,55.2h-43.4v0c0,0-0.1,0-0.1,0h0c-10.2,0-19.5,4.1-26.3,11.6c-6.2,6.9-9.7,16.2-9.7,26
			c0,20.7,16.1,37.6,35.9,37.6c0.1,0,0.3,0,0.4,0c5.3,0.1,9.8,1.9,13.1,5.3c3.3,3.4,5.2,8.1,5.2,13.3c0,5-1.8,9.6-5.2,13.1
			c-2.4,2.5-6.7,5.5-13.4,5.5h-17V185h16.8v0h0c0.1,0,0.1,0,0.2,0h1.1V185c9.5-0.3,18.3-4.1,24.8-10.8c6.5-6.7,10.1-15.7,10.1-25.2
			c0-9.8-3.6-18.8-10.2-25.5c-0.7-0.7-1.5-1.4-2.3-2.1c1-0.9,1.9-1.8,2.8-2.8c6.2-7,9.6-16.1,9.6-25.8c0-7.5-2-14.3-5.5-20.1H508
			V55.2z M465,114.8c-6.9,0-19.3-5.9-19.3-21.6c0-18.7,13.1-23.1,19.3-23.1c11.9,0,18.4,12.2,18.4,23.1
			C483.4,102.5,476.9,114.8,465,114.8z"/>
	</g>
</g>
</svg>
