<?xml version="1.0" encoding="utf-8"?>
<!-- Generator: Adobe Illustrator 19.1.0, SVG Export Plug-In . SVG Version: 6.00 Build 0)  -->
<svg version="1.1" id="Layer_1" xmlns="http://www.w3.org/2000/svg" xmlns:xlink="http://www.w3.org/1999/xlink" x="0px" y="0px"
	 width="100.8px" height="100.8px" viewBox="0 0 100.8 100.8" enable-background="new 0 0 100.8 100.8" xml:space="preserve">
<g>
	<g>
		<path fill="#B2B2B2" d="M100.8,94.8c0,3.3-2.7,6-6,6H6c-3.3,0-6-2.7-6-6V6c0-3.3,2.7-6,6-6h88.8c3.3,0,6,2.7,6,6V94.8z"/>
	</g>
	<g>
		<path fill="#FFFFFF" d="M39.1,83.9c-2.5,0-4.2-1.9-4.2-4.3c0-2.3,1.7-4.3,4.2-4.3s4.2,1.9,4.2,4.3S41.6,83.9,39.1,83.9z
			 M39.1,76.7c-1.6,0-2.7,1.3-2.7,2.9c0,1.6,1.1,2.9,2.7,2.9s2.7-1.3,2.7-2.9C41.8,78,40.7,76.7,39.1,76.7z"/>
		<path fill="#FFFFFF" d="M46.3,81.8c0,0.6,0.3,0.8,0.7,0.8c0.3,0,0.6-0.1,0.9-0.2v1.2c-0.3,0.2-0.7,0.3-1.2,0.3
			c-1,0-1.7-0.5-1.7-1.8v-3.3h-0.8v-1.2H45v-1.7h1.4v1.7H48v1.2h-1.6V81.8z"/>
		<path fill="#FFFFFF" d="M50.5,83.8h-1.4v-8.6h1.4v3.3c0.4-0.6,1-1.1,1.9-1.1c1.4,0,2.2,0.9,2.2,2.4v4h-1.4v-3.5
			c0-1-0.5-1.5-1.3-1.5c-0.8,0-1.4,0.6-1.4,1.5V83.8z"/>
		<path fill="#FFFFFF" d="M58.8,82.7c0.7,0,1.2-0.3,1.6-0.7l0.8,0.7c-0.6,0.7-1.4,1.2-2.5,1.2c-1.8,0-3.1-1.3-3.1-3.2
			c0-1.8,1.2-3.3,3-3.3c1.9,0,2.9,1.6,2.9,3.4c0,0.1,0,0.2,0,0.4H57C57.2,82.2,57.9,82.7,58.8,82.7z M60.1,80.2
			c-0.1-0.9-0.6-1.6-1.5-1.6c-0.8,0-1.4,0.7-1.6,1.6H60.1z"/>
		<path fill="#FFFFFF" d="M64.1,83.8h-1.4v-6.2h1.4v1.4c0.4-0.9,1.1-1.6,2.1-1.5v1.5h-0.1c-1.2,0-2.1,0.8-2.1,2.5V83.8z"/>
	</g>
	<path fill="#FFFFFF" d="M46,14.7H28.2c-2.8,0-5,2.2-5,5V22v28.9v5.9c0,2.8,2.2,5,5,5H46c2.8,0,5-2.2,5-5v-5.9V22v-2.3
		C51,16.9,48.7,14.7,46,14.7z M28.2,16.7H46c1.7,0,3,1.3,3,3V21H25.2v-1.3C25.2,18,26.5,16.7,28.2,16.7z M49,49.9H25.2V23H49V49.9z
		 M46,59.7H28.2c-1.7,0-3-1.3-3-3v-4.9H49v4.9C49,58.4,47.6,59.7,46,59.7z M39.1,55.4c0,1.2-1,2.2-2.2,2.2c-1.2,0-2.2-1-2.2-2.2
		c0-1.2,1-2.2,2.2-2.2C38.1,53.3,39.1,54.2,39.1,55.4z"/>
	<path fill="#FFFFFF" d="M82,29.2c0-0.7,0-1.6,0-2.2c0-0.6-0.4-1.3-1-1.3H57.9c-0.6,0-1,0.7-1,1.3c0,8.6,2.2,18.9,12.6,18.9
		c5.5,0,8.8-2.8,10.5-6.8c0.1,0.1,0.2,0.2,0.4,0.2c0.3,0,0.6,0.1,0.9,0.1c0.1,0,0.2,0,0.3,0c3-0.2,5.4-2.6,5.2-5.4
		C86.8,31.5,84.7,29.5,82,29.2z M69.5,43.5c-6.8,0-10.4-4.8-10.6-15.8h21.2C79.8,38.7,76.3,43.5,69.5,43.5z M81.6,37.4
		c-0.3,0-0.6,0-0.8,0c0,0,0,0,0,0c0.6-1.9,1-4,1.2-6.1c1.7,0.2,3,1.4,3,2.9C85,35.8,83.5,37.3,81.6,37.4z M80.6,48.7
		c0,0.6-0.4,1-1,1h-20c-0.6,0-1-0.4-1-1s0.4-1,1-1h20C80.2,47.7,80.6,48.2,80.6,48.7z"/>
</g>
</svg>
