<?xml version="1.0" encoding="utf-8"?>
<!-- Generator: Adobe Illustrator 19.1.0, SVG Export Plug-In . SVG Version: 6.00 Build 0)  -->
<svg version="1.1" id="Layer_1" xmlns="http://www.w3.org/2000/svg" xmlns:xlink="http://www.w3.org/1999/xlink" x="0px" y="0px"
	 width="92.4px" height="90px" viewBox="0 0 92.4 90" enable-background="new 0 0 92.4 90" xml:space="preserve">
<g>
	<path fill="#33CBFF" d="M92.4,84c0,3.3-2.7,6-6,6H6c-3.3,0-6-2.7-6-6V6c0-3.3,2.7-6,6-6h80.4c3.3,0,6,2.7,6,6V84z"/>
</g>
<text transform="matrix(0.9732 0 0 1 12.9223 75.3542)" fill="#FFFFFF" font-family="'Gotham-Medium'" font-size="11.7824px">Baby &amp; Kids</text>
<path fill="#FFFFFF" d="M32.7,40.6c-2.2,0-4.1,1.6-4.5,3.6c-0.1,0.3-0.1,0.7-0.1,1v0c0,0.3,0,0.7,0.1,1c0.5,2.1,2.3,3.6,4.5,3.6
	c2.2,0,4.1-1.6,4.5-3.6c0.1-0.3,0.1-0.7,0.1-1v0c0-0.3,0-0.7-0.1-1C36.8,42.1,35,40.6,32.7,40.6z M35.2,46.2c-0.4,1-1.3,1.6-2.4,1.6
	c-1.1,0-2-0.7-2.4-1.6c-0.1-0.3-0.2-0.6-0.2-1v0c0-0.4,0.1-0.7,0.2-1c0.4-1,1.3-1.6,2.4-1.6c1.1,0,2,0.7,2.4,1.6
	c0.1,0.3,0.2,0.6,0.2,1v0C35.4,45.6,35.3,45.9,35.2,46.2z M70.8,40.3V29c0-0.6-0.4-1-1-1H49.4V10.1c0-0.6-0.4-1-1-1
	c-14.1,0-25.6,9.1-25.6,20.2c0,0,0,0.1,0,0.1v10.4c-0.9,1.6-1.4,3.5-1.4,5.4c0,6.2,5.1,11.3,11.3,11.3c5.9,0,10.7-4.5,11.2-10.3h5.4
	c0.5,5.8,5.3,10.3,11.2,10.3c6.2,0,11.3-5.1,11.3-11.3C71.9,43.5,71.5,41.8,70.8,40.3z M60.6,54.5c-4.8,0-8.7-3.6-9.2-8.3
	c0-0.3-0.1-0.7-0.1-1v0c0-0.3,0-0.7,0.1-1c0.5-4.6,4.4-8.3,9.2-8.3c3.5,0,6.6,2,8.2,4.9c0.5,0.9,0.8,1.9,1,3c0.1,0.5,0.1,1,0.1,1.4
	c0,0.3,0,0.7-0.1,1C69.3,50.9,65.4,54.5,60.6,54.5z M44,44.2c-0.5-5.8-5.3-10.3-11.2-10.3c-3.1,0-5.8,1.2-7.9,3.2V30h23.6h20.3v7.5
	c-2.1-2.2-4.9-3.5-8.2-3.5c-5.9,0-10.7,4.5-11.2,10.3H44z M42,46.2c-0.5,4.6-4.4,8.3-9.2,8.3c-4.8,0-8.8-3.7-9.2-8.4
	c0-0.3,0-0.6,0-0.9c0-0.9,0.1-1.8,0.4-2.7c0.2-0.8,0.6-1.5,1-2.2c1.6-2.6,4.6-4.4,7.9-4.4c4.8,0,8.7,3.6,9.2,8.3
	c0,0.3,0.1,0.7,0.1,1v0C42,45.6,42,45.9,42,46.2z M47.4,11.1V28H24.9C25.7,18.8,35.5,11.5,47.4,11.1z M60.6,40.6
	c-2.2,0-4.1,1.6-4.5,3.6c-0.1,0.3-0.1,0.7-0.1,1v0c0,0.3,0,0.7,0.1,1c0.5,2.1,2.3,3.6,4.5,3.6s4.1-1.6,4.5-3.6
	c0.1-0.3,0.1-0.7,0.1-1v0c0-0.3,0-0.7-0.1-1C64.7,42.1,62.8,40.6,60.6,40.6z M63,46.2c-0.4,1-1.3,1.6-2.4,1.6s-2-0.7-2.4-1.6
	c-0.1-0.3-0.2-0.6-0.2-1v0c0-0.4,0.1-0.7,0.2-1c0.4-1,1.3-1.6,2.4-1.6s2,0.7,2.4,1.6c0.1,0.3,0.2,0.6,0.2,1v0
	C63.2,45.6,63.2,45.9,63,46.2z"/>
</svg>
