<?xml version="1.0" encoding="utf-8"?>
<!-- Generator: Adobe Illustrator 19.1.0, SVG Export Plug-In . SVG Version: 6.00 Build 0)  -->
<svg version="1.1" id="Layer_1" xmlns="http://www.w3.org/2000/svg" xmlns:xlink="http://www.w3.org/1999/xlink" x="0px" y="0px"
	 width="100.8px" height="100.8px" viewBox="0 0 100.8 100.8" enable-background="new 0 0 100.8 100.8" xml:space="preserve">
<g>
	<g>
		<path fill="#33CBFF" d="M100.8,94.8c0,3.3-2.7,6-6,6H6c-3.3,0-6-2.7-6-6V6c0-3.3,2.7-6,6-6h88.8c3.3,0,6,2.7,6,6V94.8z"/>
	</g>
	<text transform="matrix(0.9732 0 0 1 17.1085 80.7542)" fill="#FFFFFF" font-family="'Gotham-Medium'" font-size="11.7824px">Baby &amp; Kids</text>
	<path fill="#FFFFFF" d="M36.9,46c-2.2,0-4.1,1.6-4.5,3.6c-0.1,0.3-0.1,0.7-0.1,1v0c0,0.3,0,0.7,0.1,1c0.5,2.1,2.3,3.6,4.5,3.6
		c2.2,0,4.1-1.6,4.5-3.6c0.1-0.3,0.1-0.7,0.1-1v0c0-0.3,0-0.7-0.1-1C41,47.5,39.1,46,36.9,46z M39.4,51.6c-0.4,1-1.3,1.6-2.4,1.6
		s-2-0.7-2.4-1.6c-0.1-0.3-0.2-0.6-0.2-1v0c0-0.4,0.1-0.7,0.2-1c0.4-1,1.3-1.6,2.4-1.6s2,0.7,2.4,1.6c0.1,0.3,0.2,0.6,0.2,1v0
		C39.6,51,39.5,51.3,39.4,51.6z M74.9,45.7V34.4c0-0.6-0.4-1-1-1H53.6V15.5c0-0.6-0.4-1-1-1C38.5,14.5,27,23.5,27,34.7
		c0,0,0,0.1,0,0.1v10.4c-0.9,1.6-1.4,3.5-1.4,5.4c0,6.2,5.1,11.3,11.3,11.3c5.9,0,10.7-4.5,11.2-10.3h5.4
		c0.5,5.8,5.3,10.3,11.2,10.3c6.2,0,11.3-5.1,11.3-11.3C76.1,48.9,75.6,47.2,74.9,45.7z M64.8,59.9c-4.8,0-8.7-3.6-9.2-8.3
		c0-0.3-0.1-0.7-0.1-1v0c0-0.3,0-0.7,0.1-1c0.5-4.6,4.4-8.3,9.2-8.3c3.5,0,6.6,2,8.2,4.9c0.5,0.9,0.8,1.9,1,3c0.1,0.5,0.1,1,0.1,1.4
		c0,0.3,0,0.7-0.1,1C73.5,56.3,69.6,59.9,64.8,59.9z M48.2,49.6c-0.5-5.8-5.3-10.3-11.2-10.3c-3.1,0-5.8,1.2-7.9,3.2v-7.2h23.6h20.3
		v7.5c-2.1-2.2-4.9-3.5-8.2-3.5c-5.9,0-10.7,4.5-11.2,10.3H48.2z M46.2,51.6c-0.5,4.6-4.4,8.3-9.2,8.3c-4.8,0-8.8-3.7-9.2-8.4
		c0-0.3,0-0.6,0-0.9c0-0.9,0.1-1.8,0.4-2.7c0.2-0.8,0.6-1.5,1-2.2c1.6-2.6,4.6-4.4,7.9-4.4c4.8,0,8.7,3.6,9.2,8.3
		c0,0.3,0.1,0.7,0.1,1v0C46.2,51,46.2,51.3,46.2,51.6z M51.6,16.5v16.9H29.1C29.9,24.2,39.6,16.9,51.6,16.5z M64.8,46
		c-2.2,0-4.1,1.6-4.5,3.6c-0.1,0.3-0.1,0.7-0.1,1v0c0,0.3,0,0.7,0.1,1c0.5,2.1,2.3,3.6,4.5,3.6c2.2,0,4.1-1.6,4.5-3.6
		c0.1-0.3,0.1-0.7,0.1-1v0c0-0.3,0-0.7-0.1-1C68.8,47.5,67,46,64.8,46z M67.2,51.6c-0.4,1-1.3,1.6-2.4,1.6c-1.1,0-2-0.7-2.4-1.6
		c-0.1-0.3-0.2-0.6-0.2-1v0c0-0.4,0.1-0.7,0.2-1c0.4-1,1.3-1.6,2.4-1.6c1.1,0,2,0.7,2.4,1.6c0.1,0.3,0.2,0.6,0.2,1v0
		C67.4,51,67.3,51.3,67.2,51.6z"/>
</g>
</svg>
