<?xml version="1.0" encoding="utf-8"?>
<!-- Generator: Adobe Illustrator 18.1.1, SVG Export Plug-In . SVG Version: 6.00 Build 0)  -->
<svg version="1.1" id="Layer_1" xmlns="http://www.w3.org/2000/svg" xmlns:xlink="http://www.w3.org/1999/xlink" x="0px" y="0px"
	 width="100px" height="100px" viewBox="0 0 100 100" enable-background="new 0 0 100 100" xml:space="preserve">
<g>
	<path fill="#FFFFFF" d="M50.1-0.1C22.5-0.1,0,22.4,0,50s22.5,50.1,50.1,50.1s50.1-22.5,50.1-50.1S77.8-0.1,50.1-0.1z M50.1,10.7
		c21.7,0,39.3,18,39.3,39.7c0,5.2-1,11.1-2.9,15.1H66v-25H55v25h-9v-43H34v43H13.7c-1.8-4-2.9-9.9-2.9-15.1
		C10.8,28.8,28.5,10.7,50.1,10.7z M50.1,89.3c-11.9,0-22.6-3.7-29.8-13.7h59.6C72.7,85.6,62,89.3,50.1,89.3z"/>
	<path fill="#FFFFFF" d="M60.7,34c3.7,0,6.8-3,6.8-6.8s-3-6.8-6.8-6.8c-3.7,0-6.8,3-6.8,6.8S56.9,34,60.7,34z"/>
</g>
</svg>
