<?xml version="1.0" encoding="utf-8"?>
<!-- Generator: Adobe Illustrator 19.1.0, SVG Export Plug-In . SVG Version: 6.00 Build 0)  -->
<svg version="1.1" id="Layer_1" xmlns="http://www.w3.org/2000/svg" xmlns:xlink="http://www.w3.org/1999/xlink" x="0px" y="0px"
	 width="100.8px" height="100.8px" viewBox="0 0 100.8 100.8" enable-background="new 0 0 100.8 100.8" xml:space="preserve">
<g>
	<g>
		<path fill="#F69B7C" d="M100.8,94.8c0,3.3-2.7,6-6,6H6c-3.3,0-6-2.7-6-6V6c0-3.3,2.7-6,6-6h88.8c3.3,0,6,2.7,6,6V94.8z"/>
	</g>
	<g>
		<path fill="#FFFFFF" d="M30.5,67.9h-4.6v2.2h4v1.3h-4v3.4h-1.4v-8.2h6V67.9z"/>
		<path fill="#FFFFFF" d="M31.7,70.2l-0.4-1.1c0.7-0.3,1.3-0.5,2.3-0.5c1.8,0,2.7,1,2.7,2.6v3.7h-1.4v-0.8c-0.4,0.5-1,0.9-2,0.9
			c-1.1,0-2.1-0.7-2.1-1.9c0-1.4,1-2,2.5-2c0.7,0,1.2,0.1,1.6,0.3v-0.2c0-0.9-0.5-1.4-1.5-1.4C32.7,69.8,32.2,70,31.7,70.2z
			 M32.1,73c0,0.6,0.5,1,1.2,1c0.9,0,1.6-0.5,1.6-1.3v-0.4c-0.4-0.1-0.8-0.2-1.4-0.2C32.7,72,32.1,72.4,32.1,73z"/>
		<path fill="#FFFFFF" d="M37.2,74.1l0.6-1c0.7,0.5,1.4,0.8,2,0.8c0.6,0,0.9-0.3,0.9-0.7c0-1.1-3.2-0.5-3.2-2.7c0-1.2,1-1.9,2.2-1.9
			c0.8,0,1.6,0.3,2.2,0.7l-0.6,1c-0.6-0.4-1.2-0.6-1.7-0.6c-0.5,0-0.8,0.3-0.8,0.6c0,1,3.2,0.6,3.2,2.7c0,1.3-1,2-2.2,2
			C38.9,75,37.9,74.7,37.2,74.1z"/>
		<path fill="#FFFFFF" d="M44.6,74.9h-1.4v-8.6h1.4v3.3c0.4-0.6,1-1.1,1.9-1.1c1.4,0,2.2,0.9,2.2,2.4v4h-1.4v-3.5
			c0-1-0.5-1.5-1.3-1.5c-0.8,0-1.4,0.6-1.4,1.5V74.9z"/>
		<path fill="#FFFFFF" d="M50,67.7v-1.4h1.5v1.4H50z M50.1,74.9v-6.2h1.4v6.2H50.1z"/>
		<path fill="#FFFFFF" d="M55.9,75c-1.8,0-3.2-1.4-3.2-3.2c0-1.8,1.4-3.3,3.2-3.3s3.2,1.4,3.2,3.2C59.1,73.5,57.7,75,55.9,75z
			 M55.9,69.8c-1.1,0-1.8,0.9-1.8,2c0,1.1,0.8,2,1.8,2c1.1,0,1.8-0.9,1.8-2C57.7,70.7,57,69.8,55.9,69.8z"/>
		<path fill="#FFFFFF" d="M61.7,74.9h-1.4v-6.2h1.4v1c0.4-0.6,1-1.1,1.9-1.1c1.4,0,2.2,0.9,2.2,2.4v4h-1.4v-3.5c0-1-0.5-1.5-1.3-1.5
			c-0.8,0-1.4,0.6-1.4,1.5V74.9z"/>
		<path fill="#FFFFFF" d="M76,75l-1.1-1.1c-0.7,0.7-1.5,1.1-2.5,1.1c-1.5,0-2.6-0.9-2.6-2.4c0-1.1,0.6-1.8,1.7-2.3
			c-0.5-0.6-0.7-1.1-0.7-1.7c0-1.1,0.9-2.1,2.3-2.1c1.3,0,2.1,0.9,2.1,2c0,1.1-0.7,1.7-1.8,2.2l1.4,1.4c0.3-0.5,0.6-1,0.9-1.6
			l1.1,0.6c-0.3,0.7-0.7,1.3-1.1,1.9l1.3,1.3L76,75z M72.3,71.2c-0.7,0.3-1.1,0.8-1.1,1.4c0,0.7,0.6,1.2,1.3,1.2
			c0.6,0,1.1-0.3,1.5-0.7L72.3,71.2z M73.1,67.6c-0.6,0-1,0.4-1,1c0,0.4,0.2,0.7,0.6,1.2c0.8-0.3,1.3-0.7,1.3-1.3
			C74,68,73.7,67.6,73.1,67.6z"/>
		<path fill="#FFFFFF" d="M26.4,87.6h-1.5l-0.8-2h-3.8l-0.8,2h-1.4l3.5-8.3h1.3L26.4,87.6z M22.2,81.1l-1.4,3.3h2.8L22.2,81.1z"/>
		<path fill="#FFFFFF" d="M30,87.8c-1.8,0-3.1-1.4-3.1-3.2c0-1.8,1.3-3.3,3.1-3.3c1.1,0,1.9,0.4,2.4,1.1l-0.9,1
			c-0.4-0.5-0.9-0.8-1.6-0.8c-1,0-1.7,0.9-1.7,2c0,1.1,0.7,2,1.8,2c0.7,0,1.1-0.3,1.6-0.8l0.8,0.8C31.8,87.3,31.1,87.8,30,87.8z"/>
		<path fill="#FFFFFF" d="M36.1,87.8c-1.8,0-3.1-1.4-3.1-3.2c0-1.8,1.3-3.3,3.1-3.3c1.1,0,1.9,0.4,2.4,1.1l-0.9,1
			c-0.4-0.5-0.9-0.8-1.6-0.8c-1,0-1.7,0.9-1.7,2c0,1.1,0.7,2,1.8,2c0.7,0,1.1-0.3,1.6-0.8l0.8,0.8C38,87.3,37.3,87.8,36.1,87.8z"/>
		<path fill="#FFFFFF" d="M42.2,86.6c0.7,0,1.2-0.3,1.6-0.7l0.8,0.7c-0.6,0.7-1.4,1.2-2.5,1.2c-1.8,0-3.1-1.3-3.1-3.2
			c0-1.8,1.2-3.3,3-3.3c1.9,0,2.9,1.6,2.9,3.4c0,0.1,0,0.2,0,0.4h-4.4C40.6,86.1,41.3,86.6,42.2,86.6z M43.6,84.1
			c-0.1-0.9-0.6-1.6-1.5-1.6c-0.8,0-1.4,0.7-1.6,1.6H43.6z"/>
		<path fill="#FFFFFF" d="M45.6,86.8l0.6-1c0.7,0.5,1.4,0.8,2,0.8c0.6,0,0.9-0.3,0.9-0.7c0-1.1-3.2-0.5-3.2-2.7c0-1.2,1-1.9,2.2-1.9
			c0.8,0,1.6,0.3,2.2,0.7l-0.6,1c-0.6-0.4-1.2-0.6-1.7-0.6c-0.5,0-0.8,0.3-0.8,0.6c0,1,3.2,0.6,3.2,2.7c0,1.3-1,2-2.2,2
			C47.3,87.7,46.3,87.4,45.6,86.8z"/>
		<path fill="#FFFFFF" d="M51,86.8l0.6-1c0.7,0.5,1.4,0.8,2,0.8c0.6,0,0.9-0.3,0.9-0.7c0-1.1-3.2-0.5-3.2-2.7c0-1.2,1-1.9,2.2-1.9
			c0.8,0,1.6,0.3,2.2,0.7l-0.6,1c-0.6-0.4-1.2-0.6-1.7-0.6c-0.5,0-0.8,0.3-0.8,0.6c0,1,3.2,0.6,3.2,2.7c0,1.3-1,2-2.2,2
			C52.7,87.7,51.8,87.4,51,86.8z"/>
		<path fill="#FFFFFF" d="M59.8,87.8c-1.8,0-3.2-1.4-3.2-3.2c0-1.8,1.4-3.3,3.2-3.3s3.2,1.4,3.2,3.2C63.1,86.3,61.7,87.8,59.8,87.8z
			 M59.8,82.5c-1.1,0-1.8,0.9-1.8,2c0,1.1,0.8,2,1.8,2c1.1,0,1.8-0.9,1.8-2C61.7,83.4,60.9,82.5,59.8,82.5z"/>
		<path fill="#FFFFFF" d="M65.6,87.6h-1.4v-6.2h1.4v1.4c0.4-0.9,1.1-1.6,2.1-1.5v1.5h-0.1c-1.2,0-2.1,0.8-2.1,2.5V87.6z"/>
		<path fill="#FFFFFF" d="M68.6,80.5v-1.4h1.5v1.4H68.6z M68.7,87.6v-6.2H70v6.2H68.7z"/>
		<path fill="#FFFFFF" d="M74.4,86.6c0.7,0,1.2-0.3,1.6-0.7l0.8,0.7c-0.6,0.7-1.4,1.2-2.5,1.2c-1.8,0-3.1-1.3-3.1-3.2
			c0-1.8,1.2-3.3,3-3.3c1.9,0,2.9,1.6,2.9,3.4c0,0.1,0,0.2,0,0.4h-4.4C72.8,86.1,73.5,86.6,74.4,86.6z M75.7,84.1
			c-0.1-0.9-0.6-1.6-1.5-1.6c-0.8,0-1.4,0.7-1.6,1.6H75.7z"/>
		<path fill="#FFFFFF" d="M77.7,86.8l0.6-1c0.7,0.5,1.4,0.8,2,0.8c0.6,0,0.9-0.3,0.9-0.7c0-1.1-3.2-0.5-3.2-2.7c0-1.2,1-1.9,2.2-1.9
			c0.8,0,1.6,0.3,2.2,0.7l-0.6,1c-0.6-0.4-1.2-0.6-1.7-0.6c-0.5,0-0.8,0.3-0.8,0.6c0,1,3.2,0.6,3.2,2.7c0,1.3-1,2-2.2,2
			C79.4,87.7,78.5,87.4,77.7,86.8z"/>
	</g>
	<path fill="#FFFFFF" d="M72.5,29.9H64c0-0.1,0-0.2,0-0.2c0-7-5.9-12.9-12.8-12.9c-7.3,0-12.8,5.6-12.8,12.9c0,0.1,0,0.2,0,0.2H30
		c-0.6,0-1,0.4-1,1v27.9c0,0.6,0.4,1,1,1h42.5c0.6,0,1-0.4,1-1V30.9C73.5,30.3,73,29.9,72.5,29.9z M40.4,29.6
		c0-6.2,4.7-10.9,10.8-10.9c5.9,0,10.8,5,10.8,10.9c0,0.1,0,0.2,0,0.2h-2.3c0,0,0,0,0,0c0-4.8-3.9-8.7-8.6-8.7
		c-5.1,0-8.6,3.6-8.6,8.7c0,0,0,0,0,0h-2.3C40.4,29.8,40.4,29.7,40.4,29.6z M57.8,29.9H44.6c0,0,0,0,0,0c0-4.6,3.3-6.7,6.6-6.7
		C54.9,23.1,57.8,26.1,57.8,29.9C57.8,29.8,57.8,29.8,57.8,29.9z M71.5,31.9v5.8L51,47l-20-9.3v-5.8H71.5z M31,57.7V39.9L50.6,49
		c0.1,0.1,0.3,0.1,0.4,0.1c0.1,0,0.3,0,0.4-0.1l20.1-9.2v17.8H31z"/>
</g>
</svg>
