<?xml version="1.0" encoding="utf-8"?>
<!-- Generator: Adobe Illustrator 19.1.0, SVG Export Plug-In . SVG Version: 6.00 Build 0)  -->
<svg version="1.1" id="Layer_1" xmlns="http://www.w3.org/2000/svg" xmlns:xlink="http://www.w3.org/1999/xlink" x="0px" y="0px"
	 width="100.8px" height="100.8px" viewBox="0 0 100.8 100.8" enable-background="new 0 0 100.8 100.8" xml:space="preserve">
<g>
	<g>
		<path fill="#F69B7C" d="M100.8,94.8c0,3.3-2.7,6-6,6H6c-3.3,0-6-2.7-6-6V6c0-3.3,2.7-6,6-6h88.8c3.3,0,6,2.7,6,6V94.8z"/>
	</g>
	<text transform="matrix(0.9732 0 0 1 23.3284 74.8762)"><tspan x="0" y="0" fill="#FFFFFF" font-family="'Gotham-Medium'" font-size="11.7824px">Fashion &amp;</tspan><tspan x="-6" y="12.8" fill="#FFFFFF" font-family="'Gotham-Medium'" font-size="11.7824px">Accessories</tspan></text>
	<path fill="#FFFFFF" d="M72.5,29.9H64c0-0.1,0-0.2,0-0.2c0-7-5.9-12.9-12.8-12.9c-7.3,0-12.8,5.6-12.8,12.9c0,0.1,0,0.2,0,0.2H30
		c-0.6,0-1,0.4-1,1v27.9c0,0.6,0.4,1,1,1h42.5c0.6,0,1-0.4,1-1V30.9C73.5,30.3,73,29.9,72.5,29.9z M40.4,29.6
		c0-6.2,4.7-10.9,10.8-10.9c5.9,0,10.8,5,10.8,10.9c0,0.1,0,0.2,0,0.2h-2.3c0,0,0,0,0,0c0-4.8-3.9-8.7-8.6-8.7
		c-5.1,0-8.6,3.6-8.6,8.7c0,0,0,0,0,0h-2.3C40.4,29.8,40.4,29.7,40.4,29.6z M57.8,29.9H44.6c0,0,0,0,0,0c0-4.6,3.3-6.7,6.6-6.7
		C54.9,23.1,57.8,26.1,57.8,29.9C57.8,29.8,57.8,29.8,57.8,29.9z M71.5,31.9v5.8L51,47l-20-9.3v-5.8H71.5z M31,57.7V39.9L50.6,49
		c0.1,0.1,0.3,0.1,0.4,0.1c0.1,0,0.3,0,0.4-0.1l20.1-9.2v17.8H31z"/>
</g>
</svg>
