<?xml version="1.0" encoding="utf-8"?>
<!-- Generator: Adobe Illustrator 19.1.0, SVG Export Plug-In . SVG Version: 6.00 Build 0)  -->
<svg version="1.1" id="Layer_1" xmlns="http://www.w3.org/2000/svg" xmlns:xlink="http://www.w3.org/1999/xlink" x="0px" y="0px"
	 width="92.4px" height="90px" viewBox="0 0 92.4 90" enable-background="new 0 0 92.4 90" xml:space="preserve">
<g>
	<path fill="#B2B2B2" d="M92.4,84c0,3.3-2.7,6-6,6H6c-3.3,0-6-2.7-6-6V6c0-3.3,2.7-6,6-6h80.4c3.3,0,6,2.7,6,6V84z"/>
</g>
<text transform="matrix(0.9732 0 0 1 30.1787 78.3542)" fill="#FFFFFF" font-family="'Gotham-Medium'" font-size="11.7824px">Other</text>
<path fill="#FFFFFF" d="M41.8,9.3H24c-2.8,0-5,2.2-5,5v2.3v28.9v5.9c0,2.8,2.2,5,5,5h17.8c2.8,0,5-2.2,5-5v-5.9V16.6v-2.3
	C46.8,11.5,44.5,9.3,41.8,9.3z M24,11.3h17.8c1.7,0,3,1.3,3,3v1.3H21v-1.3C21,12.6,22.3,11.3,24,11.3z M44.8,44.5H21V17.6h23.8V44.5
	z M41.8,54.3H24c-1.7,0-3-1.3-3-3v-4.9h23.8v4.9C44.8,53,43.4,54.3,41.8,54.3z M34.9,50c0,1.2-1,2.2-2.2,2.2c-1.2,0-2.2-1-2.2-2.2
	c0-1.2,1-2.2,2.2-2.2C33.9,47.9,34.9,48.8,34.9,50z"/>
<path fill="#FFFFFF" d="M77.8,23.8c0-0.7,0-1.6,0-2.2c0-0.6-0.4-1.3-1-1.3H53.7c-0.6,0-1,0.7-1,1.3c0,8.6,2.2,18.9,12.6,18.9
	c5.5,0,8.8-2.8,10.5-6.8c0.1,0.1,0.2,0.2,0.4,0.2c0.3,0,0.6,0.1,0.9,0.1c0.1,0,0.2,0,0.3,0c3-0.2,5.4-2.6,5.2-5.4
	C82.6,26.1,80.5,24.1,77.8,23.8z M65.3,38.1c-6.8,0-10.4-4.8-10.6-15.8h21.2C75.7,33.3,72.1,38.1,65.3,38.1z M77.4,32
	c-0.3,0-0.6,0-0.8,0c0,0,0,0,0,0c0.6-1.9,1-4,1.2-6.1c1.7,0.2,3,1.4,3,2.9C80.8,30.4,79.3,31.9,77.4,32z M76.4,43.3c0,0.6-0.4,1-1,1
	h-20c-0.6,0-1-0.4-1-1s0.4-1,1-1h20C76,42.3,76.4,42.8,76.4,43.3z"/>
</svg>
