<?xml version="1.0" encoding="utf-8"?>
<!-- Generator: Adobe Illustrator 19.1.0, SVG Export Plug-In . SVG Version: 6.00 Build 0)  -->
<svg version="1.1" id="Layer_1" xmlns="http://www.w3.org/2000/svg" xmlns:xlink="http://www.w3.org/1999/xlink" x="0px" y="0px"
	 width="92.4px" height="90px" viewBox="0 0 92.4 90" enable-background="new 0 0 92.4 90" xml:space="preserve">
<g>
	<path fill="#F69B7C" d="M92.4,84c0,3.3-2.7,6-6,6H6c-3.3,0-6-2.7-6-6V6c0-3.3,2.7-6,6-6h80.4c3.3,0,6,2.7,6,6V84z"/>
</g>
<text transform="matrix(0.9732 0 0 1 19.1422 69.4762)"><tspan x="0" y="0" fill="#FFFFFF" font-family="'Gotham-Medium'" font-size="11.7824px">Fashion &amp;</tspan><tspan x="-6" y="12.8" fill="#FFFFFF" font-family="'Gotham-Medium'" font-size="11.7824px">Accessories</tspan></text>
<path fill="#FFFFFF" d="M68.3,24.5h-8.4c0-0.1,0-0.2,0-0.2c0-7-5.9-12.9-12.8-12.9c-7.3,0-12.8,5.6-12.8,12.9c0,0.1,0,0.2,0,0.2
	h-8.4c-0.6,0-1,0.4-1,1v27.9c0,0.6,0.4,1,1,1h42.5c0.6,0,1-0.4,1-1V25.5C69.3,24.9,68.8,24.5,68.3,24.5z M36.2,24.2
	c0-6.2,4.7-10.9,10.8-10.9c5.9,0,10.8,5,10.8,10.9c0,0.1,0,0.2,0,0.2h-2.3c0,0,0,0,0,0c0-4.8-3.9-8.7-8.6-8.7
	c-5.1,0-8.6,3.6-8.6,8.7c0,0,0,0,0,0h-2.3C36.2,24.4,36.2,24.3,36.2,24.2z M53.6,24.5H40.4c0,0,0,0,0,0c0-4.6,3.3-6.7,6.6-6.7
	C50.7,17.7,53.6,20.7,53.6,24.5C53.6,24.4,53.6,24.4,53.6,24.5z M67.3,26.5v5.8l-20.5,9.3l-20-9.3v-5.8H67.3z M26.8,52.3V34.5
	l19.6,9.1c0.1,0.1,0.3,0.1,0.4,0.1c0.1,0,0.3,0,0.4-0.1l20.1-9.2v17.8H26.8z"/>
</svg>
