<?xml version="1.0" encoding="utf-8"?>
<!-- Generator: Adobe Illustrator 18.1.1, SVG Export Plug-In . SVG Version: 6.00 Build 0)  -->
<svg version="1.1" id="Layer_1" xmlns="http://www.w3.org/2000/svg" xmlns:xlink="http://www.w3.org/1999/xlink" x="0px" y="0px"
	 width="900px" height="115.9px" viewBox="0 0 900 115.9" enable-background="new 0 0 900 115.9" xml:space="preserve">
<g>
	<g>
		<path fill="#FFFFFF" d="M40.1,76h-0.3l-13-19.8v29.1H13v-51H28l12.2,19.7l12.2-19.7h14.9v51H53.2V56.1L40.1,76z"/>
		<path fill="#FFFFFF" d="M129.2,85.4h-15.2l-3.7-9.1H90.7l-3.6,9.1H72.2L93.9,34h13.6L129.2,85.4z M100.6,50.8l-5.8,14.5h11.4
			L100.6,50.8z"/>
		<path fill="#FFFFFF" d="M166.3,85.4l-12.8-18.9l-5.2,5.8v13.2h-14.1v-51h14.1v20.7l17.6-20.7h16.7l-19.2,21.9l20,29.1H166.3z"/>
		<path fill="#FFFFFF" d="M202,34.4v51h-14.2v-51H202z"/>
		<path fill="#FFFFFF" d="M246.2,34.4h14v51h-12.4l-21.8-28v28h-14v-51h13.2l21,27V34.4z"/>
		<path fill="#FFFFFF" d="M295.5,86.2c-15.9,0-27.8-10.8-27.8-26.3c0-14.9,11.7-26.4,27.5-26.4c9,0,15.3,2.7,20.7,7.4l-8.3,10.1
			c-3.6-3.1-7.3-4.8-12.3-4.8c-7.4,0-13,6-13,13.9c0,8.3,5.8,14.1,13.8,14.1c3.4,0,6-0.7,8.2-2.1v-6h-10.1V55.6h23.5v22.8
			C312.3,82.9,304.8,86.2,295.5,86.2z"/>
		<path fill="#FFFFFF" d="M374.8,86.2c-15.9,0-27.8-10.8-27.8-26.3c0-14.9,11.7-26.4,27.5-26.4c9,0,15.3,2.7,20.7,7.4l-8.3,10.1
			c-3.6-3.1-7.3-4.8-12.3-4.8c-7.4,0-13,6-13,13.9c0,8.3,5.8,14.1,13.8,14.1c3.4,0,6-0.7,8.2-2.1v-6h-10.1V55.6H397v22.8
			C391.6,82.9,384.1,86.2,374.8,86.2z"/>
		<path fill="#FFFFFF" d="M405.9,34.4H420V73h24.7v12.4h-38.8V34.4z"/>
		<path fill="#FFFFFF" d="M475.1,86.2c-15.7,0-27.4-11.6-27.4-26.3c0-14.7,11.8-26.4,27.5-26.4c15.7,0,27.4,11.6,27.4,26.3
			S490.8,86.2,475.1,86.2z M475.1,46.3c-7.7,0-12.9,6.1-12.9,13.5s5.3,13.7,13,13.7c7.8,0,13-6.1,13-13.5
			C488.2,52.5,482.9,46.3,475.1,46.3z"/>
		<path fill="#FFFFFF" d="M553.7,47.5c0,5.8-3.5,9.3-7.9,11.2c6,2.1,10.2,5.4,10.2,12.7c0,8.8-7.5,14-19.5,14h-26.3v-51h26.2
			C546.9,34.4,553.7,39.1,553.7,47.5z M539.7,50.2c0-2.9-2.3-4.4-6.5-4.4h-9.3v9h9C537.1,54.7,539.7,53.3,539.7,50.2z M541.7,69.3
			c0-3-2.2-4.7-6.9-4.7h-10.9V74h11.1C539.3,74,541.7,72.5,541.7,69.3z"/>
		<path fill="#FFFFFF" d="M614.5,85.4h-15.2l-3.7-9.1h-19.7l-3.6,9.1h-14.9L579.1,34h13.6L614.5,85.4z M585.8,50.8l-5.8,14.5h11.4
			L585.8,50.8z"/>
		<path fill="#FFFFFF" d="M619.4,34.4h14.1V73h24.7v12.4h-38.8V34.4z"/>
		<path fill="#FFFFFF" d="M728.6,46.4h-27v7.7h24.5v11.1h-24.5v8.1H729v12h-41.4v-51h41V46.4z"/>
		<path fill="#FFFFFF" d="M790.1,85.4H775l-3.7-9.1h-19.7l-3.6,9.1h-14.9L754.8,34h13.6L790.1,85.4z M761.5,50.8l-5.8,14.5h11.4
			L761.5,50.8z"/>
		<path fill="#FFFFFF" d="M817.8,53.4c11.9,2.4,18.9,6.1,18.9,16c0,10.6-8.2,16.8-20.4,16.8c-9.3,0-17.8-2.8-24.2-8.4l7.9-9.3
			c5.3,4.2,10.6,6,16.6,6c3.8,0,5.8-1.3,5.8-3.5c0-2.2-1.7-3.2-8.8-4.7c-11.1-2.3-19.1-5.4-19.1-16.2c0-9.5,7.5-16.4,19.8-16.4
			c8.6,0,15.4,2.3,21,6.8l-7.1,9.9c-4.7-3.4-9.8-5-14.3-5c-3.4,0-5.2,1.4-5.2,3.2C808.8,51,810.6,51.9,817.8,53.4z"/>
		<path fill="#FFFFFF" d="M871.4,85.4h-14.2V65.6l-19.4-31.3h16.1l10.5,17.9l10.6-17.9h15.8l-19.4,31V85.4z"/>
	</g>
</g>
</svg>
