<?xml version="1.0" encoding="utf-8"?>
<!-- Generator: Adobe Illustrator 18.1.1, SVG Export Plug-In . SVG Version: 6.00 Build 0)  -->
<svg version="1.1" id="Layer_1" xmlns="http://www.w3.org/2000/svg" xmlns:xlink="http://www.w3.org/1999/xlink" x="0px" y="0px"
	 width="900px" height="115.9px" viewBox="0 0 900 115.9" enable-background="new 0 0 900 115.9" xml:space="preserve">
<g>
	<path fill="#FFFFFF" d="M170.9,83.7c-15.9,0-27.8-10.8-27.8-26.3c0-14.9,11.7-26.4,27.5-26.4c9,0,15.3,2.7,20.7,7.4L183,48.4
		c-3.6-3.1-7.3-4.8-12.3-4.8c-7.4,0-13,6-13,13.9c0,8.3,5.8,14.1,13.8,14.1c3.4,0,6-0.7,8.2-2.1v-6h-10.1V53h23.5v22.8
		C187.7,80.4,180.2,83.7,170.9,83.7z"/>
	<path fill="#FFFFFF" d="M202,31.8h14.1v38.6h24.7v12.4H202V31.8z"/>
	<path fill="#FFFFFF" d="M271.2,83.7c-15.7,0-27.4-11.6-27.4-26.3c0-14.7,11.8-26.4,27.5-26.4s27.4,11.6,27.4,26.3
		S286.9,83.7,271.2,83.7z M271.2,43.7c-7.7,0-12.9,6.1-12.9,13.5c0,7.4,5.3,13.7,13,13.7c7.8,0,13-6.1,13-13.5
		C284.3,50,279,43.7,271.2,43.7z"/>
	<path fill="#FFFFFF" d="M349.8,45c0,5.8-3.5,9.3-7.9,11.2c6,2.1,10.2,5.4,10.2,12.7c0,8.8-7.5,14-19.5,14h-26.3v-51h26.2
		C343,31.8,349.8,36.6,349.8,45z M335.8,47.6c0-2.9-2.3-4.4-6.5-4.4H320v9h9C333.2,52.2,335.8,50.8,335.8,47.6z M337.8,66.7
		c0-3-2.2-4.7-6.9-4.7H320v9.4H331C335.4,71.5,337.8,69.9,337.8,66.7z"/>
	<path fill="#FFFFFF" d="M410.6,82.8h-15.2l-3.7-9.1H372l-3.6,9.1h-14.9l21.7-51.4h13.6L410.6,82.8z M381.9,48.2l-5.8,14.5h11.4
		L381.9,48.2z"/>
	<path fill="#FFFFFF" d="M415.5,31.8h14.1v38.6h24.7v12.4h-38.8V31.8z"/>
	<path fill="#FFFFFF" d="M509.7,83.7c-15.9,0-27.8-10.8-27.8-26.3c0-14.9,11.7-26.4,27.5-26.4c9,0,15.3,2.7,20.7,7.4l-8.3,10.1
		c-3.6-3.1-7.3-4.8-12.3-4.8c-7.4,0-13,6-13,13.9c0,8.3,5.8,14.1,13.8,14.1c3.4,0,6-0.7,8.2-2.1v-6h-10.1V53h23.5v22.8
		C526.5,80.4,519,83.7,509.7,83.7z"/>
	<path fill="#FFFFFF" d="M565.4,83.7c-15.7,0-27.4-11.6-27.4-26.3c0-14.7,11.8-26.4,27.5-26.4c15.7,0,27.4,11.6,27.4,26.3
		S581.2,83.7,565.4,83.7z M565.4,43.7c-7.7,0-12.9,6.1-12.9,13.5c0,7.4,5.3,13.7,13,13.7c7.8,0,13-6.1,13-13.5
		C578.5,50,573.2,43.7,565.4,43.7z"/>
	<path fill="#FFFFFF" d="M625.4,83.7c-15.7,0-27.4-11.6-27.4-26.3c0-14.7,11.8-26.4,27.5-26.4c15.7,0,27.4,11.6,27.4,26.3
		S641.2,83.7,625.4,83.7z M625.4,43.7c-7.7,0-12.9,6.1-12.9,13.5c0,7.4,5.3,13.7,13,13.7c7.8,0,13-6.1,13-13.5
		C638.6,50,633.2,43.7,625.4,43.7z"/>
	<path fill="#FFFFFF" d="M680.3,82.8h-19.8v-51h19.8c18,0,28.6,10.6,28.6,25.4S698.3,82.8,680.3,82.8z M680.7,44.4h-6.1v25.9h6.1
		c8.3,0,13.7-4.8,13.7-12.9C694.4,49.3,689,44.4,680.7,44.4z"/>
	<path fill="#FFFFFF" d="M737.7,50.9c11.9,2.4,18.9,6.1,18.9,16c0,10.6-8.2,16.8-20.4,16.8c-9.3,0-17.8-2.8-24.2-8.4l7.9-9.3
		c5.3,4.2,10.6,6,16.6,6c3.8,0,5.8-1.3,5.8-3.5s-1.7-3.2-8.8-4.7c-11.1-2.3-19.1-5.4-19.1-16.2c0-9.5,7.5-16.4,19.8-16.4
		c8.6,0,15.4,2.3,21,6.8l-7.1,9.9c-4.7-3.4-9.8-5-14.3-5c-3.4,0-5.2,1.4-5.2,3.2C728.7,48.4,730.5,49.3,737.7,50.9z"/>
</g>
</svg>
