<?xml version="1.0" encoding="utf-8"?>
<!-- Generator: Adobe Illustrator 19.1.0, SVG Export Plug-In . SVG Version: 6.00 Build 0)  -->
<svg version="1.1" id="Layer_1" xmlns="http://www.w3.org/2000/svg" xmlns:xlink="http://www.w3.org/1999/xlink" x="0px" y="0px"
	 width="100.8px" height="100.8px" viewBox="0 0 100.8 100.8" enable-background="new 0 0 100.8 100.8" xml:space="preserve">
<g>
	<g>
		<path fill="#33CBFF" d="M100.8,94.8c0,3.3-2.7,6-6,6H6c-3.3,0-6-2.7-6-6V6c0-3.3,2.7-6,6-6h88.8c3.3,0,6,2.7,6,6V94.8z"/>
	</g>
	<g>
		<path fill="#FFFFFF" d="M24.4,74.6c0,1-0.6,1.5-1.1,1.8c0.9,0.3,1.6,0.9,1.6,2c0,1.5-1.2,2.3-3,2.3h-3.8v-8.2h3.7
			C23.4,72.5,24.4,73.3,24.4,74.6z M23,74.9c0-0.7-0.5-1.1-1.4-1.1h-2.1V76h2C22.4,76,23,75.6,23,74.9z M23.4,78.3
			c0-0.7-0.5-1.1-1.6-1.1h-2.3v2.3h2.4C22.8,79.5,23.4,79.1,23.4,78.3z"/>
		<path fill="#FFFFFF" d="M26.6,76.1L26.3,75c0.7-0.3,1.3-0.5,2.3-0.5c1.8,0,2.7,1,2.7,2.6v3.7h-1.4V80c-0.4,0.5-1,0.9-2,0.9
			c-1.1,0-2.1-0.7-2.1-1.9c0-1.4,1-2,2.5-2c0.7,0,1.2,0.1,1.6,0.3V77c0-0.9-0.5-1.4-1.5-1.4C27.7,75.7,27.2,75.8,26.6,76.1z
			 M27.1,78.9c0,0.6,0.5,1,1.2,1c0.9,0,1.6-0.5,1.6-1.3v-0.4c-0.4-0.1-0.8-0.2-1.4-0.2C27.6,77.8,27.1,78.2,27.1,78.9z"/>
		<path fill="#FFFFFF" d="M36.1,80.9c-1,0-1.6-0.5-2.1-1.1v1h-1.4v-8.6H34v3.4c0.4-0.6,1.1-1.2,2.1-1.2c1.4,0,2.8,1.2,2.8,3.2
			C38.9,79.7,37.5,80.9,36.1,80.9z M35.8,75.6c-0.9,0-1.8,0.8-1.8,2c0,1.2,0.8,2,1.8,2c1,0,1.7-0.8,1.7-2
			C37.5,76.4,36.7,75.6,35.8,75.6z"/>
		<path fill="#FFFFFF" d="M43,80.9c-0.5,1.3-1,1.7-2,1.7c-0.6,0-1-0.1-1.4-0.4l0.5-1.1c0.3,0.1,0.5,0.2,0.8,0.2
			c0.4,0,0.6-0.2,0.9-0.7l-2.5-6.2h1.5l1.7,4.6l1.6-4.6h1.4L43,80.9z"/>
		<path fill="#FFFFFF" d="M55.2,80.9l-1.1-1.1c-0.7,0.7-1.5,1.1-2.5,1.1c-1.5,0-2.6-0.9-2.6-2.4c0-1.1,0.6-1.8,1.7-2.3
			c-0.5-0.6-0.7-1.1-0.7-1.7c0-1.1,0.9-2.1,2.3-2.1c1.3,0,2.1,0.9,2.1,2c0,1.1-0.7,1.7-1.8,2.2l1.4,1.4c0.3-0.5,0.6-1,0.9-1.6
			l1.1,0.6c-0.3,0.7-0.7,1.3-1.1,1.9l1.3,1.3L55.2,80.9z M51.5,77.1c-0.7,0.3-1.1,0.8-1.1,1.4c0,0.7,0.6,1.2,1.3,1.2
			c0.5,0,1.1-0.3,1.5-0.7L51.5,77.1z M52.4,73.5c-0.6,0-1,0.4-1,1c0,0.4,0.2,0.7,0.6,1.2c0.8-0.3,1.3-0.7,1.3-1.3
			C53.3,73.9,52.9,73.5,52.4,73.5z"/>
		<path fill="#FFFFFF" d="M67.6,80.8h-1.7L63.1,77l-1.2,1.3v2.4h-1.4v-8.2h1.4v4.1l3.8-4.1h1.7l-3.3,3.5L67.6,80.8z"/>
		<path fill="#FFFFFF" d="M68.4,73.6v-1.4h1.5v1.4H68.4z M68.5,80.8v-6.2h1.4v6.2H68.5z"/>
		<path fill="#FFFFFF" d="M76,80.8v-1c-0.4,0.6-1.1,1.2-2.1,1.2c-1.4,0-2.8-1.2-2.8-3.2c0-2.1,1.4-3.2,2.8-3.2c1,0,1.6,0.5,2.1,1.1
			v-3.3h1.4v8.6H76z M74.2,75.6c-1,0-1.7,0.8-1.7,2c0,1.2,0.8,2,1.7,2c0.9,0,1.8-0.8,1.8-2C76,76.4,75.2,75.6,74.2,75.6z"/>
		<path fill="#FFFFFF" d="M78.4,79.9l0.6-1c0.7,0.5,1.4,0.8,2,0.8c0.6,0,0.9-0.3,0.9-0.7c0-1.1-3.2-0.5-3.2-2.7c0-1.2,1-1.9,2.2-1.9
			c0.8,0,1.6,0.3,2.2,0.7l-0.6,1c-0.6-0.4-1.2-0.6-1.7-0.6c-0.5,0-0.8,0.3-0.8,0.6c0,1,3.2,0.6,3.2,2.7c0,1.3-1,2-2.2,2
			C80.1,80.9,79.1,80.5,78.4,79.9z"/>
	</g>
	<path fill="#FFFFFF" d="M36.9,46c-2.2,0-4.1,1.6-4.5,3.6c-0.1,0.3-0.1,0.7-0.1,1v0c0,0.3,0,0.7,0.1,1c0.5,2.1,2.3,3.6,4.5,3.6
		c2.2,0,4.1-1.6,4.5-3.6c0.1-0.3,0.1-0.7,0.1-1v0c0-0.3,0-0.7-0.1-1C41,47.5,39.1,46,36.9,46z M39.4,51.6c-0.4,1-1.3,1.6-2.4,1.6
		s-2-0.7-2.4-1.6c-0.1-0.3-0.2-0.6-0.2-1v0c0-0.4,0.1-0.7,0.2-1c0.4-1,1.3-1.6,2.4-1.6s2,0.7,2.4,1.6c0.1,0.3,0.2,0.6,0.2,1v0
		C39.6,51,39.5,51.3,39.4,51.6z M74.9,45.7V34.4c0-0.6-0.4-1-1-1H53.6V15.5c0-0.6-0.4-1-1-1C38.5,14.5,27,23.5,27,34.7
		c0,0,0,0.1,0,0.1v10.4c-0.9,1.6-1.4,3.5-1.4,5.4c0,6.2,5.1,11.3,11.3,11.3c5.9,0,10.7-4.5,11.2-10.3h5.4
		c0.5,5.8,5.3,10.3,11.2,10.3c6.2,0,11.3-5.1,11.3-11.3C76.1,48.9,75.6,47.2,74.9,45.7z M64.8,59.9c-4.8,0-8.7-3.6-9.2-8.3
		c0-0.3-0.1-0.7-0.1-1v0c0-0.3,0-0.7,0.1-1c0.5-4.6,4.4-8.3,9.2-8.3c3.5,0,6.6,2,8.2,4.9c0.5,0.9,0.8,1.9,1,3c0.1,0.5,0.1,1,0.1,1.4
		c0,0.3,0,0.7-0.1,1C73.5,56.3,69.6,59.9,64.8,59.9z M48.2,49.6c-0.5-5.8-5.3-10.3-11.2-10.3c-3.1,0-5.8,1.2-7.9,3.2v-7.2h23.6h20.3
		v7.5c-2.1-2.2-4.9-3.5-8.2-3.5c-5.9,0-10.7,4.5-11.2,10.3H48.2z M46.2,51.6c-0.5,4.6-4.4,8.3-9.2,8.3c-4.8,0-8.8-3.7-9.2-8.4
		c0-0.3,0-0.6,0-0.9c0-0.9,0.1-1.8,0.4-2.7c0.2-0.8,0.6-1.5,1-2.2c1.6-2.6,4.6-4.4,7.9-4.4c4.8,0,8.7,3.6,9.2,8.3
		c0,0.3,0.1,0.7,0.1,1v0C46.2,51,46.2,51.3,46.2,51.6z M51.6,16.5v16.9H29.1C29.9,24.2,39.6,16.9,51.6,16.5z M64.8,46
		c-2.2,0-4.1,1.6-4.5,3.6c-0.1,0.3-0.1,0.7-0.1,1v0c0,0.3,0,0.7,0.1,1c0.5,2.1,2.3,3.6,4.5,3.6c2.2,0,4.1-1.6,4.5-3.6
		c0.1-0.3,0.1-0.7,0.1-1v0c0-0.3,0-0.7-0.1-1C68.8,47.5,67,46,64.8,46z M67.2,51.6c-0.4,1-1.3,1.6-2.4,1.6c-1.1,0-2-0.7-2.4-1.6
		c-0.1-0.3-0.2-0.6-0.2-1v0c0-0.4,0.1-0.7,0.2-1c0.4-1,1.3-1.6,2.4-1.6c1.1,0,2,0.7,2.4,1.6c0.1,0.3,0.2,0.6,0.2,1v0
		C67.4,51,67.3,51.3,67.2,51.6z"/>
</g>
</svg>
