<?xml version="1.0" encoding="utf-8"?>
<!-- Generator: Adobe Illustrator 18.1.1, SVG Export Plug-In . SVG Version: 6.00 Build 0)  -->
<svg version="1.1" id="Layer_1" xmlns="http://www.w3.org/2000/svg" xmlns:xlink="http://www.w3.org/1999/xlink" x="0px" y="0px"
	 width="762.1px" height="560px" viewBox="0 0 762.1 560" enable-background="new 0 0 762.1 560" xml:space="preserve">
<pattern  x="-2445.3" width="470" height="346.3" patternUnits="userSpaceOnUse" id="New_Pattern_5" viewBox="67 -468 470 346.3" overflow="visible">
	<g>
		<polygon fill="none" points="67,-468 537,-468 537,-121.7 67,-121.7 		"/>
		<g>
			<g>
				<path fill="#B2B2B2" d="M451.9-129.7v7.1v89.1v18.1C451.9-7,444.8,0,436.3,0h-54.9c-8.5,0-15.6-7-15.6-15.5v-18.1v-89.1v-7.1
					c0-8.5,7.1-15.3,15.6-15.3h54.9C444.8-145,451.9-138.2,451.9-129.7z M445.9-30h-73v14.5c0,5.1,3.5,9.5,8.6,9.5h54.9
					c5.1,0,9.6-4.4,9.6-9.5V-30z M445.9-120h-73v83h73V-120z M445.9-129.7c0-5.1-4.5-9.3-9.6-9.3h-54.9c-5.1,0-8.6,4.2-8.6,9.3v3.7
					h73V-129.7z"/>
			</g>
		</g>
		<g>
			<g>
				<path fill="#B2B2B2" d="M277.4-405.8v13.7v172.7v35c0,16.5-13.1,30-29.6,30H141.5c-16.5,0-30.2-13.5-30.2-30v-35V-392v-13.7
					c0-16.5,13.7-29.6,30.2-29.6h106.3C264.3-435.3,277.4-422.2,277.4-405.8z M265.5-213.2H123.9v28.9c0,9.9,7.7,18.1,17.6,18.1
					h106.3c9.9,0,17.6-8.2,17.6-18.1V-213.2z M265.5-386.3H123.9v161.2h141.5V-386.3z M265.5-405.8c0-9.9-7.8-17.6-17.6-17.6H141.5
					c-9.9,0-17.6,7.8-17.6,17.6v7.6h141.5V-405.8z"/>
				<path fill="#B2B2B2" d="M193.8-178.9c7.2,0,13.1-5.9,13.1-13.1c0-7.2-5.9-13.1-13.1-13.1s-13.1,5.9-13.1,13.1
					C180.8-184.7,186.6-178.9,193.8-178.9z"/>
				<path fill="#B2B2B2" d="M448.9-183.8H329.4c-3.3,0-6,2.7-6,6c0,3.3,2.7,6,6,6h119.5c3.3,0,6-2.7,6-6
					C454.9-181.1,452.2-183.8,448.9-183.8z"/>
				<path fill="#B2B2B2" d="M461.3-236.4c-0.6,0-1.2,0-1.9,0c-1.9,0-3.8-0.2-5.6-0.4c-0.9-0.1-1.7-0.5-2.4-1
					c-10.7,23.9-29.9,41.2-63,41.2c-62.2,0-75.3-61-75.3-112.1c0-3.3,2.7-6.1,6-6.1h138.6c3.3,0,6,2.8,6,6.1c0,3.8-0.1,7.9-0.2,11.8
					c15.8,1.6,28.5,13.4,29.3,28.5C493.5-251.7,479.4-237.3,461.3-236.4z M451.6-302.9H325.1c1.3,65.2,22.5,94.2,63.3,94.2
					C429.1-208.7,450.3-237.7,451.6-302.9z M480.7-267.8c-0.5-9-8.2-16.1-18.1-17.2c-1.1,12.5-3.3,25-7.1,36.5c0,0,0.1,0,0.1,0
					c1.6,0.3,3.3,0.3,5,0.3C472.2-248.9,481.2-257.7,480.7-267.8z"/>
			</g>
			<g>
				<path fill="#B2B2B2" d="M451.9-476.1v7.1v89.1v18.1c0,8.5-7.1,15.5-15.6,15.5h-54.9c-8.5,0-15.6-7-15.6-15.5v-18.1V-469v-7.1
					c0-8.5,7.1-15.3,15.6-15.3h54.9C444.8-491.3,451.9-484.6,451.9-476.1z M445.9-376.3h-73v14.5c0,5.1,3.5,9.5,8.6,9.5h54.9
					c5.1,0,9.6-4.4,9.6-9.5V-376.3z M445.9-466.3h-73v83h73V-466.3z M445.9-476.1c0-5.1-4.5-9.3-9.6-9.3h-54.9
					c-5.1,0-8.6,4.2-8.6,9.3v3.7h73V-476.1z"/>
				<path fill="#B2B2B2" d="M408.5-359c3.7,0,6.7-3,6.7-6.7c0-3.7-3-6.7-6.7-6.7c-3.7,0-6.7,3-6.7,6.7
					C401.7-362,404.7-359,408.5-359z"/>
				<path fill="#B2B2B2" d="M540.1-361.3h-61.7c-1.7,0-3.1,1.3-3.1,3s1.4,3,3.1,3h61.7c1.7,0,3.1-1.3,3.1-3S541.8-361.3,540.1-361.3
					z"/>
				<path fill="#B2B2B2" d="M546.5-388.7c-0.3,0-0.6,0-1,0c-1,0-1.9-0.1-2.9-0.2c-0.5-0.1-0.9-0.3-1.2-0.5
					c-5.5,12.3-15.4,21.2-32.5,21.2c-32.1,0-38.8-31.5-38.8-57.9c0-1.7,1.4-3.2,3.1-3.2h71.5c1.7,0,3.1,1.5,3.1,3.2
					c0,2,0,4.1-0.1,6.2c8.2,0.8,14.7,6.9,15.1,14.7C563.1-396.6,555.8-389.2,546.5-388.7z M541.5-423.3h-65.3
					c0.7,34,11.6,48.6,32.6,48.6C529.9-374.7,540.8-389.3,541.5-423.3z M556.5-404.9c-0.2-4.6-4.2-8.3-9.3-8.9
					c-0.6,6.5-1.7,12.9-3.6,18.8c0,0,0,0,0.1,0c0.8,0.1,1.7,0.2,2.6,0.1C552.1-395.1,556.8-399.7,556.5-404.9z"/>
			</g>
		</g>
		<g>
			<g>
				<path fill="#B2B2B2" d="M70.1-361.3H8.4c-1.7,0-3.1,1.3-3.1,3s1.4,3,3.1,3h61.7c1.7,0,3.1-1.3,3.1-3S71.8-361.3,70.1-361.3z"/>
				<path fill="#B2B2B2" d="M76.5-388.7c-0.3,0-0.6,0-1,0c-1,0-1.9-0.1-2.9-0.2c-0.5-0.1-0.9-0.3-1.2-0.5
					c-5.5,12.3-15.4,21.2-32.5,21.2C6.7-368.2,0-399.7,0-426.1c0-1.7,1.4-3.2,3.1-3.2h71.5c1.7,0,3.1,1.5,3.1,3.2c0,2,0,4.1-0.1,6.2
					c8.2,0.8,14.7,6.9,15.1,14.7C93.1-396.6,85.8-389.2,76.5-388.7z M71.5-423.3H6.2c0.7,34,11.6,48.6,32.6,48.6
					C59.9-374.7,70.8-389.3,71.5-423.3z M86.5-404.9c-0.2-4.6-4.2-8.3-9.3-8.9c-0.6,6.5-1.7,12.9-3.6,18.8c0,0,0,0,0.1,0
					c0.8,0.1,1.7,0.2,2.6,0.1C82.1-395.1,86.8-399.7,86.5-404.9z"/>
			</g>
		</g>
	</g>
</pattern>
<rect x="0" fill="url(#New_Pattern_5)" width="762.1" height="560"/>
</svg>
