<?xml version="1.0" encoding="utf-8"?>
<!-- Generator: Adobe Illustrator 18.1.1, SVG Export Plug-In . SVG Version: 6.00 Build 0)  -->
<svg version="1.1" id="Layer_1" xmlns="http://www.w3.org/2000/svg" xmlns:xlink="http://www.w3.org/1999/xlink" x="0px" y="0px"
	 width="762.1px" height="560px" viewBox="0 0 762.1 560" enable-background="new 0 0 762.1 560" xml:space="preserve">
<pattern  x="-98.9" width="750.5" height="752.1" patternUnits="userSpaceOnUse" id="New_Pattern" viewBox="250.2 -940.2 750.5 752.1" overflow="visible">
	<g>
		<polygon fill="none" points="250.2,-940.2 1000.7,-940.2 1000.7,-188 250.2,-188 		"/>
		<g>
			<g>
				<path fill="#93D4E5" d="M1103.6-267c0,43.6-35.4,79-79.1,79c-41.2,0-75.2-32.3-78.7-72.3H908c-3.6,40-37.3,72.3-78.6,72.3
					c-43.6,0-78.9-35.3-78.9-78.9c0-13.8,3.2-26.8,10.2-38.1v-73.1c0-0.2-0.4-0.4-0.4-0.6c0-78,80.3-141.5,179.2-141.5
					c3.9,0,7.2,3.1,7.2,7v124h142.1c3.9,0,6.9,4.6,6.9,8.5v79.7C1100.7-290.8,1103.6-279.3,1103.6-267z M774.3-389.3h158.4v-116.8
					C847.7-503.4,780.2-454.3,774.3-389.3z M894.3-266.9c0-2.4-0.1-4.7-0.4-7c-3.5-32.6-31.2-58-64.7-58
					c-23.3,0-43.8,12.4-55.3,30.9c-3,4.8-5.4,9.9-7,15.4c-1.8,6-2.8,12.3-2.8,18.8c0,2.2,0.1,4.4,0.3,6.5
					c3.3,32.8,31.1,58.5,64.7,58.5c33.5,0,61.2-25.5,64.7-58.1C894.2-262.2,894.3-264.6,894.3-266.9L894.3-266.9z M945.8-275.3
					c3.6-40,37.5-71.4,78.7-71.4c22.5,0,42.2,10.1,57.2,25.3v-52.9H939.3H773.7v50.9c14-14,33.9-23.3,55.4-23.3
					c41.2,0,75.3,31.4,78.9,71.4H945.8z M1089.6-266.9c0-3.5-0.3-6.8-0.9-10.1c-1.2-7.4-3.5-14.5-7-20.9c-11-20.3-32.5-34-57.2-34
					c-33.5,0-61.2,25.5-64.7,58c-0.2,2.3-0.4,4.6-0.4,7v0c0,2.4,0.1,4.7,0.4,7c3.5,32.6,31.2,58.1,64.7,58.1
					c33.5,0,61.2-25.5,64.7-58.1C1089.5-262.3,1089.6-264.6,1089.6-266.9z"/>
				<path fill="#93D4E5" d="M1056.2-274c0.5,2.3,0.8,4.6,0.8,7v0c0,2.4-0.3,4.7-0.8,7c-3.2,14.6-16.2,25.5-31.7,25.5
					c-15.5,0-28.5-10.9-31.7-25.5c-0.5-2.3-0.8-4.6-0.8-7v0c0-2.4,0.3-4.7,0.8-7c3.2-14.6,16.2-25.5,31.7-25.5
					C1040-299.5,1053-288.5,1056.2-274z M1043-266.9c0-2.5-0.5-4.8-1.4-7c-2.8-6.7-9.4-11.5-17.1-11.5c-7.7,0-14.3,4.8-17.1,11.5
					c-0.9,2.2-1.4,4.5-1.4,7v0c0,2.5,0.5,4.8,1.4,7c2.8,6.7,9.4,11.5,17.1,11.5c7.7,0,14.3-4.8,17.1-11.5
					C1042.5-262.1,1043-264.5,1043-266.9L1043-266.9z"/>
				<path fill="#93D4E5" d="M861-274c0.5,2.3,0.8,4.6,0.8,7v0c0,2.4-0.3,4.7-0.8,7c-3.2,14.6-16.2,25.5-31.7,25.5
					c-15.5,0-28.5-10.9-31.7-25.5c-0.5-2.3-0.8-4.6-0.8-7v0c0-2.4,0.3-4.7,0.8-7c3.2-14.6,16.2-25.5,31.7-25.5
					C844.8-299.5,857.7-288.5,861-274z M847.7-266.9c0-2.5-0.5-4.8-1.4-7c-2.8-6.7-9.4-11.5-17.1-11.5c-7.7,0-14.3,4.8-17.1,11.5
					c-0.9,2.2-1.4,4.5-1.4,7v0c0,2.5,0.5,4.8,1.4,7c2.8,6.7,9.4,11.5,17.1,11.5c7.7,0,14.3-4.8,17.1-11.5
					C847.2-262.1,847.7-264.5,847.7-266.9L847.7-266.9z"/>
			</g>
			<g>
				<path fill="#93D4E5" d="M1133.2-434.5c0,22.3-18.6,40.4-41,40.4c-21.1,0-38.5-17.1-40.3-37.1h-19.4c-1.8,20-18.7,37.1-39.8,37.1
					c-22.3,0-40-17.9-40-40.3c0-7.1,0-13.7,6-19.5v-37.4c0-0.1-0.6-0.2-0.6-0.3c0-40,40.7-72.5,91.3-72.5c2,0,4.3,1.6,4.3,3.6v62.2
					h71.5c2,0,4.5,3.6,4.5,5.6v40.8C1132.7-446.6,1133.2-440.8,1133.2-434.5z M964.1-498.3h81.5v-58.6
					C1001.7-555.5,967.2-530.3,964.1-498.3z M1025.6-434.4c0-1.2-0.1-2.4-0.2-3.6c-1.8-16.7-16-29.7-33.1-29.7
					c-11.9,0-22.4,6.3-28.3,15.8c-1.5,2.4-2.7,5.1-3.6,7.9c-0.9,3-1.4,6.3-1.4,9.6c0,1.1,0.1,2.2,0.2,3.3c1.7,16.8,15.9,30,33.1,30
					c17.2,0,31.3-13,33.1-29.7C1025.5-432,1025.6-433.2,1025.6-434.4L1025.6-434.4z M1052-440.3c1.8-20,18.8-35.8,39.9-35.8
					c11.5,0,22.8,6,28.8,13.7v-27h-72h-84v26c5-7.1,16.9-12.7,27.9-12.7c21.1,0,38.1,15.8,40,35.8H1052z M1125.6-434.4
					c0-1.8-0.2-3.5-0.4-5.2c-0.6-3.8-1.8-7.4-3.6-10.7c-5.7-10.4-16.7-17.4-29.3-17.4c-17.2,0-31.3,13-33.1,29.7
					c-0.1,1.2-0.2,2.4-0.2,3.6v0c0,1.2,0.1,2.4,0.2,3.6c1.8,16.7,16,29.7,33.1,29.7c17.2,0,31.3-13.1,33.1-29.8
					C1125.5-432,1125.6-433.2,1125.6-434.4z"/>
				<path fill="#93D4E5" d="M1008.5-438c0.3,1.2,0.4,2.4,0.4,3.6v0c0,1.2-0.2,2.4-0.4,3.6c-1.6,7.5-8.3,13.1-16.2,13.1
					c-7.9,0-14.6-5.6-16.2-13.1c-0.3-1.2-0.4-2.4-0.4-3.6v0c0-1.2,0.2-2.4,0.4-3.6c1.6-7.5,8.3-13.1,16.2-13.1
					C1000.2-451,1006.9-445.4,1008.5-438z M1001.7-434.4c0-1.3-0.3-2.5-0.7-3.6c-1.4-3.4-4.8-5.9-8.7-5.9c-3.9,0-7.3,2.4-8.8,5.9
					c-0.5,1.1-0.7,2.3-0.7,3.6v0c0,1.3,0.3,2.5,0.7,3.6c1.4,3.4,4.8,5.9,8.8,5.9c3.9,0,7.3-2.4,8.7-5.9
					C1001.5-431.9,1001.7-433.1,1001.7-434.4L1001.7-434.4z"/>
			</g>
		</g>
		<g>
			<g>
				<path fill="#93D4E5" d="M728.3-79c0,43.6-35.4,79-79.1,79c-41.2,0-75.2-32.3-78.7-72.3h-37.8C529.2-32.3,495.4,0,454.2,0
					c-43.6,0-78.9-35.3-78.9-78.9c0-13.8,3.2-26.8,10.2-38.1v-73.1c0-0.2-0.4-0.4-0.4-0.6c0-78,80.3-141.5,179.2-141.5
					c3.9,0,7.2,3.1,7.2,7v124h142.1c3.9,0,6.9,4.6,6.9,8.5v79.7C725.4-102.7,728.3-91.3,728.3-79z M399-201.3h158.4v-116.8
					C472.4-315.4,404.9-266.3,399-201.3z M519.1-78.9c0-2.4-0.1-4.7-0.4-7c-3.5-32.6-31.2-58-64.7-58c-23.3,0-43.8,12.4-55.3,30.9
					c-3,4.8-5.4,9.9-7,15.4c-1.8,6-2.8,12.3-2.8,18.8c0,2.2,0.1,4.4,0.3,6.5c3.3,32.8,31.1,58.5,64.7,58.5
					c33.5,0,61.2-25.5,64.7-58.1C518.9-74.2,519.1-76.5,519.1-78.9L519.1-78.9z M570.5-87.3c3.6-40,37.5-71.4,78.7-71.4
					c22.5,0,42.2,10.1,57.2,25.3v-52.9H564.1H398.4v50.9c14-14,33.9-23.3,55.4-23.3c41.2,0,75.3,31.4,78.9,71.4H570.5z M714.3-78.9
					c0-3.5-0.3-6.8-0.9-10.1c-1.2-7.4-3.5-14.5-7-20.9c-11-20.3-32.5-34-57.2-34c-33.5,0-61.2,25.5-64.7,58c-0.2,2.3-0.4,4.6-0.4,7
					v0c0,2.4,0.1,4.7,0.4,7c3.5,32.6,31.2,58.1,64.7,58.1c33.5,0,61.2-25.5,64.7-58.1C714.2-74.3,714.3-76.6,714.3-78.9z"/>
			</g>
			<g>
				<path fill="#93D4E5" d="M804.8-155.3c0,9.3-7.9,16.8-17.2,16.8c-8.8,0-16.1-6.7-16.9-15.7h-8.1c-0.8,9-7.9,15.7-16.7,15.7
					c-9.3,0-16.8-7.3-16.8-16.6c0-3,0.3-5.7,2.3-8.1V-179c0,0-0.1-0.1-0.1-0.1c0-16.7,17.1-30.3,38.3-30.3c0.8,0,1.8,0.7,1.8,1.5
					v25.6h29.9c0.8,0,2.1,1.9,2.1,2.7v17C804.4-160.3,804.8-157.9,804.8-155.3z M734-182.3h34.4v-24.1
					C750.4-205.8,735.3-195.3,734-182.3z M759.7-155.2c0-0.5,0-1-0.1-1.5c-0.8-7-6.7-12.4-13.8-12.4c-5,0-9.4,2.7-11.8,6.6
					c-0.6,1-1.1,2.1-1.5,3.3c-0.4,1.3-0.6,2.6-0.6,4c0,0.5,0,0.9,0.1,1.4c0.7,7,6.6,12.5,13.9,12.5c7.2,0,13.1-5.4,13.8-12.4
					C759.7-154.2,759.7-154.7,759.7-155.2L759.7-155.2z M770.7-157.3c0.8-9,7.8-15.1,16.6-15.1c4.8,0,10,2.3,12,5.6v-11.4h-30.1
					h-34.9v11c2-3,7-5.1,11.6-5.1c8.8,0,15.9,6.1,16.6,15.1H770.7z M801.5-155.2c0-0.7-0.1-1.5-0.2-2.2c-0.3-1.6-0.8-3.1-1.5-4.5
					c-2.4-4.3-7-7.3-12.2-7.3c-7.2,0-13.1,5.4-13.8,12.4c-0.1,0.5-0.1,1-0.1,1.5v0c0,0.5,0,1,0.1,1.5c0.8,7,6.7,12.4,13.8,12.4
					c7.2,0,13.1-5.5,13.8-12.4C801.5-154.2,801.5-154.7,801.5-155.2z"/>
			</g>
			<g>
				<path fill="#93D4E5" d="M758-246.5c0,22.3-18.6,40.4-41,40.4c-21.1,0-38.5-17.1-40.3-37.1h-19.4c-1.8,20-18.7,37.1-39.8,37.1
					c-22.3,0-40-17.9-40-40.3c0-7.1,0-13.7,6-19.5v-37.4c0-0.1-0.6-0.2-0.6-0.3c0-40,40.7-72.5,91.3-72.5c2,0,4.3,1.6,4.3,3.6v62.2
					h71.5c2,0,4.5,3.6,4.5,5.6v40.8C757.4-258.6,758-252.8,758-246.5z M588.9-310.3h81.5v-58.6C626.4-367.4,591.9-342.3,588.9-310.3
					z M650.3-246.4c0-1.2-0.1-2.4-0.2-3.6c-1.8-16.7-16-29.7-33.1-29.7c-11.9,0-22.4,6.3-28.3,15.8c-1.5,2.4-2.7,5.1-3.6,7.9
					c-0.9,3-1.4,6.3-1.4,9.6c0,1.1,0.1,2.2,0.2,3.3c1.7,16.8,15.9,30,33.1,30c17.2,0,31.3-13,33.1-29.7
					C650.3-244,650.3-245.2,650.3-246.4L650.3-246.4z M676.7-252.3c1.8-20,18.8-35.8,39.9-35.8c11.5,0,22.8,6,28.8,13.7v-27h-72h-84
					v26c5-7.1,16.9-12.7,27.9-12.7c21.1,0,38.1,15.8,40,35.8H676.7z M750.3-246.4c0-1.8-0.2-3.5-0.4-5.2c-0.6-3.8-1.8-7.4-3.6-10.7
					c-5.7-10.4-16.7-17.4-29.3-17.4c-17.2,0-31.3,13-33.1,29.7c-0.1,1.2-0.2,2.4-0.2,3.6v0c0,1.2,0.1,2.4,0.2,3.6
					c1.8,16.7,16,29.7,33.1,29.7c17.2,0,31.3-13.1,33.1-29.8C750.3-244,750.3-245.2,750.3-246.4z"/>
				<path fill="#93D4E5" d="M733.2-250c0.3,1.2,0.4,2.4,0.4,3.6v0c0,1.2-0.2,2.4-0.4,3.6c-1.6,7.5-8.3,13.1-16.2,13.1
					s-14.6-5.6-16.2-13.1c-0.3-1.2-0.4-2.4-0.4-3.6v0c0-1.2,0.2-2.4,0.4-3.6c1.6-7.5,8.3-13.1,16.2-13.1S731.6-257.4,733.2-250z
					 M726.5-246.4c0-1.3-0.3-2.5-0.7-3.6c-1.4-3.4-4.8-5.9-8.7-5.9s-7.3,2.4-8.7,5.9c-0.5,1.1-0.7,2.3-0.7,3.6v0
					c0,1.3,0.3,2.5,0.7,3.6c1.4,3.4,4.8,5.9,8.7,5.9s7.3-2.4,8.7-5.9C726.2-243.9,726.5-245.1,726.5-246.4L726.5-246.4z"/>
				<path fill="#93D4E5" d="M633.3-250c0.3,1.2,0.4,2.4,0.4,3.6v0c0,1.2-0.2,2.4-0.4,3.6c-1.6,7.5-8.3,13.1-16.2,13.1
					c-7.9,0-14.6-5.6-16.2-13.1c-0.3-1.2-0.4-2.4-0.4-3.6v0c0-1.2,0.2-2.4,0.4-3.6c1.6-7.5,8.3-13.1,16.2-13.1
					C625-263,631.6-257.4,633.3-250z M626.5-246.4c0-1.3-0.3-2.5-0.7-3.6c-1.4-3.4-4.8-5.9-8.7-5.9c-3.9,0-7.3,2.4-8.8,5.9
					c-0.5,1.1-0.7,2.3-0.7,3.6v0c0,1.3,0.3,2.5,0.7,3.6c1.4,3.4,4.8,5.9,8.8,5.9c3.9,0,7.3-2.4,8.7-5.9
					C626.2-243.9,626.5-245.1,626.5-246.4L626.5-246.4z"/>
			</g>
		</g>
		<g>
			<g>
				<path fill="#93D4E5" d="M497.5-220.6c0,17.6-14.1,32-31.7,32c-16.6,0-30.3-12.7-31.7-28.7h-15.2c-1.4,16-15.1,28.7-31.7,28.7
					c-17.6,0-31.9-14.6-31.9-32.2c0-5.6,0.9-10.8,3.9-15.3v-29.4c0-0.1,0-0.2,0-0.2c0-31.4,32.5-57,72.3-57c1.6,0,2.7,1.3,2.7,2.8
					v50.6h57.5c1.6,0,2.5,1.2,2.5,2.7v32.1C496.2-230.3,497.5-225.5,497.5-220.6z M365.1-269.3h63.1V-317
					C394.2-315.9,367.5-295.3,365.1-269.3z M413.4-220.7c0-1-0.1-1.9-0.2-2.8c-1.4-13.1-12.5-23.4-26-23.4c-9.4,0-17.6,5-22.2,12.4
					c-1.2,1.9-2.2,4-2.8,6.2c-0.7,2.4-1.1,4.9-1.1,7.6c0,0.9,0,1.8,0.1,2.6c1.3,13.2,12.5,23.6,26.1,23.6c13.5,0,24.6-10.3,26-23.4
					C413.4-218.8,413.4-219.8,413.4-220.7L413.4-220.7z M434.1-223.3c1.4-16,14.7-29.2,31.3-29.2c9.1,0,16.7,3.7,22.7,9.8v-20.6
					h-56.6h-67.4v19.8c6-5.6,14-9,22.7-9c16.6,0,30.7,13.2,32.1,29.2H434.1z M492-220.7c0-1.4-0.1-2.7-0.4-4.1
					c-0.5-3-1.4-5.8-2.8-8.4c-4.4-8.2-13.1-13.7-23-13.7c-13.5,0-24.6,10.3-26,23.4c-0.1,0.9-0.2,1.9-0.2,2.8v0c0,1,0.1,1.9,0.2,2.8
					c1.4,13.1,12.5,23.4,26,23.4c13.5,0,24.6-10.3,26-23.4C492-218.9,492-219.8,492-220.7z"/>
				<path fill="#93D4E5" d="M478.6-223.6c0.2,0.9,0.3,1.9,0.3,2.8v0c0,1-0.1,1.9-0.3,2.8c-1.3,5.9-6.5,10.3-12.8,10.3
					c-6.2,0-11.5-4.4-12.8-10.3c-0.2-0.9-0.3-1.9-0.3-2.8v0c0-1,0.1-1.9,0.3-2.8c1.3-5.9,6.5-10.3,12.8-10.3
					C472.1-233.8,477.3-229.4,478.6-223.6z M473.3-220.7c0-1-0.2-2-0.6-2.8c-1.1-2.7-3.8-4.6-6.9-4.6c-3.1,0-5.8,1.9-6.9,4.6
					c-0.4,0.9-0.6,1.8-0.6,2.8v0c0,1,0.2,2,0.6,2.8c1.1,2.7,3.8,4.6,6.9,4.6c3.1,0,5.8-1.9,6.9-4.6
					C473.1-218.8,473.3-219.7,473.3-220.7L473.3-220.7z"/>
				<path fill="#93D4E5" d="M400-223.6c0.2,0.9,0.3,1.9,0.3,2.8v0c0,1-0.1,1.9-0.3,2.8c-1.3,5.9-6.5,10.3-12.8,10.3
					c-6.2,0-11.5-4.4-12.8-10.3c-0.2-0.9-0.3-1.9-0.3-2.8v0c0-1,0.1-1.9,0.3-2.8c1.3-5.9,6.5-10.3,12.8-10.3
					C393.5-233.8,398.7-229.4,400-223.6z M394.7-220.7c0-1-0.2-2-0.6-2.8c-1.1-2.7-3.8-4.6-6.9-4.6c-3.1,0-5.8,1.9-6.9,4.6
					c-0.4,0.9-0.6,1.8-0.6,2.8v0c0,1,0.2,2,0.6,2.8c1.1,2.7,3.8,4.6,6.9,4.6c3.1,0,5.8-1.9,6.9-4.6
					C394.5-218.8,394.7-219.7,394.7-220.7L394.7-220.7z"/>
			</g>
			<g>
				<path fill="#93D4E5" d="M353.1-267c0,43.6-35.4,79-79.1,79c-41.2,0-75.2-32.3-78.7-72.3h-37.8c-3.6,40-37.3,72.3-78.6,72.3
					C35.3-188,0-223.3,0-266.9c0-13.8,3.2-26.8,10.2-38.1v-73.1c0-0.2-0.4-0.4-0.4-0.6c0-78,80.3-141.5,179.2-141.5
					c3.9,0,7.2,3.1,7.2,7v124h142.1c3.9,0,6.9,4.6,6.9,8.5v79.7C350.2-290.8,353.1-279.3,353.1-267z M23.8-389.3h158.4v-116.8
					C97.2-503.4,29.7-454.3,23.8-389.3z M143.8-266.9c0-2.4-0.1-4.7-0.4-7c-3.5-32.6-31.2-58-64.7-58c-23.3,0-43.8,12.4-55.3,30.9
					c-3,4.8-5.4,9.9-7,15.4c-1.8,6-2.8,12.3-2.8,18.8c0,2.2,0.1,4.4,0.3,6.5c3.3,32.8,31.1,58.5,64.7,58.5
					c33.5,0,61.2-25.5,64.7-58.1C143.6-262.2,143.8-264.6,143.8-266.9L143.8-266.9z M195.3-275.3c3.6-40,37.5-71.4,78.7-71.4
					c22.5,0,42.2,10.1,57.2,25.3v-52.9H188.8H23.2v50.9c14-14,33.9-23.3,55.4-23.3c41.2,0,75.3,31.4,78.9,71.4H195.3z M339.1-266.9
					c0-3.5-0.3-6.8-0.9-10.1c-1.2-7.4-3.5-14.5-7-20.9c-11-20.3-32.5-34-57.2-34c-33.5,0-61.2,25.5-64.7,58c-0.2,2.3-0.4,4.6-0.4,7
					v0c0,2.4,0.1,4.7,0.4,7c3.5,32.6,31.2,58.1,64.7,58.1c33.5,0,61.2-25.5,64.7-58.1C338.9-262.3,339.1-264.6,339.1-266.9z"/>
				<path fill="#93D4E5" d="M305.7-274c0.5,2.3,0.8,4.6,0.8,7v0c0,2.4-0.3,4.7-0.8,7c-3.2,14.6-16.2,25.5-31.7,25.5
					c-15.5,0-28.5-10.9-31.7-25.5c-0.5-2.3-0.8-4.6-0.8-7v0c0-2.4,0.3-4.7,0.8-7c3.2-14.6,16.2-25.5,31.7-25.5
					C289.5-299.5,302.5-288.5,305.7-274z M292.5-266.9c0-2.5-0.5-4.8-1.4-7c-2.8-6.7-9.4-11.5-17.1-11.5c-7.7,0-14.3,4.8-17.1,11.5
					c-0.9,2.2-1.4,4.5-1.4,7v0c0,2.5,0.5,4.8,1.4,7c2.8,6.7,9.4,11.5,17.1,11.5c7.7,0,14.3-4.8,17.1-11.5
					C292-262.1,292.5-264.5,292.5-266.9L292.5-266.9z"/>
			</g>
			<g>
				<path fill="#93D4E5" d="M429.6-343.4c0,9.3-7.9,16.8-17.2,16.8c-8.8,0-16.1-6.7-16.9-15.7h-8.1c-0.8,9-7.9,15.7-16.7,15.7
					c-9.3,0-16.8-7.3-16.8-16.6c0-3,0.3-5.7,2.3-8.1V-367c0,0-0.1-0.1-0.1-0.1c0-16.7,17.1-30.3,38.3-30.3c0.8,0,1.8,0.7,1.8,1.5
					v25.6h29.9c0.8,0,2.1,1.9,2.1,2.7v17C429.2-348.3,429.6-346,429.6-343.4z M358.8-370.3h34.4v-24.1
					C375.2-393.8,360-383.3,358.8-370.3z M384.5-343.2c0-0.5,0-1-0.1-1.5c-0.8-7-6.7-12.4-13.8-12.4c-5,0-9.4,2.7-11.8,6.6
					c-0.6,1-1.1,2.1-1.5,3.3c-0.4,1.3-0.6,2.6-0.6,4c0,0.5,0,0.9,0.1,1.4c0.7,7,6.6,12.5,13.9,12.5c7.2,0,13.1-5.4,13.8-12.4
					C384.4-342.2,384.5-342.7,384.5-343.2L384.5-343.2z M395.5-345.3c0.8-9,7.8-15.1,16.6-15.1c4.8,0,10,2.3,12,5.6v-11.4h-30.1
					h-34.9v11c2-3,7-5.1,11.6-5.1c8.8,0,15.9,6.1,16.6,15.1H395.5z M426.3-343.2c0-0.7-0.1-1.5-0.2-2.2c-0.3-1.6-0.8-3.1-1.5-4.5
					c-2.4-4.3-7-7.3-12.2-7.3c-7.2,0-13.1,5.4-13.8,12.4c-0.1,0.5-0.1,1-0.1,1.5v0c0,0.5,0,1,0.1,1.5c0.8,7,6.7,12.4,13.8,12.4
					c7.2,0,13.1-5.5,13.8-12.4C426.2-342.2,426.3-342.7,426.3-343.2z"/>
				<path fill="#93D4E5" d="M419.1-344.7c0.1,0.5,0.2,1,0.2,1.5v0c0,0.5-0.1,1-0.2,1.5c-0.7,3.1-3.5,5.5-6.8,5.5
					c-3.3,0-6.1-2.3-6.8-5.5c-0.1-0.5-0.2-1-0.2-1.5v0c0-0.5,0.1-1,0.2-1.5c0.7-3.1,3.5-5.5,6.8-5.5
					C415.7-350.2,418.4-347.8,419.1-344.7z M416.3-343.2c0-0.5-0.1-1-0.3-1.5c-0.6-1.4-2-2.5-3.7-2.5c-1.7,0-3.1,1-3.7,2.5
					c-0.2,0.5-0.3,1-0.3,1.5v0c0,0.5,0.1,1,0.3,1.5c0.6,1.4,2,2.5,3.7,2.5c1.7,0,3.1-1,3.7-2.5C416.2-342.2,416.3-342.7,416.3-343.2
					L416.3-343.2z"/>
				<path fill="#93D4E5" d="M377.3-344.7c0.1,0.5,0.2,1,0.2,1.5v0c0,0.5-0.1,1-0.2,1.5c-0.7,3.1-3.5,5.5-6.8,5.5
					c-3.3,0-6.1-2.3-6.8-5.5c-0.1-0.5-0.2-1-0.2-1.5v0c0-0.5,0.1-1,0.2-1.5c0.7-3.1,3.5-5.5,6.8-5.5
					C373.9-350.2,376.6-347.8,377.3-344.7z M374.5-343.2c0-0.5-0.1-1-0.3-1.5c-0.6-1.4-2-2.5-3.7-2.5c-1.7,0-3.1,1-3.7,2.5
					c-0.2,0.5-0.3,1-0.3,1.5v0c0,0.5,0.1,1,0.3,1.5c0.6,1.4,2,2.5,3.7,2.5c1.7,0,3.1-1,3.7-2.5C374.4-342.2,374.5-342.7,374.5-343.2
					L374.5-343.2z"/>
			</g>
			<g>
				<path fill="#93D4E5" d="M382.7-434.5c0,22.3-18.6,40.4-41,40.4c-21.1,0-38.5-17.1-40.3-37.1h-19.4c-1.8,20-18.7,37.1-39.8,37.1
					c-22.3,0-40-17.9-40-40.3c0-7.1,0-13.7,6-19.5v-37.4c0-0.1-0.6-0.2-0.6-0.3c0-40,40.7-72.5,91.3-72.5c2,0,4.3,1.6,4.3,3.6v62.2
					h71.5c2,0,4.5,3.6,4.5,5.6v40.8C382.2-446.6,382.7-440.8,382.7-434.5z M213.6-498.3h81.5v-58.6
					C251.2-555.5,216.6-530.3,213.6-498.3z M275.1-434.4c0-1.2-0.1-2.4-0.2-3.6c-1.8-16.7-16-29.7-33.1-29.7
					c-11.9,0-22.4,6.3-28.3,15.8c-1.5,2.4-2.7,5.1-3.6,7.9c-0.9,3-1.4,6.3-1.4,9.6c0,1.1,0.1,2.2,0.2,3.3c1.7,16.8,15.9,30,33.1,30
					c17.2,0,31.3-13,33.1-29.7C275-432,275.1-433.2,275.1-434.4L275.1-434.4z M301.4-440.3c1.8-20,18.8-35.8,39.9-35.8
					c11.5,0,22.8,6,28.8,13.7v-27h-72h-84v26c5-7.1,16.9-12.7,27.9-12.7c21.1,0,38.1,15.8,40,35.8H301.4z M375.1-434.4
					c0-1.8-0.2-3.5-0.4-5.2c-0.6-3.8-1.8-7.4-3.6-10.7c-5.7-10.4-16.7-17.4-29.3-17.4c-17.2,0-31.3,13-33.1,29.7
					c-0.1,1.2-0.2,2.4-0.2,3.6v0c0,1.2,0.1,2.4,0.2,3.6c1.8,16.7,16,29.7,33.1,29.7c17.2,0,31.3-13.1,33.1-29.8
					C375-432,375.1-433.2,375.1-434.4z"/>
				<path fill="#93D4E5" d="M358-438c0.3,1.2,0.4,2.4,0.4,3.6v0c0,1.2-0.2,2.4-0.4,3.6c-1.6,7.5-8.3,13.1-16.2,13.1
					c-7.9,0-14.6-5.6-16.2-13.1c-0.3-1.2-0.4-2.4-0.4-3.6v0c0-1.2,0.2-2.4,0.4-3.6c1.6-7.5,8.3-13.1,16.2-13.1
					C349.7-451,356.3-445.4,358-438z M351.2-434.4c0-1.3-0.3-2.5-0.7-3.6c-1.4-3.4-4.8-5.9-8.7-5.9c-3.9,0-7.3,2.4-8.7,5.9
					c-0.5,1.1-0.7,2.3-0.7,3.6v0c0,1.3,0.3,2.5,0.7,3.6c1.4,3.4,4.8,5.9,8.7,5.9c3.9,0,7.3-2.4,8.7-5.9
					C351-431.9,351.2-433.1,351.2-434.4L351.2-434.4z"/>
				<path fill="#93D4E5" d="M258-438c0.3,1.2,0.4,2.4,0.4,3.6v0c0,1.2-0.2,2.4-0.4,3.6c-1.6,7.5-8.3,13.1-16.2,13.1
					c-7.9,0-14.6-5.6-16.2-13.1c-0.3-1.2-0.4-2.4-0.4-3.6v0c0-1.2,0.2-2.4,0.4-3.6c1.6-7.5,8.3-13.1,16.2-13.1
					C249.7-451,256.3-445.4,258-438z M251.2-434.4c0-1.3-0.3-2.5-0.7-3.6c-1.4-3.4-4.8-5.9-8.7-5.9c-3.9,0-7.3,2.4-8.8,5.9
					c-0.5,1.1-0.7,2.3-0.7,3.6v0c0,1.3,0.3,2.5,0.7,3.6c1.4,3.4,4.8,5.9,8.8,5.9c3.9,0,7.3-2.4,8.7-5.9
					C251-431.9,251.2-433.1,251.2-434.4L251.2-434.4z"/>
			</g>
			<g>
				<path fill="#93D4E5" d="M500.3-286.1c0,7.7-6.5,13.8-14.2,13.8c-7.3,0-13.3-6-13.9-13h-6.7c-0.6,7-6.4,13-13.7,13
					c-7.7,0-13.8-6-13.8-13.7c0-2.4,0.1-4.7,2.1-6.7v-12.9c0,0-0.2-0.1-0.2-0.1c0-13.8,14.1-25,31.6-25c0.7,0,1.7,0.6,1.7,1.2v21.2
					h24.3c0.7,0,1.7,1.5,1.7,2.2v14.1C500.2-290.2,500.3-288.3,500.3-286.1z M441.9-308.3h28.3v-20
					C455.2-327.8,442.9-319.3,441.9-308.3z M463.1-286c0-0.4,0-0.8-0.1-1.2c-0.6-5.8-5.5-10.3-11.4-10.3c-4.1,0-7.7,2.2-9.8,5.5
					c-0.5,0.8-0.9,1.8-1.2,2.7c-0.3,1.1-0.5,2.2-0.5,3.3c0,0.4,0,0.8,0.1,1.2c0.6,5.8,5.5,10.4,11.4,10.4c5.9,0,10.8-4.5,11.4-10.3
					C463.1-285.1,463.1-285.6,463.1-286L463.1-286z M472.2-288.3c0.6-7,6.6-12.2,13.9-12.2c4,0,8.1,2.2,10.1,4.9v-9.7h-25.1h-28.9
					v9.3c2-2.5,5.8-4.5,9.6-4.5c7.3,0,13.1,5.2,13.8,12.2H472.2z M497.7-286c0-0.6-0.1-1.2-0.2-1.8c-0.2-1.3-0.6-2.6-1.2-3.7
					c-2-3.6-5.8-6-10.1-6c-5.9,0-10.8,4.5-11.4,10.3c0,0.4-0.1,0.8-0.1,1.2v0c0,0.4,0,0.8,0.1,1.2c0.6,5.8,5.5,10.3,11.4,10.3
					c5.9,0,10.8-4.5,11.4-10.3C497.6-285.2,497.7-285.6,497.7-286z"/>
				<path fill="#93D4E5" d="M491.8-287.2c0.1,0.4,0.1,0.8,0.1,1.2v0c0,0.4-0.1,0.8-0.1,1.2c-0.6,2.6-2.9,4.5-5.6,4.5
					c-2.7,0-5-1.9-5.6-4.5c-0.1-0.4-0.1-0.8-0.1-1.2v0c0-0.4,0.1-0.8,0.1-1.2c0.6-2.6,2.9-4.5,5.6-4.5
					C488.9-291.7,491.2-289.8,491.8-287.2z M489.4-286c0-0.4-0.1-0.9-0.2-1.2c-0.5-1.2-1.7-2-3-2c-1.4,0-2.5,0.8-3,2
					c-0.2,0.4-0.2,0.8-0.2,1.2v0c0,0.4,0.1,0.9,0.2,1.2c0.5,1.2,1.7,2,3,2c1.4,0,2.5-0.8,3-2C489.3-285.1,489.4-285.5,489.4-286
					L489.4-286z"/>
				<path fill="#93D4E5" d="M457.2-287.2c0.1,0.4,0.1,0.8,0.1,1.2v0c0,0.4-0.1,0.8-0.1,1.2c-0.6,2.6-2.9,4.5-5.6,4.5
					c-2.7,0-5-1.9-5.6-4.5c-0.1-0.4-0.1-0.8-0.1-1.2v0c0-0.4,0.1-0.8,0.1-1.2c0.6-2.6,2.9-4.5,5.6-4.5
					C454.4-291.7,456.7-289.8,457.2-287.2z M454.9-286c0-0.4-0.1-0.9-0.2-1.2c-0.5-1.2-1.7-2-3-2s-2.5,0.8-3,2
					c-0.2,0.4-0.2,0.8-0.2,1.2v0c0,0.4,0.1,0.9,0.2,1.2c0.5,1.2,1.7,2,3,2s2.5-0.8,3-2C454.8-285.1,454.9-285.5,454.9-286L454.9-286
					z"/>
			</g>
		</g>
		<g>
			<g>
				<path fill="#93D4E5" d="M1103.6-643.1c0,43.6-35.4,79-79.1,79c-41.2,0-75.2-32.3-78.7-72.3H908c-3.6,40-37.3,72.3-78.6,72.3
					c-43.6,0-78.9-35.3-78.9-78.9c0-13.8,3.2-26.8,10.2-38.1v-73.1c0-0.2-0.4-0.4-0.4-0.6c0-78,80.3-141.5,179.2-141.5
					c3.9,0,7.2,3.1,7.2,7v124h142.1c3.9,0,6.9,4.6,6.9,8.5v79.7C1100.7-666.8,1103.6-655.4,1103.6-643.1z M774.3-765.4h158.4v-116.8
					C847.7-879.5,780.2-830.4,774.3-765.4z M894.3-643c0-2.4-0.1-4.7-0.4-7c-3.5-32.6-31.2-58-64.7-58c-23.3,0-43.8,12.4-55.3,30.9
					c-3,4.8-5.4,9.9-7,15.4c-1.8,6-2.8,12.3-2.8,18.8c0,2.2,0.1,4.4,0.3,6.5c3.3,32.8,31.1,58.5,64.7,58.5
					c33.5,0,61.2-25.5,64.7-58.1C894.2-638.3,894.3-640.6,894.3-643L894.3-643z M945.8-651.4c3.6-40,37.5-71.4,78.7-71.4
					c22.5,0,42.2,10.1,57.2,25.3v-52.9H939.3H773.7v50.9c14-14,33.9-23.3,55.4-23.3c41.2,0,75.3,31.4,78.9,71.4H945.8z M1089.6-643
					c0-3.5-0.3-6.8-0.9-10.1c-1.2-7.4-3.5-14.5-7-20.9c-11-20.3-32.5-34-57.2-34c-33.5,0-61.2,25.5-64.7,58c-0.2,2.3-0.4,4.6-0.4,7
					v0c0,2.4,0.1,4.7,0.4,7c3.5,32.6,31.2,58.1,64.7,58.1c33.5,0,61.2-25.5,64.7-58.1C1089.5-638.4,1089.6-640.7,1089.6-643z"/>
				<path fill="#93D4E5" d="M1056.2-650c0.5,2.3,0.8,4.6,0.8,7v0c0,2.4-0.3,4.7-0.8,7c-3.2,14.6-16.2,25.5-31.7,25.5
					c-15.5,0-28.5-10.9-31.7-25.5c-0.5-2.3-0.8-4.6-0.8-7v0c0-2.4,0.3-4.7,0.8-7c3.2-14.6,16.2-25.5,31.7-25.5
					C1040-675.5,1053-664.6,1056.2-650z M1043-643c0-2.5-0.5-4.8-1.4-7c-2.8-6.7-9.4-11.5-17.1-11.5c-7.7,0-14.3,4.8-17.1,11.5
					c-0.9,2.2-1.4,4.5-1.4,7v0c0,2.5,0.5,4.8,1.4,7c2.8,6.7,9.4,11.5,17.1,11.5c7.7,0,14.3-4.8,17.1-11.5
					C1042.5-638.2,1043-640.5,1043-643L1043-643z"/>
				<path fill="#93D4E5" d="M861-650c0.5,2.3,0.8,4.6,0.8,7v0c0,2.4-0.3,4.7-0.8,7c-3.2,14.6-16.2,25.5-31.7,25.5
					c-15.5,0-28.5-10.9-31.7-25.5c-0.5-2.3-0.8-4.6-0.8-7v0c0-2.4,0.3-4.7,0.8-7c3.2-14.6,16.2-25.5,31.7-25.5
					C844.8-675.5,857.7-664.6,861-650z M847.7-643c0-2.5-0.5-4.8-1.4-7c-2.8-6.7-9.4-11.5-17.1-11.5c-7.7,0-14.3,4.8-17.1,11.5
					c-0.9,2.2-1.4,4.5-1.4,7v0c0,2.5,0.5,4.8,1.4,7c2.8,6.7,9.4,11.5,17.1,11.5c7.7,0,14.3-4.8,17.1-11.5
					C847.2-638.2,847.7-640.5,847.7-643L847.7-643z"/>
			</g>
			<g>
				<path fill="#93D4E5" d="M1133.2-810.6c0,22.3-18.6,40.4-41,40.4c-21.1,0-38.5-17.1-40.3-37.1h-19.4c-1.8,20-18.7,37.1-39.8,37.1
					c-22.3,0-40-17.9-40-40.3c0-7.1,0-13.7,6-19.5v-37.4c0-0.1-0.6-0.2-0.6-0.3c0-40,40.7-72.5,91.3-72.5c2,0,4.3,1.6,4.3,3.6v62.2
					h71.5c2,0,4.5,3.6,4.5,5.6v40.8C1132.7-822.7,1133.2-816.9,1133.2-810.6z M964.1-874.4h81.5v-58.6
					C1001.7-931.5,967.2-906.4,964.1-874.4z M1025.6-810.5c0-1.2-0.1-2.4-0.2-3.6c-1.8-16.7-16-29.7-33.1-29.7
					c-11.9,0-22.4,6.3-28.3,15.8c-1.5,2.4-2.7,5.1-3.6,7.9c-0.9,3-1.4,6.3-1.4,9.6c0,1.1,0.1,2.2,0.2,3.3c1.7,16.8,15.9,30,33.1,30
					c17.2,0,31.3-13,33.1-29.7C1025.5-808.1,1025.6-809.3,1025.6-810.5L1025.6-810.5z M1052-816.4c1.8-20,18.8-35.8,39.9-35.8
					c11.5,0,22.8,6,28.8,13.7v-27h-72h-84v26c5-7.1,16.9-12.7,27.9-12.7c21.1,0,38.1,15.8,40,35.8H1052z M1125.6-810.5
					c0-1.8-0.2-3.5-0.4-5.2c-0.6-3.8-1.8-7.4-3.6-10.7c-5.7-10.4-16.7-17.4-29.3-17.4c-17.2,0-31.3,13-33.1,29.7
					c-0.1,1.2-0.2,2.4-0.2,3.6v0c0,1.2,0.1,2.4,0.2,3.6c1.8,16.7,16,29.7,33.1,29.7c17.2,0,31.3-13.1,33.1-29.8
					C1125.5-808.1,1125.6-809.3,1125.6-810.5z"/>
				<path fill="#93D4E5" d="M1008.5-814.1c0.3,1.2,0.4,2.4,0.4,3.6v0c0,1.2-0.2,2.4-0.4,3.6c-1.6,7.5-8.3,13.1-16.2,13.1
					c-7.9,0-14.6-5.6-16.2-13.1c-0.3-1.2-0.4-2.4-0.4-3.6v0c0-1.2,0.2-2.4,0.4-3.6c1.6-7.5,8.3-13.1,16.2-13.1
					C1000.2-827.1,1006.9-821.5,1008.5-814.1z M1001.7-810.5c0-1.3-0.3-2.5-0.7-3.6c-1.4-3.4-4.8-5.9-8.7-5.9
					c-3.9,0-7.3,2.4-8.8,5.9c-0.5,1.1-0.7,2.3-0.7,3.6v0c0,1.3,0.3,2.5,0.7,3.6c1.4,3.4,4.8,5.9,8.8,5.9c3.9,0,7.3-2.4,8.7-5.9
					C1001.5-808,1001.7-809.2,1001.7-810.5L1001.7-810.5z"/>
			</g>
		</g>
		<g>
			<g>
				<path fill="#93D4E5" d="M872.8-408.6c0,17.6-14.1,32-31.7,32c-16.6,0-30.3-12.7-31.7-28.7h-15.2c-1.4,16-15.1,28.7-31.7,28.7
					c-17.6,0-31.9-14.6-31.9-32.2c0-5.6,0.9-10.8,3.9-15.3v-29.4c0-0.1,0-0.2,0-0.2c0-31.4,32.5-57,72.3-57c1.6,0,2.7,1.3,2.7,2.8
					v50.6h57.5c1.6,0,2.5,1.2,2.5,2.7v32.1C871.4-418.4,872.8-413.5,872.8-408.6z M740.4-457.3h63.1v-47.7
					C769.4-504,742.7-483.3,740.4-457.3z M788.7-408.8c0-1-0.1-1.9-0.2-2.8c-1.4-13.1-12.5-23.4-26-23.4c-9.4,0-17.6,5-22.2,12.4
					c-1.2,1.9-2.2,4-2.8,6.2c-0.7,2.4-1.1,4.9-1.1,7.6c0,0.9,0,1.8,0.1,2.6c1.3,13.2,12.5,23.6,26.1,23.6c13.5,0,24.6-10.3,26-23.4
					C788.6-406.9,788.7-407.8,788.7-408.8L788.7-408.8z M809.4-411.3c1.4-16,14.7-29.2,31.3-29.2c9.1,0,16.7,3.7,22.7,9.8v-20.6
					h-56.6h-67.4v19.8c6-5.6,14-9,22.7-9c16.6,0,30.7,13.2,32.1,29.2H809.4z M867.3-408.8c0-1.4-0.1-2.7-0.4-4.1
					c-0.5-3-1.4-5.8-2.8-8.4c-4.4-8.2-13.1-13.7-23-13.7c-13.5,0-24.6,10.3-26,23.4c-0.1,0.9-0.2,1.9-0.2,2.8v0c0,1,0.1,1.9,0.2,2.8
					c1.4,13.1,12.5,23.4,26,23.4c13.5,0,24.6-10.3,26-23.4C867.2-406.9,867.3-407.8,867.3-408.8z"/>
				<path fill="#93D4E5" d="M853.9-411.6c0.2,0.9,0.3,1.9,0.3,2.8v0c0,1-0.1,1.9-0.3,2.8c-1.3,5.9-6.5,10.3-12.8,10.3
					c-6.2,0-11.5-4.4-12.8-10.3c-0.2-0.9-0.3-1.9-0.3-2.8v0c0-1,0.1-1.9,0.3-2.8c1.3-5.9,6.5-10.3,12.8-10.3
					C847.4-421.9,852.6-417.5,853.9-411.6z M848.5-408.8c0-1-0.2-2-0.6-2.8c-1.1-2.7-3.8-4.6-6.9-4.6c-3.1,0-5.8,1.9-6.9,4.6
					c-0.4,0.9-0.6,1.8-0.6,2.8v0c0,1,0.2,2,0.6,2.8c1.1,2.7,3.8,4.6,6.9,4.6c3.1,0,5.8-1.9,6.9-4.6
					C848.3-406.8,848.5-407.8,848.5-408.8L848.5-408.8z"/>
				<path fill="#93D4E5" d="M775.2-411.6c0.2,0.9,0.3,1.9,0.3,2.8v0c0,1-0.1,1.9-0.3,2.8c-1.3,5.9-6.5,10.3-12.8,10.3
					c-6.2,0-11.5-4.4-12.8-10.3c-0.2-0.9-0.3-1.9-0.3-2.8v0c0-1,0.1-1.9,0.3-2.8c1.3-5.9,6.5-10.3,12.8-10.3
					C768.7-421.9,773.9-417.5,775.2-411.6z M769.9-408.8c0-1-0.2-2-0.6-2.8c-1.1-2.7-3.8-4.6-6.9-4.6c-3.1,0-5.8,1.9-6.9,4.6
					c-0.4,0.9-0.6,1.8-0.6,2.8v0c0,1,0.2,2,0.6,2.8c1.1,2.7,3.8,4.6,6.9,4.6c3.1,0,5.8-1.9,6.9-4.6
					C769.7-406.8,769.9-407.8,769.9-408.8L769.9-408.8z"/>
			</g>
			<g>
				<path fill="#93D4E5" d="M728.3-455.1c0,43.6-35.4,79-79.1,79c-41.2,0-75.2-32.3-78.7-72.3h-37.8c-3.6,40-37.3,72.3-78.6,72.3
					c-43.6,0-78.9-35.3-78.9-78.9c0-13.8,3.2-26.8,10.2-38.1v-73.1c0-0.2-0.4-0.4-0.4-0.6c0-78,80.3-141.5,179.2-141.5
					c3.9,0,7.2,3.1,7.2,7v124h142.1c3.9,0,6.9,4.6,6.9,8.5v79.7C725.4-478.8,728.3-467.3,728.3-455.1z M399-577.3h158.4v-116.8
					C472.4-691.4,404.9-642.3,399-577.3z M519.1-455c0-2.4-0.1-4.7-0.4-7c-3.5-32.6-31.2-58-64.7-58c-23.3,0-43.8,12.4-55.3,30.9
					c-3,4.8-5.4,9.9-7,15.4c-1.8,6-2.8,12.3-2.8,18.8c0,2.2,0.1,4.4,0.3,6.5c3.3,32.8,31.1,58.5,64.7,58.5
					c33.5,0,61.2-25.5,64.7-58.1C518.9-450.3,519.1-452.6,519.1-455L519.1-455z M570.5-463.3c3.6-40,37.5-71.4,78.7-71.4
					c22.5,0,42.2,10.1,57.2,25.3v-52.9H564.1H398.4v50.9c14-14,33.9-23.3,55.4-23.3c41.2,0,75.3,31.4,78.9,71.4H570.5z M714.3-455
					c0-3.5-0.3-6.8-0.9-10.1c-1.2-7.4-3.5-14.5-7-20.9c-11-20.3-32.5-34-57.2-34c-33.5,0-61.2,25.5-64.7,58c-0.2,2.3-0.4,4.6-0.4,7
					v0c0,2.4,0.1,4.7,0.4,7c3.5,32.6,31.2,58.1,64.7,58.1c33.5,0,61.2-25.5,64.7-58.1C714.2-450.3,714.3-452.6,714.3-455z"/>
				<path fill="#93D4E5" d="M681-462c0.5,2.3,0.8,4.6,0.8,7v0c0,2.4-0.3,4.7-0.8,7c-3.2,14.6-16.2,25.5-31.7,25.5
					c-15.5,0-28.5-10.9-31.7-25.5c-0.5-2.3-0.8-4.6-0.8-7v0c0-2.4,0.3-4.7,0.8-7c3.2-14.6,16.2-25.5,31.7-25.5
					C664.8-487.5,677.8-476.5,681-462z M667.8-455c0-2.5-0.5-4.8-1.4-7c-2.8-6.7-9.4-11.5-17.1-11.5c-7.7,0-14.3,4.8-17.1,11.5
					c-0.9,2.2-1.4,4.5-1.4,7v0c0,2.5,0.5,4.8,1.4,7c2.8,6.7,9.4,11.5,17.1,11.5c7.7,0,14.3-4.8,17.1-11.5
					C667.3-450.1,667.8-452.5,667.8-455L667.8-455z"/>
				<path fill="#93D4E5" d="M485.7-462c0.5,2.3,0.8,4.6,0.8,7v0c0,2.4-0.3,4.7-0.8,7c-3.2,14.6-16.2,25.5-31.7,25.5
					c-15.5,0-28.5-10.9-31.7-25.5c-0.5-2.3-0.8-4.6-0.8-7v0c0-2.4,0.3-4.7,0.8-7c3.2-14.6,16.2-25.5,31.7-25.5
					C469.5-487.5,482.5-476.5,485.7-462z M472.5-455c0-2.5-0.5-4.8-1.4-7c-2.8-6.7-9.4-11.5-17.1-11.5c-7.7,0-14.3,4.8-17.1,11.5
					c-0.9,2.2-1.4,4.5-1.4,7v0c0,2.5,0.5,4.8,1.4,7c2.8,6.7,9.4,11.5,17.1,11.5c7.7,0,14.3-4.8,17.1-11.5
					C472-450.1,472.5-452.5,472.5-455L472.5-455z"/>
			</g>
			<g>
				<path fill="#93D4E5" d="M804.8-531.4c0,9.3-7.9,16.8-17.2,16.8c-8.8,0-16.1-6.7-16.9-15.7h-8.1c-0.8,9-7.9,15.7-16.7,15.7
					c-9.3,0-16.8-7.3-16.8-16.6c0-3,0.3-5.7,2.3-8.1V-555c0,0-0.1-0.1-0.1-0.1c0-16.7,17.1-30.3,38.3-30.3c0.8,0,1.8,0.7,1.8,1.5
					v25.6h29.9c0.8,0,2.1,1.9,2.1,2.7v17C804.4-536.3,804.8-534,804.8-531.4z M734-558.3h34.4v-24.1
					C750.4-581.9,735.3-571.3,734-558.3z M759.7-531.3c0-0.5,0-1-0.1-1.5c-0.8-7-6.7-12.4-13.8-12.4c-5,0-9.4,2.7-11.8,6.6
					c-0.6,1-1.1,2.1-1.5,3.3c-0.4,1.3-0.6,2.6-0.6,4c0,0.5,0,0.9,0.1,1.4c0.7,7,6.6,12.5,13.9,12.5c7.2,0,13.1-5.4,13.8-12.4
					C759.7-530.2,759.7-530.7,759.7-531.3L759.7-531.3z M770.7-533.3c0.8-9,7.8-15.1,16.6-15.1c4.8,0,10,2.3,12,5.6v-11.4h-30.1
					h-34.9v11c2-3,7-5.1,11.6-5.1c8.8,0,15.9,6.1,16.6,15.1H770.7z M801.5-531.3c0-0.7-0.1-1.5-0.2-2.2c-0.3-1.6-0.8-3.1-1.5-4.5
					c-2.4-4.3-7-7.3-12.2-7.3c-7.2,0-13.1,5.4-13.8,12.4c-0.1,0.5-0.1,1-0.1,1.5v0c0,0.5,0,1,0.1,1.5c0.8,7,6.7,12.4,13.8,12.4
					c7.2,0,13.1-5.5,13.8-12.4C801.5-530.3,801.5-530.8,801.5-531.3z"/>
				<path fill="#93D4E5" d="M794.4-532.8c0.1,0.5,0.2,1,0.2,1.5v0c0,0.5-0.1,1-0.2,1.5c-0.7,3.1-3.5,5.5-6.8,5.5s-6.1-2.3-6.8-5.5
					c-0.1-0.5-0.2-1-0.2-1.5v0c0-0.5,0.1-1,0.2-1.5c0.7-3.1,3.5-5.5,6.8-5.5S793.7-535.9,794.4-532.8z M791.5-531.3
					c0-0.5-0.1-1-0.3-1.5c-0.6-1.4-2-2.5-3.7-2.5s-3.1,1-3.7,2.5c-0.2,0.5-0.3,1-0.3,1.5v0c0,0.5,0.1,1,0.3,1.5
					c0.6,1.4,2,2.5,3.7,2.5s3.1-1,3.7-2.5C791.4-530.2,791.5-530.7,791.5-531.3L791.5-531.3z"/>
				<path fill="#93D4E5" d="M752.6-532.8c0.1,0.5,0.2,1,0.2,1.5v0c0,0.5-0.1,1-0.2,1.5c-0.7,3.1-3.5,5.5-6.8,5.5
					c-3.3,0-6.1-2.3-6.8-5.5c-0.1-0.5-0.2-1-0.2-1.5v0c0-0.5,0.1-1,0.2-1.5c0.7-3.1,3.5-5.5,6.8-5.5
					C749.1-538.2,751.9-535.9,752.6-532.8z M749.7-531.3c0-0.5-0.1-1-0.3-1.5c-0.6-1.4-2-2.5-3.7-2.5s-3.1,1-3.7,2.5
					c-0.2,0.5-0.3,1-0.3,1.5v0c0,0.5,0.1,1,0.3,1.5c0.6,1.4,2,2.5,3.7,2.5s3.1-1,3.7-2.5C749.6-530.2,749.7-530.7,749.7-531.3
					L749.7-531.3z"/>
			</g>
			<g>
				<path fill="#93D4E5" d="M758-622.6c0,22.3-18.6,40.4-41,40.4c-21.1,0-38.5-17.1-40.3-37.1h-19.4c-1.8,20-18.7,37.1-39.8,37.1
					c-22.3,0-40-17.9-40-40.3c0-7.1,0-13.7,6-19.5v-37.4c0-0.1-0.6-0.2-0.6-0.3c0-40,40.7-72.5,91.3-72.5c2,0,4.3,1.6,4.3,3.6v62.2
					h71.5c2,0,4.5,3.6,4.5,5.6v40.8C757.4-634.6,758-628.8,758-622.6z M588.9-686.3h81.5v-58.6C626.4-743.5,591.9-718.3,588.9-686.3
					z M650.3-622.4c0-1.2-0.1-2.4-0.2-3.6c-1.8-16.7-16-29.7-33.1-29.7c-11.9,0-22.4,6.3-28.3,15.8c-1.5,2.4-2.7,5.1-3.6,7.9
					c-0.9,3-1.4,6.3-1.4,9.6c0,1.1,0.1,2.2,0.2,3.3c1.7,16.8,15.9,30,33.1,30c17.2,0,31.3-13,33.1-29.7
					C650.3-620,650.3-621.2,650.3-622.4L650.3-622.4z M676.7-628.3c1.8-20,18.8-35.8,39.9-35.8c11.5,0,22.8,6,28.8,13.7v-27h-72h-84
					v26c5-7.1,16.9-12.7,27.9-12.7c21.1,0,38.1,15.8,40,35.8H676.7z M750.3-622.4c0-1.8-0.2-3.5-0.4-5.2c-0.6-3.8-1.8-7.4-3.6-10.7
					c-5.7-10.4-16.7-17.4-29.3-17.4c-17.2,0-31.3,13-33.1,29.7c-0.1,1.2-0.2,2.4-0.2,3.6v0c0,1.2,0.1,2.4,0.2,3.6
					c1.8,16.7,16,29.7,33.1,29.7c17.2,0,31.3-13.1,33.1-29.8C750.3-620.1,750.3-621.2,750.3-622.4z"/>
				<path fill="#93D4E5" d="M733.2-626c0.3,1.2,0.4,2.4,0.4,3.6v0c0,1.2-0.2,2.4-0.4,3.6c-1.6,7.5-8.3,13.1-16.2,13.1
					s-14.6-5.6-16.2-13.1c-0.3-1.2-0.4-2.4-0.4-3.6v0c0-1.2,0.2-2.4,0.4-3.6c1.6-7.5,8.3-13.1,16.2-13.1S731.6-633.5,733.2-626z
					 M726.5-622.4c0-1.3-0.3-2.5-0.7-3.6c-1.4-3.4-4.8-5.9-8.7-5.9s-7.3,2.4-8.7,5.9c-0.5,1.1-0.7,2.3-0.7,3.6v0
					c0,1.3,0.3,2.5,0.7,3.6c1.4,3.4,4.8,5.9,8.7,5.9s7.3-2.4,8.7-5.9C726.2-620,726.5-621.2,726.5-622.4L726.5-622.4z"/>
				<path fill="#93D4E5" d="M633.3-626c0.3,1.2,0.4,2.4,0.4,3.6v0c0,1.2-0.2,2.4-0.4,3.6c-1.6,7.5-8.3,13.1-16.2,13.1
					c-7.9,0-14.6-5.6-16.2-13.1c-0.3-1.2-0.4-2.4-0.4-3.6v0c0-1.2,0.2-2.4,0.4-3.6c1.6-7.5,8.3-13.1,16.2-13.1
					C625-639.1,631.6-633.5,633.3-626z M626.5-622.4c0-1.3-0.3-2.5-0.7-3.6c-1.4-3.4-4.8-5.9-8.7-5.9c-3.9,0-7.3,2.4-8.8,5.9
					c-0.5,1.1-0.7,2.3-0.7,3.6v0c0,1.3,0.3,2.5,0.7,3.6c1.4,3.4,4.8,5.9,8.8,5.9c3.9,0,7.3-2.4,8.7-5.9
					C626.2-620,626.5-621.2,626.5-622.4L626.5-622.4z"/>
			</g>
			<g>
				<path fill="#93D4E5" d="M875.6-474.1c0,7.7-6.5,13.8-14.2,13.8c-7.3,0-13.3-6-13.9-13h-6.7c-0.6,7-6.4,13-13.7,13
					c-7.7,0-13.8-6-13.8-13.7c0-2.4,0.1-4.7,2.1-6.7v-12.9c0,0-0.2-0.1-0.2-0.1c0-13.8,14.1-25,31.6-25c0.7,0,1.7,0.6,1.7,1.2v21.2
					h24.3c0.7,0,1.7,1.5,1.7,2.2v14.1C875.4-478.2,875.6-476.3,875.6-474.1z M817.2-496.3h28.3v-20
					C830.4-515.8,818.2-507.3,817.2-496.3z M838.4-474c0-0.4,0-0.8-0.1-1.2c-0.6-5.8-5.5-10.3-11.4-10.3c-4.1,0-7.7,2.2-9.8,5.5
					c-0.5,0.8-0.9,1.8-1.2,2.7c-0.3,1.1-0.5,2.2-0.5,3.3c0,0.4,0,0.8,0.1,1.2c0.6,5.8,5.5,10.4,11.4,10.4c5.9,0,10.8-4.5,11.4-10.3
					C838.4-473.2,838.4-473.6,838.4-474L838.4-474z M847.5-476.3c0.6-7,6.6-12.2,13.9-12.2c4,0,8.1,2.2,10.1,4.9v-9.7h-25.1h-28.9
					v9.3c2-2.5,5.8-4.5,9.6-4.5c7.3,0,13.1,5.2,13.8,12.2H847.5z M872.9-474c0-0.6-0.1-1.2-0.2-1.8c-0.2-1.3-0.6-2.6-1.2-3.7
					c-2-3.6-5.8-6-10.1-6c-5.9,0-10.8,4.5-11.4,10.3c0,0.4-0.1,0.8-0.1,1.2v0c0,0.4,0,0.8,0.1,1.2c0.6,5.8,5.5,10.3,11.4,10.3
					c5.9,0,10.8-4.5,11.4-10.3C872.9-473.2,872.9-473.6,872.9-474z"/>
				<path fill="#93D4E5" d="M867-475.3c0.1,0.4,0.1,0.8,0.1,1.2v0c0,0.4-0.1,0.8-0.1,1.2c-0.6,2.6-2.9,4.5-5.6,4.5
					c-2.7,0-5-1.9-5.6-4.5c-0.1-0.4-0.1-0.8-0.1-1.2v0c0-0.4,0.1-0.8,0.1-1.2c0.6-2.6,2.9-4.5,5.6-4.5
					C864.2-479.8,866.4-477.8,867-475.3z M864.7-474c0-0.4-0.1-0.9-0.2-1.2c-0.5-1.2-1.7-2-3-2s-2.5,0.8-3,2
					c-0.2,0.4-0.2,0.8-0.2,1.2v0c0,0.4,0.1,0.9,0.2,1.2c0.5,1.2,1.7,2,3,2s2.5-0.8,3-2C864.6-473.2,864.7-473.6,864.7-474L864.7-474
					z"/>
				<path fill="#93D4E5" d="M832.5-475.3c0.1,0.4,0.1,0.8,0.1,1.2v0c0,0.4-0.1,0.8-0.1,1.2c-0.6,2.6-2.9,4.5-5.6,4.5
					c-2.7,0-5-1.9-5.6-4.5c-0.1-0.4-0.1-0.8-0.1-1.2v0c0-0.4,0.1-0.8,0.1-1.2c0.6-2.6,2.9-4.5,5.6-4.5
					C829.6-479.8,831.9-477.8,832.5-475.3z M830.1-474c0-0.4-0.1-0.9-0.2-1.2c-0.5-1.2-1.7-2-3-2c-1.4,0-2.5,0.8-3,2
					c-0.2,0.4-0.2,0.8-0.2,1.2v0c0,0.4,0.1,0.9,0.2,1.2c0.5,1.2,1.7,2,3,2c1.4,0,2.5-0.8,3-2C830.1-473.2,830.1-473.6,830.1-474
					L830.1-474z"/>
			</g>
		</g>
		<g>
			<g>
				<path fill="#93D4E5" d="M497.5-596.6c0,17.6-14.1,32-31.7,32c-16.6,0-30.3-12.7-31.7-28.7h-15.2c-1.4,16-15.1,28.7-31.7,28.7
					c-17.6,0-31.9-14.6-31.9-32.2c0-5.6,0.9-10.8,3.9-15.3v-29.4c0-0.1,0-0.2,0-0.2c0-31.4,32.5-57,72.3-57c1.6,0,2.7,1.3,2.7,2.8
					v50.6h57.5c1.6,0,2.5,1.2,2.5,2.7v32.1C496.2-606.4,497.5-601.6,497.5-596.6z M365.1-645.4h63.1v-47.7
					C394.2-692,367.5-671.4,365.1-645.4z M413.4-596.8c0-1-0.1-1.9-0.2-2.8c-1.4-13.1-12.5-23.4-26-23.4c-9.4,0-17.6,5-22.2,12.4
					c-1.2,1.9-2.2,4-2.8,6.2c-0.7,2.4-1.1,4.9-1.1,7.6c0,0.9,0,1.8,0.1,2.6c1.3,13.2,12.5,23.6,26.1,23.6c13.5,0,24.6-10.3,26-23.4
					C413.4-594.9,413.4-595.8,413.4-596.8L413.4-596.8z M434.1-599.4c1.4-16,14.7-29.2,31.3-29.2c9.1,0,16.7,3.7,22.7,9.8v-20.6
					h-56.6h-67.4v19.8c6-5.6,14-9,22.7-9c16.6,0,30.7,13.2,32.1,29.2H434.1z M492-596.8c0-1.4-0.1-2.7-0.4-4.1
					c-0.5-3-1.4-5.8-2.8-8.4c-4.4-8.2-13.1-13.7-23-13.7c-13.5,0-24.6,10.3-26,23.4c-0.1,0.9-0.2,1.9-0.2,2.8v0c0,1,0.1,1.9,0.2,2.8
					c1.4,13.1,12.5,23.4,26,23.4c13.5,0,24.6-10.3,26-23.4C492-594.9,492-595.9,492-596.8z"/>
				<path fill="#93D4E5" d="M478.6-599.6c0.2,0.9,0.3,1.9,0.3,2.8v0c0,1-0.1,1.9-0.3,2.8c-1.3,5.9-6.5,10.3-12.8,10.3
					c-6.2,0-11.5-4.4-12.8-10.3c-0.2-0.9-0.3-1.9-0.3-2.8v0c0-1,0.1-1.9,0.3-2.8c1.3-5.9,6.5-10.3,12.8-10.3
					C472.1-609.9,477.3-605.5,478.6-599.6z M473.3-596.8c0-1-0.2-2-0.6-2.8c-1.1-2.7-3.8-4.6-6.9-4.6c-3.1,0-5.8,1.9-6.9,4.6
					c-0.4,0.9-0.6,1.8-0.6,2.8v0c0,1,0.2,2,0.6,2.8c1.1,2.7,3.8,4.6,6.9,4.6c3.1,0,5.8-1.9,6.9-4.6
					C473.1-594.8,473.3-595.8,473.3-596.8L473.3-596.8z"/>
				<path fill="#93D4E5" d="M400-599.6c0.2,0.9,0.3,1.9,0.3,2.8v0c0,1-0.1,1.9-0.3,2.8c-1.3,5.9-6.5,10.3-12.8,10.3
					c-6.2,0-11.5-4.4-12.8-10.3c-0.2-0.9-0.3-1.9-0.3-2.8v0c0-1,0.1-1.9,0.3-2.8c1.3-5.9,6.5-10.3,12.8-10.3
					C393.5-609.9,398.7-605.5,400-599.6z M394.7-596.8c0-1-0.2-2-0.6-2.8c-1.1-2.7-3.8-4.6-6.9-4.6c-3.1,0-5.8,1.9-6.9,4.6
					c-0.4,0.9-0.6,1.8-0.6,2.8v0c0,1,0.2,2,0.6,2.8c1.1,2.7,3.8,4.6,6.9,4.6c3.1,0,5.8-1.9,6.9-4.6
					C394.5-594.8,394.7-595.8,394.7-596.8L394.7-596.8z"/>
			</g>
			<g>
				<path fill="#93D4E5" d="M353.1-643.1c0,43.6-35.4,79-79.1,79c-41.2,0-75.2-32.3-78.7-72.3h-37.8c-3.6,40-37.3,72.3-78.6,72.3
					C35.3-564.1,0-599.4,0-643c0-13.8,3.2-26.8,10.2-38.1v-73.1c0-0.2-0.4-0.4-0.4-0.6c0-78,80.3-141.5,179.2-141.5
					c3.9,0,7.2,3.1,7.2,7v124h142.1c3.9,0,6.9,4.6,6.9,8.5v79.7C350.2-666.8,353.1-655.4,353.1-643.1z M23.8-765.4h158.4v-116.8
					C97.2-879.5,29.7-830.4,23.8-765.4z M143.8-643c0-2.4-0.1-4.7-0.4-7c-3.5-32.6-31.2-58-64.7-58c-23.3,0-43.8,12.4-55.3,30.9
					c-3,4.8-5.4,9.9-7,15.4c-1.8,6-2.8,12.3-2.8,18.8c0,2.2,0.1,4.4,0.3,6.5c3.3,32.8,31.1,58.5,64.7,58.5
					c33.5,0,61.2-25.5,64.7-58.1C143.6-638.3,143.8-640.6,143.8-643L143.8-643z M195.3-651.4c3.6-40,37.5-71.4,78.7-71.4
					c22.5,0,42.2,10.1,57.2,25.3v-52.9H188.8H23.2v50.9c14-14,33.9-23.3,55.4-23.3c41.2,0,75.3,31.4,78.9,71.4H195.3z M339.1-643
					c0-3.5-0.3-6.8-0.9-10.1c-1.2-7.4-3.5-14.5-7-20.9c-11-20.3-32.5-34-57.2-34c-33.5,0-61.2,25.5-64.7,58c-0.2,2.3-0.4,4.6-0.4,7
					v0c0,2.4,0.1,4.7,0.4,7c3.5,32.6,31.2,58.1,64.7,58.1c33.5,0,61.2-25.5,64.7-58.1C338.9-638.4,339.1-640.7,339.1-643z"/>
				<path fill="#93D4E5" d="M305.7-650c0.5,2.3,0.8,4.6,0.8,7v0c0,2.4-0.3,4.7-0.8,7c-3.2,14.6-16.2,25.5-31.7,25.5
					c-15.5,0-28.5-10.9-31.7-25.5c-0.5-2.3-0.8-4.6-0.8-7v0c0-2.4,0.3-4.7,0.8-7c3.2-14.6,16.2-25.5,31.7-25.5
					C289.5-675.5,302.5-664.6,305.7-650z M292.5-643c0-2.5-0.5-4.8-1.4-7c-2.8-6.7-9.4-11.5-17.1-11.5c-7.7,0-14.3,4.8-17.1,11.5
					c-0.9,2.2-1.4,4.5-1.4,7v0c0,2.5,0.5,4.8,1.4,7c2.8,6.7,9.4,11.5,17.1,11.5c7.7,0,14.3-4.8,17.1-11.5
					C292-638.2,292.5-640.5,292.5-643L292.5-643z"/>
			</g>
			<g>
				<path fill="#93D4E5" d="M429.6-719.4c0,9.3-7.9,16.8-17.2,16.8c-8.8,0-16.1-6.7-16.9-15.7h-8.1c-0.8,9-7.9,15.7-16.7,15.7
					c-9.3,0-16.8-7.3-16.8-16.6c0-3,0.3-5.7,2.3-8.1v-15.6c0,0-0.1-0.1-0.1-0.1c0-16.7,17.1-30.3,38.3-30.3c0.8,0,1.8,0.7,1.8,1.5
					v25.6h29.9c0.8,0,2.1,1.9,2.1,2.7v17C429.2-724.4,429.6-722.1,429.6-719.4z M358.8-746.4h34.4v-24.1
					C375.2-769.9,360-759.4,358.8-746.4z M384.5-719.3c0-0.5,0-1-0.1-1.5c-0.8-7-6.7-12.4-13.8-12.4c-5,0-9.4,2.7-11.8,6.6
					c-0.6,1-1.1,2.1-1.5,3.3c-0.4,1.3-0.6,2.6-0.6,4c0,0.5,0,0.9,0.1,1.4c0.7,7,6.6,12.5,13.9,12.5c7.2,0,13.1-5.5,13.8-12.4
					C384.4-718.3,384.5-718.8,384.5-719.3L384.5-719.3z M395.5-721.4c0.8-9,7.8-15.1,16.6-15.1c4.8,0,10,2.3,12,5.6v-11.4h-30.1
					h-34.9v11c2-3,7-5.1,11.6-5.1c8.8,0,15.9,6.1,16.6,15.1H395.5z M426.3-719.3c0-0.7-0.1-1.5-0.2-2.2c-0.3-1.6-0.8-3.1-1.5-4.5
					c-2.4-4.3-7-7.3-12.2-7.3c-7.2,0-13.1,5.4-13.8,12.4c-0.1,0.5-0.1,1-0.1,1.5v0c0,0.5,0,1,0.1,1.5c0.8,7,6.7,12.4,13.8,12.4
					c7.2,0,13.1-5.5,13.8-12.4C426.2-718.3,426.3-718.8,426.3-719.3z"/>
				<path fill="#93D4E5" d="M419.1-720.8c0.1,0.5,0.2,1,0.2,1.5v0c0,0.5-0.1,1-0.2,1.5c-0.7,3.1-3.5,5.5-6.8,5.5
					c-3.3,0-6.1-2.3-6.8-5.5c-0.1-0.5-0.2-1-0.2-1.5v0c0-0.5,0.1-1,0.2-1.5c0.7-3.1,3.5-5.5,6.8-5.5
					C415.7-726.2,418.4-723.9,419.1-720.8z M416.3-719.3c0-0.5-0.1-1-0.3-1.5c-0.6-1.4-2-2.5-3.7-2.5c-1.7,0-3.1,1-3.7,2.5
					c-0.2,0.5-0.3,1-0.3,1.5v0c0,0.5,0.1,1,0.3,1.5c0.6,1.4,2,2.5,3.7,2.5c1.7,0,3.1-1,3.7-2.5C416.2-718.2,416.3-718.8,416.3-719.3
					L416.3-719.3z"/>
				<path fill="#93D4E5" d="M377.3-720.8c0.1,0.5,0.2,1,0.2,1.5v0c0,0.5-0.1,1-0.2,1.5c-0.7,3.1-3.5,5.5-6.8,5.5
					c-3.3,0-6.1-2.3-6.8-5.5c-0.1-0.5-0.2-1-0.2-1.5v0c0-0.5,0.1-1,0.2-1.5c0.7-3.1,3.5-5.5,6.8-5.5
					C373.9-726.2,376.6-723.9,377.3-720.8z M374.5-719.3c0-0.5-0.1-1-0.3-1.5c-0.6-1.4-2-2.5-3.7-2.5c-1.7,0-3.1,1-3.7,2.5
					c-0.2,0.5-0.3,1-0.3,1.5v0c0,0.5,0.1,1,0.3,1.5c0.6,1.4,2,2.5,3.7,2.5c1.7,0,3.1-1,3.7-2.5C374.4-718.2,374.5-718.8,374.5-719.3
					L374.5-719.3z"/>
			</g>
			<g>
				<path fill="#93D4E5" d="M382.7-810.6c0,22.3-18.6,40.4-41,40.4c-21.1,0-38.5-17.1-40.3-37.1h-19.4c-1.8,20-18.7,37.1-39.8,37.1
					c-22.3,0-40-17.9-40-40.3c0-7.1,0-13.7,6-19.5v-37.4c0-0.1-0.6-0.2-0.6-0.3c0-40,40.7-72.5,91.3-72.5c2,0,4.3,1.6,4.3,3.6v62.2
					h71.5c2,0,4.5,3.6,4.5,5.6v40.8C382.2-822.7,382.7-816.9,382.7-810.6z M213.6-874.4h81.5v-58.6
					C251.2-931.5,216.6-906.4,213.6-874.4z M275.1-810.5c0-1.2-0.1-2.4-0.2-3.6c-1.8-16.7-16-29.7-33.1-29.7
					c-11.9,0-22.4,6.3-28.3,15.8c-1.5,2.4-2.7,5.1-3.6,7.9c-0.9,3-1.4,6.3-1.4,9.6c0,1.1,0.1,2.2,0.2,3.3c1.7,16.8,15.9,30,33.1,30
					c17.2,0,31.3-13,33.1-29.7C275-808.1,275.1-809.3,275.1-810.5L275.1-810.5z M301.4-816.4c1.8-20,18.8-35.8,39.9-35.8
					c11.5,0,22.8,6,28.8,13.7v-27h-72h-84v26c5-7.1,16.9-12.7,27.9-12.7c21.1,0,38.1,15.8,40,35.8H301.4z M375.1-810.5
					c0-1.8-0.2-3.5-0.4-5.2c-0.6-3.8-1.8-7.4-3.6-10.7c-5.7-10.4-16.7-17.4-29.3-17.4c-17.2,0-31.3,13-33.1,29.7
					c-0.1,1.2-0.2,2.4-0.2,3.6v0c0,1.2,0.1,2.4,0.2,3.6c1.8,16.7,16,29.7,33.1,29.7c17.2,0,31.3-13.1,33.1-29.8
					C375-808.1,375.1-809.3,375.1-810.5z"/>
				<path fill="#93D4E5" d="M358-814.1c0.3,1.2,0.4,2.4,0.4,3.6v0c0,1.2-0.2,2.4-0.4,3.6c-1.6,7.5-8.3,13.1-16.2,13.1
					c-7.9,0-14.6-5.6-16.2-13.1c-0.3-1.2-0.4-2.4-0.4-3.6v0c0-1.2,0.2-2.4,0.4-3.6c1.6-7.5,8.3-13.1,16.2-13.1
					C349.7-827.1,356.3-821.5,358-814.1z M351.2-810.5c0-1.3-0.3-2.5-0.7-3.6c-1.4-3.4-4.8-5.9-8.7-5.9c-3.9,0-7.3,2.4-8.7,5.9
					c-0.5,1.1-0.7,2.3-0.7,3.6v0c0,1.3,0.3,2.5,0.7,3.6c1.4,3.4,4.8,5.9,8.7,5.9c3.9,0,7.3-2.4,8.7-5.9
					C351-808,351.2-809.2,351.2-810.5L351.2-810.5z"/>
				<path fill="#93D4E5" d="M258-814.1c0.3,1.2,0.4,2.4,0.4,3.6v0c0,1.2-0.2,2.4-0.4,3.6c-1.6,7.5-8.3,13.1-16.2,13.1
					c-7.9,0-14.6-5.6-16.2-13.1c-0.3-1.2-0.4-2.4-0.4-3.6v0c0-1.2,0.2-2.4,0.4-3.6c1.6-7.5,8.3-13.1,16.2-13.1
					C249.7-827.1,256.3-821.5,258-814.1z M251.2-810.5c0-1.3-0.3-2.5-0.7-3.6c-1.4-3.4-4.8-5.9-8.7-5.9c-3.9,0-7.3,2.4-8.8,5.9
					c-0.5,1.1-0.7,2.3-0.7,3.6v0c0,1.3,0.3,2.5,0.7,3.6c1.4,3.4,4.8,5.9,8.8,5.9c3.9,0,7.3-2.4,8.7-5.9
					C251-808,251.2-809.2,251.2-810.5L251.2-810.5z"/>
			</g>
			<g>
				<path fill="#93D4E5" d="M500.3-662.2c0,7.7-6.5,13.8-14.2,13.8c-7.3,0-13.3-6-13.9-13h-6.7c-0.6,7-6.4,13-13.7,13
					c-7.7,0-13.8-6-13.8-13.7c0-2.4,0.1-4.7,2.1-6.7v-12.9c0,0-0.2-0.1-0.2-0.1c0-13.8,14.1-25,31.6-25c0.7,0,1.7,0.6,1.7,1.2v21.2
					h24.3c0.7,0,1.7,1.5,1.7,2.2v14.1C500.2-666.3,500.3-664.3,500.3-662.2z M441.9-684.4h28.3v-20
					C455.2-703.9,442.9-695.4,441.9-684.4z M463.1-662c0-0.4,0-0.8-0.1-1.2c-0.6-5.8-5.5-10.3-11.4-10.3c-4.1,0-7.7,2.2-9.8,5.5
					c-0.5,0.8-0.9,1.8-1.2,2.7c-0.3,1.1-0.5,2.2-0.5,3.3c0,0.4,0,0.8,0.1,1.2c0.6,5.8,5.5,10.4,11.4,10.4c5.9,0,10.8-4.5,11.4-10.3
					C463.1-661.2,463.1-661.6,463.1-662L463.1-662z M472.2-664.4c0.6-7,6.6-12.2,13.9-12.2c4,0,8.1,2.2,10.1,4.9v-9.7h-25.1h-28.9
					v9.3c2-2.5,5.8-4.5,9.6-4.5c7.3,0,13.1,5.2,13.8,12.2H472.2z M497.7-662c0-0.6-0.1-1.2-0.2-1.8c-0.2-1.3-0.6-2.6-1.2-3.7
					c-2-3.6-5.8-6-10.1-6c-5.9,0-10.8,4.5-11.4,10.3c0,0.4-0.1,0.8-0.1,1.2v0c0,0.4,0,0.8,0.1,1.2c0.6,5.8,5.5,10.3,11.4,10.3
					c5.9,0,10.8-4.5,11.4-10.3C497.6-661.2,497.7-661.6,497.7-662z"/>
				<path fill="#93D4E5" d="M491.8-663.3c0.1,0.4,0.1,0.8,0.1,1.2v0c0,0.4-0.1,0.8-0.1,1.2c-0.6,2.6-2.9,4.5-5.6,4.5
					c-2.7,0-5-1.9-5.6-4.5c-0.1-0.4-0.1-0.8-0.1-1.2v0c0-0.4,0.1-0.8,0.1-1.2c0.6-2.6,2.9-4.5,5.6-4.5
					C488.9-667.8,491.2-665.9,491.8-663.3z M489.4-662c0-0.4-0.1-0.9-0.2-1.2c-0.5-1.2-1.7-2-3-2c-1.4,0-2.5,0.8-3,2
					c-0.2,0.4-0.2,0.8-0.2,1.2v0c0,0.4,0.1,0.9,0.2,1.2c0.5,1.2,1.7,2,3,2c1.4,0,2.5-0.8,3-2C489.3-661.2,489.4-661.6,489.4-662
					L489.4-662z"/>
				<path fill="#93D4E5" d="M457.2-663.3c0.1,0.4,0.1,0.8,0.1,1.2v0c0,0.4-0.1,0.8-0.1,1.2c-0.6,2.6-2.9,4.5-5.6,4.5
					c-2.7,0-5-1.9-5.6-4.5c-0.1-0.4-0.1-0.8-0.1-1.2v0c0-0.4,0.1-0.8,0.1-1.2c0.6-2.6,2.9-4.5,5.6-4.5
					C454.4-667.8,456.7-665.9,457.2-663.3z M454.9-662c0-0.4-0.1-0.9-0.2-1.2c-0.5-1.2-1.7-2-3-2s-2.5,0.8-3,2
					c-0.2,0.4-0.2,0.8-0.2,1.2v0c0,0.4,0.1,0.9,0.2,1.2c0.5,1.2,1.7,2,3,2s2.5-0.8,3-2C454.8-661.2,454.9-661.6,454.9-662L454.9-662
					z"/>
			</g>
		</g>
		<g>
			<g>
				<path fill="#93D4E5" d="M872.8-784.7c0,17.6-14.1,32-31.7,32c-16.6,0-30.3-12.7-31.7-28.7h-15.2c-1.4,16-15.1,28.7-31.7,28.7
					c-17.6,0-31.9-14.6-31.9-32.2c0-5.6,0.9-10.8,3.9-15.3v-29.4c0-0.1,0-0.2,0-0.2c0-31.4,32.5-57,72.3-57c1.6,0,2.7,1.3,2.7,2.8
					v50.6h57.5c1.6,0,2.5,1.2,2.5,2.7v32.1C871.4-794.4,872.8-789.6,872.8-784.7z M740.4-833.4h63.1v-47.7
					C769.4-880,742.7-859.4,740.4-833.4z M788.7-784.8c0-1-0.1-1.9-0.2-2.8c-1.4-13.1-12.5-23.4-26-23.4c-9.4,0-17.6,5-22.2,12.4
					c-1.2,1.9-2.2,4-2.8,6.2c-0.7,2.4-1.1,4.9-1.1,7.6c0,0.9,0,1.8,0.1,2.6c1.3,13.2,12.5,23.6,26.1,23.6c13.5,0,24.6-10.3,26-23.4
					C788.6-782.9,788.7-783.9,788.7-784.8L788.7-784.8z M809.4-787.4c1.4-16,14.7-29.2,31.3-29.2c9.1,0,16.7,3.7,22.7,9.8v-20.6
					h-56.6h-67.4v19.8c6-5.6,14-9,22.7-9c16.6,0,30.7,13.2,32.1,29.2H809.4z M867.3-784.8c0-1.4-0.1-2.7-0.4-4.1
					c-0.5-3-1.4-5.8-2.8-8.4c-4.4-8.2-13.1-13.7-23-13.7c-13.5,0-24.6,10.3-26,23.4c-0.1,0.9-0.2,1.9-0.2,2.8v0c0,1,0.1,1.9,0.2,2.8
					c1.4,13.1,12.5,23.4,26,23.4c13.5,0,24.6-10.3,26-23.4C867.2-783,867.3-783.9,867.3-784.8z"/>
				<path fill="#93D4E5" d="M853.9-787.7c0.2,0.9,0.3,1.9,0.3,2.8v0c0,1-0.1,1.9-0.3,2.8c-1.3,5.9-6.5,10.3-12.8,10.3
					c-6.2,0-11.5-4.4-12.8-10.3c-0.2-0.9-0.3-1.9-0.3-2.8v0c0-1,0.1-1.9,0.3-2.8c1.3-5.9,6.5-10.3,12.8-10.3
					C847.4-797.9,852.6-793.5,853.9-787.7z M848.5-784.8c0-1-0.2-2-0.6-2.8c-1.1-2.7-3.8-4.6-6.9-4.6c-3.1,0-5.8,1.9-6.9,4.6
					c-0.4,0.9-0.6,1.8-0.6,2.8v0c0,1,0.2,2,0.6,2.8c1.1,2.7,3.8,4.6,6.9,4.6c3.1,0,5.8-1.9,6.9-4.6
					C848.3-782.9,848.5-783.8,848.5-784.8L848.5-784.8z"/>
				<path fill="#93D4E5" d="M775.2-787.7c0.2,0.9,0.3,1.9,0.3,2.8v0c0,1-0.1,1.9-0.3,2.8c-1.3,5.9-6.5,10.3-12.8,10.3
					c-6.2,0-11.5-4.4-12.8-10.3c-0.2-0.9-0.3-1.9-0.3-2.8v0c0-1,0.1-1.9,0.3-2.8c1.3-5.9,6.5-10.3,12.8-10.3
					C768.7-797.9,773.9-793.5,775.2-787.7z M769.9-784.8c0-1-0.2-2-0.6-2.8c-1.1-2.7-3.8-4.6-6.9-4.6c-3.1,0-5.8,1.9-6.9,4.6
					c-0.4,0.9-0.6,1.8-0.6,2.8v0c0,1,0.2,2,0.6,2.8c1.1,2.7,3.8,4.6,6.9,4.6c3.1,0,5.8-1.9,6.9-4.6
					C769.7-782.9,769.9-783.8,769.9-784.8L769.9-784.8z"/>
			</g>
			<g>
				<path fill="#93D4E5" d="M728.3-831.1c0,43.6-35.4,79-79.1,79c-41.2,0-75.2-32.3-78.7-72.3h-37.8c-3.6,40-37.3,72.3-78.6,72.3
					c-43.6,0-78.9-35.3-78.9-78.9c0-13.8,3.2-26.8,10.2-38.1v-73.1c0-0.2-0.4-0.4-0.4-0.6c0-78,80.3-141.5,179.2-141.5
					c3.9,0,7.2,3.1,7.2,7v124h142.1c3.9,0,6.9,4.6,6.9,8.5v79.7C725.4-854.9,728.3-843.4,728.3-831.1z M399-953.4h158.4v-116.8
					C472.4-1067.5,404.9-1018.4,399-953.4z M519.1-831c0-2.4-0.1-4.7-0.4-7c-3.5-32.6-31.2-58-64.7-58c-23.3,0-43.8,12.4-55.3,30.9
					c-3,4.8-5.4,9.9-7,15.4c-1.8,6-2.8,12.3-2.8,18.8c0,2.2,0.1,4.4,0.3,6.5c3.3,32.8,31.1,58.5,64.7,58.5
					c33.5,0,61.2-25.5,64.7-58.1C518.9-826.3,519.1-828.7,519.1-831L519.1-831z M570.5-839.4c3.6-40,37.5-71.4,78.7-71.4
					c22.5,0,42.2,10.1,57.2,25.3v-52.9H564.1H398.4v50.9c14-14,33.9-23.3,55.4-23.3c41.2,0,75.3,31.4,78.9,71.4H570.5z M714.3-831
					c0-3.5-0.3-6.8-0.9-10.1c-1.2-7.4-3.5-14.5-7-20.9c-11-20.3-32.5-34-57.2-34c-33.5,0-61.2,25.5-64.7,58c-0.2,2.3-0.4,4.6-0.4,7
					v0c0,2.4,0.1,4.7,0.4,7c3.5,32.6,31.2,58.1,64.7,58.1c33.5,0,61.2-25.5,64.7-58.1C714.2-826.4,714.3-828.7,714.3-831z"/>
				<path fill="#93D4E5" d="M681-838.1c0.5,2.3,0.8,4.6,0.8,7v0c0,2.4-0.3,4.7-0.8,7c-3.2,14.6-16.2,25.5-31.7,25.5
					c-15.5,0-28.5-10.9-31.7-25.5c-0.5-2.3-0.8-4.6-0.8-7v0c0-2.4,0.3-4.7,0.8-7c3.2-14.6,16.2-25.5,31.7-25.5
					C664.8-863.6,677.8-852.6,681-838.1z M667.8-831c0-2.5-0.5-4.8-1.4-7c-2.8-6.7-9.4-11.5-17.1-11.5c-7.7,0-14.3,4.8-17.1,11.5
					c-0.9,2.2-1.4,4.5-1.4,7v0c0,2.5,0.5,4.8,1.4,7c2.8,6.7,9.4,11.5,17.1,11.5c7.7,0,14.3-4.8,17.1-11.5
					C667.3-826.2,667.8-828.6,667.8-831L667.8-831z"/>
				<path fill="#93D4E5" d="M485.7-838.1c0.5,2.3,0.8,4.6,0.8,7v0c0,2.4-0.3,4.7-0.8,7c-3.2,14.6-16.2,25.5-31.7,25.5
					c-15.5,0-28.5-10.9-31.7-25.5c-0.5-2.3-0.8-4.6-0.8-7v0c0-2.4,0.3-4.7,0.8-7c3.2-14.6,16.2-25.5,31.7-25.5
					C469.5-863.6,482.5-852.6,485.7-838.1z M472.5-831c0-2.5-0.5-4.8-1.4-7c-2.8-6.7-9.4-11.5-17.1-11.5c-7.7,0-14.3,4.8-17.1,11.5
					c-0.9,2.2-1.4,4.5-1.4,7v0c0,2.5,0.5,4.8,1.4,7c2.8,6.7,9.4,11.5,17.1,11.5c7.7,0,14.3-4.8,17.1-11.5
					C472-826.2,472.5-828.6,472.5-831L472.5-831z"/>
			</g>
			<g>
				<path fill="#93D4E5" d="M804.8-907.5c0,9.3-7.9,16.8-17.2,16.8c-8.8,0-16.1-6.7-16.9-15.7h-8.1c-0.8,9-7.9,15.7-16.7,15.7
					c-9.3,0-16.8-7.3-16.8-16.6c0-3,0.3-5.7,2.3-8.1v-15.6c0,0-0.1-0.1-0.1-0.1c0-16.7,17.1-30.3,38.3-30.3c0.8,0,1.8,0.7,1.8,1.5
					v25.6h29.9c0.8,0,2.1,1.9,2.1,2.7v17C804.4-912.4,804.8-910.1,804.8-907.5z M734-934.4h34.4v-24.1
					C750.4-957.9,735.3-947.4,734-934.4z M759.7-907.3c0-0.5,0-1-0.1-1.5c-0.8-7-6.7-12.4-13.8-12.4c-5,0-9.4,2.7-11.8,6.6
					c-0.6,1-1.1,2.1-1.5,3.3c-0.4,1.3-0.6,2.6-0.6,4c0,0.5,0,0.9,0.1,1.4c0.7,7,6.6,12.5,13.9,12.5c7.2,0,13.1-5.5,13.8-12.4
					C759.7-906.3,759.7-906.8,759.7-907.3L759.7-907.3z M770.7-909.4c0.8-9,7.8-15.1,16.6-15.1c4.8,0,10,2.3,12,5.6v-11.4h-30.1
					h-34.9v11c2-3,7-5.1,11.6-5.1c8.8,0,15.9,6.1,16.6,15.1H770.7z M801.5-907.3c0-0.7-0.1-1.5-0.2-2.2c-0.3-1.6-0.8-3.1-1.5-4.5
					c-2.4-4.3-7-7.3-12.2-7.3c-7.2,0-13.1,5.4-13.8,12.4c-0.1,0.5-0.1,1-0.1,1.5v0c0,0.5,0,1,0.1,1.5c0.8,7,6.7,12.4,13.8,12.4
					c7.2,0,13.1-5.5,13.8-12.4C801.5-906.3,801.5-906.8,801.5-907.3z"/>
				<path fill="#93D4E5" d="M794.4-908.8c0.1,0.5,0.2,1,0.2,1.5v0c0,0.5-0.1,1-0.2,1.5c-0.7,3.1-3.5,5.5-6.8,5.5s-6.1-2.3-6.8-5.5
					c-0.1-0.5-0.2-1-0.2-1.5v0c0-0.5,0.1-1,0.2-1.5c0.7-3.1,3.5-5.5,6.8-5.5S793.7-911.9,794.4-908.8z M791.5-907.3
					c0-0.5-0.1-1-0.3-1.5c-0.6-1.4-2-2.5-3.7-2.5s-3.1,1-3.7,2.5c-0.2,0.5-0.3,1-0.3,1.5v0c0,0.5,0.1,1,0.3,1.5
					c0.6,1.4,2,2.5,3.7,2.5s3.1-1,3.7-2.5C791.4-906.3,791.5-906.8,791.5-907.3L791.5-907.3z"/>
				<path fill="#93D4E5" d="M752.6-908.8c0.1,0.5,0.2,1,0.2,1.5v0c0,0.5-0.1,1-0.2,1.5c-0.7,3.1-3.5,5.5-6.8,5.5
					c-3.3,0-6.1-2.3-6.8-5.5c-0.1-0.5-0.2-1-0.2-1.5v0c0-0.5,0.1-1,0.2-1.5c0.7-3.1,3.5-5.5,6.8-5.5
					C749.1-914.3,751.9-911.9,752.6-908.8z M749.7-907.3c0-0.5-0.1-1-0.3-1.5c-0.6-1.4-2-2.5-3.7-2.5s-3.1,1-3.7,2.5
					c-0.2,0.5-0.3,1-0.3,1.5v0c0,0.5,0.1,1,0.3,1.5c0.6,1.4,2,2.5,3.7,2.5s3.1-1,3.7-2.5C749.6-906.3,749.7-906.8,749.7-907.3
					L749.7-907.3z"/>
			</g>
			<g>
				<path fill="#93D4E5" d="M875.6-850.2c0,7.7-6.5,13.8-14.2,13.8c-7.3,0-13.3-6-13.9-13h-6.7c-0.6,7-6.4,13-13.7,13
					c-7.7,0-13.8-6-13.8-13.7c0-2.4,0.1-4.7,2.1-6.7v-12.9c0,0-0.2-0.1-0.2-0.1c0-13.8,14.1-25,31.6-25c0.7,0,1.7,0.6,1.7,1.2v21.2
					h24.3c0.7,0,1.7,1.5,1.7,2.2v14.1C875.4-854.3,875.6-852.4,875.6-850.2z M817.2-872.4h28.3v-20
					C830.4-891.9,818.2-883.4,817.2-872.4z M838.4-850.1c0-0.4,0-0.8-0.1-1.2c-0.6-5.8-5.5-10.3-11.4-10.3c-4.1,0-7.7,2.2-9.8,5.5
					c-0.5,0.8-0.9,1.8-1.2,2.7c-0.3,1.1-0.5,2.2-0.5,3.3c0,0.4,0,0.8,0.1,1.2c0.6,5.8,5.5,10.4,11.4,10.4c5.9,0,10.8-4.5,11.4-10.3
					C838.4-849.2,838.4-849.7,838.4-850.1L838.4-850.1z M847.5-852.4c0.6-7,6.6-12.2,13.9-12.2c4,0,8.1,2.2,10.1,4.9v-9.7h-25.1
					h-28.9v9.3c2-2.5,5.8-4.5,9.6-4.5c7.3,0,13.1,5.2,13.8,12.2H847.5z M872.9-850.1c0-0.6-0.1-1.2-0.2-1.8
					c-0.2-1.3-0.6-2.6-1.2-3.7c-2-3.6-5.8-6-10.1-6c-5.9,0-10.8,4.5-11.4,10.3c0,0.4-0.1,0.8-0.1,1.2v0c0,0.4,0,0.8,0.1,1.2
					c0.6,5.8,5.5,10.3,11.4,10.3c5.9,0,10.8-4.5,11.4-10.3C872.9-849.3,872.9-849.7,872.9-850.1z"/>
				<path fill="#93D4E5" d="M867-851.3c0.1,0.4,0.1,0.8,0.1,1.2v0c0,0.4-0.1,0.8-0.1,1.2c-0.6,2.6-2.9,4.5-5.6,4.5
					c-2.7,0-5-1.9-5.6-4.5c-0.1-0.4-0.1-0.8-0.1-1.2v0c0-0.4,0.1-0.8,0.1-1.2c0.6-2.6,2.9-4.5,5.6-4.5
					C864.2-855.8,866.4-853.9,867-851.3z M864.7-850.1c0-0.4-0.1-0.9-0.2-1.2c-0.5-1.2-1.7-2-3-2s-2.5,0.8-3,2
					c-0.2,0.4-0.2,0.8-0.2,1.2v0c0,0.4,0.1,0.9,0.2,1.2c0.5,1.2,1.7,2,3,2s2.5-0.8,3-2C864.6-849.2,864.7-849.6,864.7-850.1
					L864.7-850.1z"/>
				<path fill="#93D4E5" d="M832.5-851.3c0.1,0.4,0.1,0.8,0.1,1.2v0c0,0.4-0.1,0.8-0.1,1.2c-0.6,2.6-2.9,4.5-5.6,4.5
					c-2.7,0-5-1.9-5.6-4.5c-0.1-0.4-0.1-0.8-0.1-1.2v0c0-0.4,0.1-0.8,0.1-1.2c0.6-2.6,2.9-4.5,5.6-4.5
					C829.6-855.8,831.9-853.9,832.5-851.3z M830.1-850.1c0-0.4-0.1-0.9-0.2-1.2c-0.5-1.2-1.7-2-3-2c-1.4,0-2.5,0.8-3,2
					c-0.2,0.4-0.2,0.8-0.2,1.2v0c0,0.4,0.1,0.9,0.2,1.2c0.5,1.2,1.7,2,3,2c1.4,0,2.5-0.8,3-2C830.1-849.2,830.1-849.6,830.1-850.1
					L830.1-850.1z"/>
			</g>
		</g>
	</g>
</pattern>
<pattern  id="SVGID_1_" xlink:href="#New_Pattern" patternTransform="matrix(1 0 0 1 159.6501 642.0642)">
</pattern>
<rect x="0" fill="url(#SVGID_1_)" width="762.1" height="560"/>
</svg>
