<?xml version="1.0" encoding="utf-8"?>
<!-- Generator: Adobe Illustrator 18.1.1, SVG Export Plug-In . SVG Version: 6.00 Build 0)  -->
<svg version="1.1" id="Layer_1" xmlns="http://www.w3.org/2000/svg" xmlns:xlink="http://www.w3.org/1999/xlink" x="0px" y="0px"
	 width="762.1px" height="560px" viewBox="0 0 762.1 560" enable-background="new 0 0 762.1 560" xml:space="preserve">
<pattern  x="-881.1" width="457" height="646" patternUnits="userSpaceOnUse" id="New_Pattern_2" viewBox="66.5 -803.5 457 646" overflow="visible">
	<g>
		<polygon fill="none" points="66.5,-803.5 523.5,-803.5 523.5,-157.5 66.5,-157.5 		"/>
		<g>
			<path fill="#4FCDAD" d="M586.8-220.8c0-0.1,0.2-0.3,0.2-0.4V-254c0-3.5-3.1-6-6.5-6H546v-37h19.1c3.5,0,6.3-3,6.3-6.5
				s-2.8-6.5-6.3-6.5h-45.9c-1.1,0-2.2,0.4-3.1,0.9l-22.3,12.6c-3,1.7-4.1,5.6-2.4,8.6c1.2,2.1,3.3,3.2,5.5,3.2
				c1.1,0,2.1-0.2,3.1-0.7l20.9-11.7H533v37h-38.7c-3.5,0-6.3,2.5-6.3,6v31.9l-28.9,29c-1.2,1.2-2.1,2.8-2.1,4.4V-6
				c0,3.5,3.3,6,6.8,6h145.6c3.5,0,6.6-2.5,6.6-6v-182.6c0-1.7-0.7-3.2-1.9-4.4L586.8-220.8z M501-248h73v20h-73V-248z M603-12H470
				v-174l28.6-29h76.2l28.2,29V-12z"/>
			<path fill="#4FCDAD" d="M359.7-273.1c0-0.1,0.3-0.1,0.3-0.2v-15.5c0-1.7-1.7-3.2-3.4-3.2H340v-17h9.4c1.7,0,3-1.3,3-3
				c0-1.7-1.3-3-3-3h-21.7c-0.5,0-1,0-1.5,0.3l-10.6,5.9c-1.4,0.8-1.9,2.6-1.1,4.1c0.5,1,1.6,1.5,2.6,1.5c0.5,0,1,0,1.5-0.3l9.9-5.5
				h5.5v17h-18.1c-1.7,0-2.9,1.5-2.9,3.2v15.1L299.2-260c-0.6,0.6-1.2,1.3-1.2,2.1v86.3c0,1.7,1.8,2.6,3.5,2.6h68.8
				c1.7,0,2.7-0.9,2.7-2.6v-86.3c0-0.8-0.2-1.5-0.7-2.1L359.7-273.1z M319-286h35v10h-35V-286z M367-175h-63v-81.7l13.9-13.3h36
				l13.1,13.3V-175z"/>
			<polygon fill="#4FCDAD" points="341,-242 333,-242 333,-232 323,-232 323,-224 333,-224 333,-215 341,-215 341,-224 351,-224 
				351,-232 341,-232 			"/>
			<path fill="#4FCDAD" d="M433.2-264h-41.9c-1.7,0-3.3,1-3.3,2.7v9.1c0,0.1,0.1,0.3,0.2,0.4l9.6,65.5c0.2,1.5,1.5,2.3,3,2.3h0.2v11
				c0,1.7,1.3,3,3,3h18.4c1.7,0,2.7-1.4,2.7-3v-10.5c2,0,3-1.1,3.1-2.6l7.8-65.8c0-0.1,0-0.2,0-0.4v-9.1
				C436-263,434.8-264,433.2-264z M419-176h-12v-7h12V-176z M430-252.5l-7.3,62.5h-19.3l-9.4-62.5v-5.5h36V-252.5z"/>
		</g>
		<g>
			<path fill="#4FCDAD" d="M129.8-220.8c0-0.1,0.2-0.3,0.2-0.4V-254c0-3.5-3.1-6-6.5-6H89v-37h19.1c3.5,0,6.3-3,6.3-6.5
				s-2.8-6.5-6.3-6.5H62.2c-1.1,0-2.2,0.4-3.1,0.9l-22.3,12.6c-3,1.7-4.1,5.6-2.4,8.6c1.2,2.1,3.3,3.2,5.5,3.2
				c1.1,0,2.1-0.2,3.1-0.7L63.9-297H76v37H37.3c-3.5,0-6.3,2.5-6.3,6v31.9L2.1-193c-1.2,1.2-2.1,2.8-2.1,4.4V-6c0,3.5,3.3,6,6.8,6
				h145.6c3.5,0,6.6-2.5,6.6-6v-182.6c0-1.7-0.7-3.2-1.9-4.4L129.8-220.8z M44-248h73v20H44V-248z M146-12H13v-174l28.6-29h76.2
				l28.2,29V-12z"/>
			<path fill="#4FCDAD" d="M285.3-202h-88.6c-3.5,0-6.7,2.6-6.7,6.1v19.2c0,0.3,0.2,0.6,0.3,0.9l20.3,139.2c0.5,3.1,3.2,5.6,6.4,5.6
				h0.1v21.9c0,3.5,3.1,6.1,6.6,6.1h38.8c3.5,0,6.6-2.6,6.6-6.1v-22.2c3,0,5.8-2.4,6.2-5.6L291.9-176c0-0.3,0.1-0.5,0.1-0.8v-19.2
				C292-199.4,288.8-202,285.3-202z M256-15h-26v-16h26V-15z M279-177.1L263.1-44h-40.8L203-177.2V-190h76V-177.1z"/>
			<path fill="#4FCDAD" d="M192.4-214h47.2c1.1,0,1.4-0.6,1.4-1.8V-275c0-0.5,0.1-1.1-0.3-1.4l-8.3-9c0,0,0.6-0.1,0.6-0.1v-10.6
				c0-1.1-1.7-1.8-2.8-1.8H219v-12h6.2c1.1,0,2.1-0.9,2.1-2c0-1.1-0.9-2-2.1-2h-14.9c-0.4,0-0.7,0-1,0.1l-7.2,4
				c-1,0.6-1.3,1.8-0.8,2.8c0.4,0.7,1.1,1,1.8,1c0.3,0,0.7,0,1-0.2l6.8-3.7h4.1v12h-12.7c-1.1,0-2.3,0.7-2.3,1.8v10.4l-9.3,9.4
				c-0.4,0.4-0.7,0.9-0.7,1.4v59.2C190-214.6,191.3-214,192.4-214z M204-294h24v7h-24V-294z M194-274.1l9.7-8.9h24.7l8.6,8.9v56.1
				h-43V-274.1z"/>
			<polygon fill="#4FCDAD" points="219,-264 214,-264 214,-257 207,-257 207,-252 214,-252 214,-246 219,-246 219,-252 226,-252 
				226,-257 219,-257 			"/>
			<path fill="#4FCDAD" d="M260.5-224h0.5v7.2c0,1.1,0.5,1.8,1.7,1.8h12.6c1.1,0,1.7-0.6,1.7-1.8v-7.2c1,0,2.1-0.8,2.2-1.8l5.6-45.1
				c0-0.1,0.2-0.2,0.2-0.2v-6.2c0-1.1-1.2-1.7-2.3-1.7H254c-1.1,0-2,0.5-2,1.7v6.2c0,0.1,0,0.2,0,0.3l6.5,45.1
				C258.6-224.7,259.5-224,260.5-224z M273-219h-8v-5h8V-219z M256-275h25v3.8l-5.5,43.2h-13.2l-6.3-43.3V-275z"/>
		</g>
		<g>
			<path fill="#4FCDAD" d="M358.3-543.8c0-0.1,0.2-0.3,0.2-0.4V-577c0-3.5-3.1-6-6.5-6h-34.5v-37h19.1c3.5,0,6.3-3,6.3-6.5
				s-2.8-6.5-6.3-6.5h-45.9c-1.1,0-2.2,0.4-3.1,0.9l-22.3,12.6c-3,1.7-4.1,5.6-2.4,8.6c1.2,2.1,3.3,3.2,5.5,3.2
				c1.1,0,2.1-0.2,3.1-0.7l20.9-11.7h12.1v37h-38.7c-3.5,0-6.3,2.5-6.3,6v31.9l-28.9,29c-1.2,1.2-2.1,2.8-2.1,4.4V-329
				c0,3.5,3.3,6,6.8,6h145.6c3.5,0,6.6-2.5,6.6-6v-182.6c0-1.7-0.7-3.2-1.9-4.4L358.3-543.8z M272.5-571h73v20h-73V-571z M374.5-335
				h-133v-174l28.6-29h76.2l28.2,29V-335z"/>
			<polygon fill="#4FCDAD" points="318.5,-478 301.5,-478 301.5,-458 280.5,-458 280.5,-440 301.5,-440 301.5,-420 318.5,-420 
				318.5,-440 339.5,-440 339.5,-458 318.5,-458 			"/>
			<path fill="#4FCDAD" d="M513.8-525h-88.6c-3.5,0-6.7,2.6-6.7,6.1v19.2c0,0.3,0.2,0.6,0.3,0.9L439-359.6c0.5,3.1,3.2,5.6,6.4,5.6
				h0.1v21.9c0,3.5,3.1,6.1,6.6,6.1h38.8c3.5,0,6.6-2.6,6.6-6.1v-22.2c3,0,5.8-2.4,6.2-5.6L520.4-499c0-0.3,0.1-0.5,0.1-0.8v-19.2
				C520.5-522.4,517.3-525,513.8-525z M484.5-338h-26v-16h26V-338z M507.5-500.1L491.6-367h-40.8l-19.4-133.2V-513h76V-500.1z"/>
			<path fill="#4FCDAD" d="M131.2-434.1c0-0.1,0.3-0.1,0.3-0.2v-15.5c0-1.7-1.7-3.2-3.4-3.2h-16.6v-17h9.4c1.7,0,3-1.3,3-3
				c0-1.7-1.3-3-3-3H99.2c-0.5,0-1,0-1.5,0.3l-10.6,5.9c-1.4,0.8-1.9,2.6-1.1,4.1c0.5,1,1.6,1.5,2.6,1.5c0.5,0,1,0,1.5-0.3l9.9-5.5
				h5.5v17H87.4c-1.7,0-2.9,1.5-2.9,3.2v15.1L70.7-421c-0.6,0.6-1.2,1.3-1.2,2.1v86.3c0,1.7,1.8,2.6,3.5,2.6h68.8
				c1.7,0,2.7-0.9,2.7-2.6v-86.3c0-0.8-0.2-1.5-0.7-2.1L131.2-434.1z M90.5-447h35v10h-35V-447z M138.5-336h-63v-81.7L89.4-431h36
				l13.1,13.3V-336z"/>
			<polygon fill="#4FCDAD" points="112.5,-403 104.5,-403 104.5,-393 94.5,-393 94.5,-385 104.5,-385 104.5,-376 112.5,-376 
				112.5,-385 122.5,-385 122.5,-393 112.5,-393 			"/>
			<path fill="#4FCDAD" d="M204.7-425h-41.9c-1.7,0-3.3,1-3.3,2.7v9.1c0,0.1,0.1,0.3,0.2,0.4l9.6,65.5c0.2,1.5,1.5,2.3,3,2.3h0.2v11
				c0,1.7,1.3,3,3,3h18.4c1.7,0,2.7-1.4,2.7-3v-10.5c2,0,3-1.1,3.1-2.6l7.8-65.8c0-0.1,0-0.2,0-0.4v-9.1
				C207.5-424,206.3-425,204.7-425z M190.5-337h-12v-7h12V-337z M201.5-413.5l-7.3,62.5h-19.3l-9.4-62.5v-5.5h36V-413.5z"/>
			<path fill="#4FCDAD" d="M131.2-596.1c0-0.1,0.3-0.1,0.3-0.2v-15.5c0-1.7-1.7-3.2-3.4-3.2h-16.6v-17h9.4c1.7,0,3-1.3,3-3
				c0-1.7-1.3-3-3-3H99.2c-0.5,0-1,0-1.5,0.3l-10.6,5.9c-1.4,0.8-1.9,2.6-1.1,4.1c0.5,1,1.6,1.5,2.6,1.5c0.5,0,1,0,1.5-0.3l9.9-5.5
				h5.5v17H87.4c-1.7,0-2.9,1.5-2.9,3.2v15.1L70.7-583c-0.6,0.6-1.2,1.3-1.2,2.1v86.3c0,1.7,1.8,2.6,3.5,2.6h68.8
				c1.7,0,2.7-0.9,2.7-2.6v-86.3c0-0.8-0.2-1.5-0.7-2.1L131.2-596.1z M90.5-609h35v10h-35V-609z M138.5-498h-63v-81.7L89.4-593h36
				l13.1,13.3V-498z"/>
			<polygon fill="#4FCDAD" points="112.5,-565 104.5,-565 104.5,-555 94.5,-555 94.5,-547 104.5,-547 104.5,-538 112.5,-538 
				112.5,-547 122.5,-547 122.5,-555 112.5,-555 			"/>
			<path fill="#4FCDAD" d="M204.7-587h-41.9c-1.7,0-3.3,1-3.3,2.7v9.1c0,0.1,0.1,0.3,0.2,0.4l9.6,65.5c0.2,1.5,1.5,2.3,3,2.3h0.2v11
				c0,1.7,1.3,3,3,3h18.4c1.7,0,2.7-1.4,2.7-3v-10.5c2,0,3-1.1,3.1-2.6l7.8-65.8c0-0.1,0-0.2,0-0.4v-9.1
				C207.5-586,206.3-587,204.7-587z M190.5-499h-12v-7h12V-499z M201.5-575.5l-7.3,62.5h-19.3l-9.4-62.5v-5.5h36V-575.5z"/>
			<path fill="#4FCDAD" d="M420.9-537h47.2c1.1,0,1.4-0.6,1.4-1.8V-598c0-0.5,0.1-1.1-0.3-1.4l-8.3-9c0,0,0.6-0.1,0.6-0.1v-10.6
				c0-1.1-1.7-1.8-2.8-1.8h-11.2v-12h6.2c1.1,0,2.1-0.9,2.1-2c0-1.1-0.9-2-2.1-2h-14.9c-0.4,0-0.7,0-1,0.1l-7.2,4
				c-1,0.6-1.3,1.8-0.8,2.8c0.4,0.7,1.1,1,1.8,1c0.3,0,0.7,0,1-0.2l6.8-3.7h4.1v12h-12.7c-1.1,0-2.3,0.7-2.3,1.8v10.4l-9.3,9.4
				c-0.4,0.4-0.7,0.9-0.7,1.4v59.2C418.5-537.6,419.8-537,420.9-537z M432.5-617h24v7h-24V-617z M422.5-597.1l9.7-8.9h24.7l8.6,8.9
				v56.1h-43V-597.1z"/>
			<polygon fill="#4FCDAD" points="447.5,-587 442.5,-587 442.5,-580 435.5,-580 435.5,-575 442.5,-575 442.5,-569 447.5,-569 
				447.5,-575 454.5,-575 454.5,-580 447.5,-580 			"/>
			<path fill="#4FCDAD" d="M489-547h0.5v7.2c0,1.1,0.5,1.8,1.7,1.8h12.6c1.1,0,1.7-0.6,1.7-1.8v-7.2c1,0,2.1-0.8,2.2-1.8l5.6-45.1
				c0-0.1,0.2-0.2,0.2-0.2v-6.2c0-1.1-1.2-1.7-2.3-1.7h-28.7c-1.1,0-2,0.5-2,1.7v6.2c0,0.1,0,0.2,0,0.3l6.5,45.1
				C487.1-547.7,488-547,489-547z M501.5-542h-8v-5h8V-542z M484.5-598h25v3.8L504-551h-13.2l-6.3-43.3V-598z"/>
		</g>
		<g>
			<path fill="#4FCDAD" d="M586.8-866.8c0-0.1,0.2-0.3,0.2-0.4V-900c0-3.5-3.1-6-6.5-6H546v-37h19.1c3.5,0,6.3-3,6.3-6.5
				s-2.8-6.5-6.3-6.5h-45.9c-1.1,0-2.2,0.4-3.1,0.9l-22.3,12.6c-3,1.7-4.1,5.6-2.4,8.6c1.2,2.1,3.3,3.2,5.5,3.2
				c1.1,0,2.1-0.2,3.1-0.7l20.9-11.7H533v37h-38.7c-3.5,0-6.3,2.5-6.3,6v31.9l-28.9,29c-1.2,1.2-2.1,2.8-2.1,4.4V-652
				c0,3.5,3.3,6,6.8,6h145.6c3.5,0,6.6-2.5,6.6-6v-182.6c0-1.7-0.7-3.2-1.9-4.4L586.8-866.8z M501-894h73v20h-73V-894z M603-658H470
				v-174l28.6-29h76.2l28.2,29V-658z"/>
			<polygon fill="#4FCDAD" points="547,-801 530,-801 530,-781 509,-781 509,-763 530,-763 530,-743 547,-743 547,-763 568,-763 
				568,-781 547,-781 			"/>
			<path fill="#4FCDAD" d="M359.7-757.1c0-0.1,0.3-0.1,0.3-0.2v-15.5c0-1.7-1.7-3.2-3.4-3.2H340v-17h9.4c1.7,0,3-1.3,3-3
				c0-1.7-1.3-3-3-3h-21.7c-0.5,0-1,0-1.5,0.3l-10.6,5.9c-1.4,0.8-1.9,2.6-1.1,4.1c0.5,1,1.6,1.5,2.6,1.5c0.5,0,1,0,1.5-0.3l9.9-5.5
				h5.5v17h-18.1c-1.7,0-2.9,1.5-2.9,3.2v15.1L299.2-744c-0.6,0.6-1.2,1.3-1.2,2.1v86.3c0,1.7,1.8,2.6,3.5,2.6h68.8
				c1.7,0,2.7-0.9,2.7-2.6v-86.3c0-0.8-0.2-1.5-0.7-2.1L359.7-757.1z M319-770h35v10h-35V-770z M367-659h-63v-81.7l13.9-13.3h36
				l13.1,13.3V-659z"/>
			<polygon fill="#4FCDAD" points="341,-726 333,-726 333,-716 323,-716 323,-708 333,-708 333,-699 341,-699 341,-708 351,-708 
				351,-716 341,-716 			"/>
			<path fill="#4FCDAD" d="M433.2-748h-41.9c-1.7,0-3.3,1-3.3,2.7v9.1c0,0.1,0.1,0.3,0.2,0.4l9.6,65.5c0.2,1.5,1.5,2.3,3,2.3h0.2v11
				c0,1.7,1.3,3,3,3h18.4c1.7,0,2.7-1.4,2.7-3v-10.5c2,0,3-1.1,3.1-2.6l7.8-65.8c0-0.1,0-0.2,0-0.4v-9.1
				C436-747,434.8-748,433.2-748z M419-660h-12v-7h12V-660z M430-736.5l-7.3,62.5h-19.3l-9.4-62.5v-5.5h36V-736.5z"/>
		</g>
		<g>
			<path fill="#4FCDAD" d="M129.8-866.8c0-0.1,0.2-0.3,0.2-0.4V-900c0-3.5-3.1-6-6.5-6H89v-37h19.1c3.5,0,6.3-3,6.3-6.5
				s-2.8-6.5-6.3-6.5H62.2c-1.1,0-2.2,0.4-3.1,0.9l-22.3,12.6c-3,1.7-4.1,5.6-2.4,8.6c1.2,2.1,3.3,3.2,5.5,3.2
				c1.1,0,2.1-0.2,3.1-0.7L63.9-943H76v37H37.3c-3.5,0-6.3,2.5-6.3,6v31.9L2.1-839c-1.2,1.2-2.1,2.8-2.1,4.4V-652c0,3.5,3.3,6,6.8,6
				h145.6c3.5,0,6.6-2.5,6.6-6v-182.6c0-1.7-0.7-3.2-1.9-4.4L129.8-866.8z M44-894h73v20H44V-894z M146-658H13v-174l28.6-29h76.2
				l28.2,29V-658z"/>
			<polygon fill="#4FCDAD" points="90,-801 73,-801 73,-781 52,-781 52,-763 73,-763 73,-743 90,-743 90,-763 111,-763 111,-781 
				90,-781 			"/>
			<path fill="#4FCDAD" d="M285.3-848h-88.6c-3.5,0-6.7,2.6-6.7,6.1v19.2c0,0.3,0.2,0.6,0.3,0.9l20.3,139.2c0.5,3.1,3.2,5.6,6.4,5.6
				h0.1v21.9c0,3.5,3.1,6.1,6.6,6.1h38.8c3.5,0,6.6-2.6,6.6-6.1v-22.2c3,0,5.8-2.4,6.2-5.6L291.9-822c0-0.3,0.1-0.5,0.1-0.8v-19.2
				C292-845.4,288.8-848,285.3-848z M256-661h-26v-16h26V-661z M279-823.1L263.1-690h-40.8L203-823.2V-836h76V-823.1z"/>
		</g>
	</g>
</pattern>
<pattern  id="SVGID_1_" xlink:href="#New_Pattern_2" patternTransform="matrix(1 0 0 1 191.2524 642.0642)">
</pattern>
<rect x="0" fill="url(#SVGID_1_)" width="762.1" height="560"/>
</svg>
