<?xml version="1.0" encoding="utf-8"?>
<!-- Generator: Adobe Illustrator 18.1.1, SVG Export Plug-In . SVG Version: 6.00 Build 0)  -->
<svg version="1.1" id="Layer_1" xmlns="http://www.w3.org/2000/svg" xmlns:xlink="http://www.w3.org/1999/xlink" x="0px" y="0px"
	 width="762.1px" height="560px" viewBox="0 0 762.1 560" enable-background="new 0 0 762.1 560" xml:space="preserve">
<pattern  x="-1663.2" width="1531.2" height="1429.9" patternUnits="userSpaceOnUse" id="New_Pattern_4" viewBox="185.7 -1590 1531.2 1429.9" overflow="visible">
	<g>
		<polygon fill="none" points="185.7,-1590 1716.8,-1590 1716.8,-160.2 185.7,-160.2 		"/>
		<g>
			<path fill="#F69B7C" d="M1829.2-366.7v186.6c0,3.7-2.5,6.5-6.2,6.5h-284.4c-3.7,0-7.4-2.8-7.4-6.5v-186.6c0-3.7,3.7-6.9,7.4-6.9
				h56.5c-0.1-1-0.3-1-0.3-1.6c0-49.4,37-86.5,86.1-86.5c46.6,0,86.1,39.6,86.1,86.5c0,0.6-0.2,0.5-0.3,1.5h56.5
				C1826.6-373.7,1829.2-370.4,1829.2-366.7z M1607.7-373.7h15.5c0,0-0.1-0.1-0.1-0.2c0-34.2,23.7-57.9,57.6-57.9
				c31.7,0,57.6,26,57.6,58c0,0.1-0.1,0.2-0.1,0.2h15.5c-0.1-1-0.3-1-0.3-1.6c0-39.7-33.3-73.1-72.7-73.1
				c-41.4,0-72.7,31.4-72.7,73.1C1608-374.6,1607.9-374.7,1607.7-373.7z M1724.9-373.9c0-24.6-19.8-44.5-44.2-44.5
				c-22,0-44.2,13.7-44.2,44.6c0,0.1-0.1,0.2-0.1,0.2h88.5C1724.9-373.7,1724.9-373.8,1724.9-373.9z M1816.2-306.2l-134.4,61.3
				c-0.9,0.4-1.8,0.6-2.8,0.6c-1,0-1.9-0.2-2.8-0.6l-131-61.2v119.4h271V-306.2z M1816.2-360.7h-271v39.8l133.8,62.5l137.2-62.6
				V-360.7z"/>
			<path fill="#F69B7C" d="M1760.6-618.5l55,55c1.1,1.1,1.2,2.6,0.1,3.7l-83.8,83.8c-1.1,1.1-2.9,1.3-4,0.2l-55-55
				c-1.1-1.1-0.8-2.8,0.3-3.9l16.6-16.6c-0.7-0.7-0.5-0.3-0.7-0.5c-14.5-14.5-14.7-36.5-0.2-50.9c13.7-13.7,37.1-13.6,50.9,0.2
				c0.2,0.2-0.2-0.1,0.5,0.7l16.6-16.6C1758.1-619.6,1759.5-619.6,1760.6-618.5z M1693.6-555.1l4.6-4.6c0,0-0.1-0.1-0.2-0.1
				c-10.1-10.1-10.2-24.1-0.2-34.1c9.4-9.4,24.7-9.3,34.1,0.2c0,0,0.2,0.2,0.2,0.2l4.6-4.6c-0.7-0.7-0.5-0.3-0.7-0.5
				c-11.7-11.7-31.4-11.8-43-0.2c-12.2,12.2-12.1,30.7,0.2,43C1693.3-555.6,1692.9-555.9,1693.6-555.1z M1728-589.8
				c-7.2-7.2-19.1-7.4-26.2-0.2c-6.5,6.5-8.9,17.1,0.2,26.2c0,0,0.2,0.2,0.2,0.2l26.1-26.1C1728.1-589.7,1728-589.8,1728-589.8z
				 M1774.9-597.1l-21.6,57.8c-0.1,0.4-0.4,0.8-0.7,1.1c-0.3,0.3-0.6,0.5-1,0.6l-56.5,20.5l35.5,35.5l79.9-79.9L1774.9-597.1z
				 M1758.8-613.2l-79.9,79.9l11.8,11.8l57.9-21l22-58.9L1758.8-613.2z"/>
			<path fill="#F69B7C" d="M1760.6-852.5l55,55c1.1,1.1,1.2,2.6,0.1,3.7l-83.8,83.8c-1.1,1.1-2.9,1.3-4,0.2l-55-55
				c-1.1-1.1-0.8-2.8,0.3-3.9l16.6-16.6c-0.7-0.7-0.5-0.3-0.7-0.5c-14.5-14.5-14.7-36.5-0.2-50.9c13.7-13.7,37.1-13.6,50.9,0.2
				c0.2,0.2-0.2-0.1,0.5,0.7l16.6-16.6C1758.1-853.6,1759.5-853.6,1760.6-852.5z M1693.6-789.1l4.6-4.6c0,0-0.1-0.1-0.2-0.1
				c-10.1-10.1-10.2-24.1-0.2-34.1c9.4-9.4,24.7-9.3,34.1,0.2c0,0,0.2,0.2,0.2,0.2l4.6-4.6c-0.7-0.7-0.5-0.3-0.7-0.5
				c-11.7-11.7-31.4-11.8-43-0.2c-12.2,12.2-12.1,30.7,0.2,43C1693.3-789.6,1692.9-789.9,1693.6-789.1z M1728-823.8
				c-7.2-7.2-19.1-7.4-26.2-0.2c-6.5,6.5-8.9,17.1,0.2,26.2c0,0,0.2,0.2,0.2,0.2l26.1-26.1C1728.1-823.7,1728-823.8,1728-823.8z
				 M1774.9-831.1l-21.6,57.8c-0.1,0.4-0.4,0.8-0.7,1.1c-0.3,0.3-0.6,0.5-1,0.6l-56.5,20.5l35.5,35.5l79.9-79.9L1774.9-831.1z
				 M1758.8-847.2l-79.9,79.9l11.8,11.8l57.9-21l22-58.9L1758.8-847.2z"/>
			<path fill="#F69B7C" d="M1577.2-463.7v77.8c0,1.5-1.3,2.3-2.8,2.3h-118.5c-1.5,0-2.6-0.8-2.6-2.3v-77.8c0-1.5,1.1-2.9,2.6-2.9
				h23.5c-0.1-1-0.1-0.4-0.1-0.6c0-20.6,15.4-36,35.9-36c19.4,0,35.9,16.5,35.9,36.1c0,0.2-0.1-0.4-0.1,0.6h23.5
				C1575.9-466.7,1577.2-465.3,1577.2-463.7z M1484.6-466.7h6.5c0,0,0,0,0-0.1c0-14.2,9.9-24.1,24-24.1c13.2,0,24,10.8,24,24.1
				c0,0,0,0.1,0,0.1h6.5c-0.1-1-0.1-0.4-0.1-0.6c0-16.5-13.9-30.5-30.3-30.5c-17.3,0-30.3,13.1-30.3,30.5
				C1484.8-467,1484.7-467.7,1484.6-466.7z M1533.5-466.7c0-10.3-8.3-18.5-18.4-18.5c-9.2,0-18.4,5.7-18.4,18.6c0,0,0,0.1,0,0.1
				L1533.5-466.7C1533.5-466.7,1533.5-466.7,1533.5-466.7z M1572.2-438.5l-56.3,25.6c-0.4,0.2-1,0.3-1.4,0.3c-0.4,0-0.7-0.1-1-0.3
				l-54.3-25.5v49.8h113V-438.5z M1572.2-461.7h-113v17l55.8,26.1l57.2-26.1V-461.7z"/>
			<path fill="#F69B7C" d="M1428.9-341.5h77.8c1.5,0,2.3,1.3,2.3,2.8v118.5c0,1.5-0.8,2.6-2.3,2.6h-77.8c-1.5,0-2.9-1.1-2.9-2.6
				v-23.5c-1,0.1-0.4,0.1-0.6,0.1c-20.6,0-36-15.4-36-35.9c0-19.4,16.5-35.9,36.1-35.9c0.2,0-0.4,0.1,0.6,0.1v-23.5
				C1426-340.2,1427.4-341.5,1428.9-341.5z M1426-249v-6.5c0,0,0,0-0.1,0c-14.2,0-24.1-9.9-24.1-24c0-13.2,10.8-24,24.1-24
				c0,0,0.1,0,0.1,0v-6.5c-1,0.1-0.4,0.1-0.6,0.1c-16.5,0-30.5,13.9-30.5,30.3c0,17.3,13.1,30.3,30.5,30.3
				C1425.6-249.1,1425-249,1426-249z M1425.9-297.8c-10.3,0-18.5,8.3-18.5,18.4c0,9.2,5.7,18.4,18.6,18.4c0,0,0.1,0,0.1,0
				L1425.9-297.8C1426-297.8,1426-297.8,1425.9-297.8z M1454.2-336.5l25.6,56.3c0.2,0.4,0.3,1,0.3,1.4c0,0.4-0.1,0.7-0.3,1
				l-25.5,54.3h49.8v-113H1454.2z M1431-336.5v113h17l26.1-55.8l-26.1-57.2H1431z"/>
			<path fill="#F69B7C" d="M1295.1-439.2v-77.8c0-1.5,1.3-2.3,2.8-2.3h118.5c1.5,0,2.6,0.8,2.6,2.3v77.8c0,1.5-1.1,2.9-2.6,2.9
				h-23.5c0.1,1,0.1,0.4,0.1,0.6c0,20.6-15.4,36-35.9,36c-19.4,0-35.9-16.5-35.9-36.1c0-0.2,0.1,0.4,0.1-0.6h-23.5
				C1296.3-436.2,1295.1-437.6,1295.1-439.2z M1387.6-436.2h-6.5c0,0,0,0,0,0.1c0,14.2-9.9,24.1-24,24.1c-13.2,0-24-10.8-24-24.1
				c0,0,0-0.1,0-0.1h-6.5c0.1,1,0.1,0.4,0.1,0.6c0,16.5,13.9,30.5,30.3,30.5c17.3,0,30.3-13.1,30.3-30.5
				C1387.4-435.9,1387.5-435.2,1387.6-436.2z M1338.7-436.2c0,10.3,8.3,18.5,18.4,18.5c9.2,0,18.4-5.7,18.4-18.6c0,0,0-0.1,0-0.1
				L1338.7-436.2C1338.7-436.2,1338.7-436.2,1338.7-436.2z M1300.1-464.4l56.3-25.6c0.4-0.2,1-0.3,1.4-0.3c0.4,0,0.7,0.1,1,0.3
				l54.3,25.5v-49.8h-113V-464.4z M1300.1-441.2h113v-17l-55.8-26.1l-57.2,26.1V-441.2z"/>
			<path fill="#F69B7C" d="M1462.4-503l-132-132c-2.6-2.6-2.6-6.9,0-9.5l201.1-201.1c2.6-2.6,7-2.7,9.6-0.1l132,132
				c2.6,2.6,2.5,7-0.1,9.6l-39.9,39.9c0.8,0.6,1,0.5,1.4,0.9c34.9,34.9,35.1,87.4,0.4,122.1c-33,33-88.9,32.8-122.1-0.4
				c-0.4-0.4-0.3-0.6-0.9-1.4l-39.9,39.9C1469.3-500.4,1465-500.4,1462.4-503z M1624.1-655.2l-11,11c0,0,0.2,0.1,0.3,0.2
				c24.2,24.2,24.3,57.8,0.3,81.7c-22.4,22.4-59.1,22.3-81.7-0.3c-0.1-0.1-0.2-0.3-0.2-0.3l-11,11c0.8,0.6,1,0.5,1.4,0.9
				c28,28,75.3,28.2,103.1,0.4c29.3-29.3,29.1-73.6-0.4-103.1C1624.6-654.2,1624.7-654.4,1624.1-655.2z M1541.4-572.1
				c17.4,17.4,45.6,17.5,62.8,0.3c15.5-15.5,21.5-41-0.3-62.8c-0.1-0.1-0.2-0.3-0.2-0.3l-62.5,62.5
				C1541.2-572.3,1541.4-572.2,1541.4-572.1z M1428.8-555l51.8-138.5c0.3-0.9,1-1.8,1.6-2.5c0.7-0.7,1.4-1.1,2.4-1.5l135.7-49.2
				l-84.6-84.6l-191.6,191.6L1428.8-555z M1467.2-516.7l191.6-191.6l-28-28l-138.9,50.4l-52.7,141.2L1467.2-516.7z"/>
		</g>
		<g>
			<path fill="#F69B7C" d="M995-261l55,55c1.1,1.1,1.2,2.6,0.1,3.7l-83.8,83.8c-1.1,1.1-2.9,1.3-4,0.2l-55-55
				c-1.1-1.1-0.8-2.8,0.3-3.9l16.6-16.6c-0.7-0.7-0.5-0.3-0.7-0.5c-14.5-14.5-14.7-36.5-0.2-50.9c13.7-13.7,37.1-13.6,50.9,0.2
				c0.2,0.2-0.2-0.1,0.5,0.7l16.6-16.6C992.5-262.2,993.9-262.1,995-261z M928-197.7l4.6-4.6c0,0-0.1-0.1-0.2-0.1
				c-10.1-10.1-10.2-24.1-0.2-34.1c9.4-9.4,24.7-9.3,34.1,0.2c0,0,0.2,0.2,0.2,0.2l4.6-4.6c-0.7-0.7-0.5-0.3-0.7-0.5
				c-11.7-11.7-31.4-11.8-43-0.2c-12.2,12.2-12.1,30.7,0.2,43C927.7-198.2,927.4-198.4,928-197.7z M962.4-232.3
				c-7.2-7.2-19.1-7.4-26.2-0.2c-6.5,6.5-8.9,17.1,0.2,26.2c0,0,0.2,0.2,0.2,0.2l26.1-26.1C962.6-232.2,962.4-232.3,962.4-232.3z
				 M1009.3-239.7l-21.6,57.8c-0.1,0.4-0.4,0.8-0.7,1.1c-0.3,0.3-0.6,0.5-1,0.6l-56.5,20.5l35.5,35.5l79.9-79.9L1009.3-239.7z
				 M993.2-255.8l-79.9,79.9l11.8,11.8l57.9-21l22-58.9L993.2-255.8z"/>
			<path fill="#F69B7C" d="M995-495l55,55c1.1,1.1,1.2,2.6,0.1,3.7l-83.8,83.8c-1.1,1.1-2.9,1.3-4,0.2l-55-55
				c-1.1-1.1-0.8-2.8,0.3-3.9l16.6-16.6c-0.7-0.7-0.5-0.3-0.7-0.5c-14.5-14.5-14.7-36.5-0.2-50.9c13.7-13.7,37.1-13.6,50.9,0.2
				c0.2,0.2-0.2-0.1,0.5,0.7l16.6-16.6C992.5-496.2,993.9-496.1,995-495z M928-431.7l4.6-4.6c0,0-0.1-0.1-0.2-0.1
				c-10.1-10.1-10.2-24.1-0.2-34.1c9.4-9.4,24.7-9.3,34.1,0.2c0,0,0.2,0.2,0.2,0.2l4.6-4.6c-0.7-0.7-0.5-0.3-0.7-0.5
				c-11.7-11.7-31.4-11.8-43-0.2c-12.2,12.2-12.1,30.7,0.2,43C927.7-432.2,927.4-432.4,928-431.7z M962.4-466.3
				c-7.2-7.2-19.1-7.4-26.2-0.2c-6.5,6.5-8.9,17.1,0.2,26.2c0,0,0.2,0.2,0.2,0.2l26.1-26.1C962.6-466.2,962.4-466.3,962.4-466.3z
				 M1009.3-473.7l-21.6,57.8c-0.1,0.4-0.4,0.8-0.7,1.1c-0.3,0.3-0.6,0.5-1,0.6l-56.5,20.5l35.5,35.5l79.9-79.9L1009.3-473.7z
				 M993.2-489.8l-79.9,79.9l11.8,11.8l57.9-21l22-58.9L993.2-489.8z"/>
			<path fill="#F69B7C" d="M529.5-81.7v-77.8c0-1.5,1.3-2.3,2.8-2.3h118.5c1.5,0,2.6,0.8,2.6,2.3v77.8c0,1.5-1.1,2.9-2.6,2.9h-23.5
				c0.1,1,0.1,0.4,0.1,0.6c0,20.6-15.4,36-35.9,36c-19.4,0-35.9-16.5-35.9-36.1c0-0.2,0.1,0.4,0.1-0.6h-23.5
				C530.8-78.8,529.5-80.2,529.5-81.7z M622-78.8h-6.5c0,0,0,0,0,0.1c0,14.2-9.9,24.1-24,24.1c-13.2,0-24-10.8-24-24.1
				c0,0,0-0.1,0-0.1h-6.5c0.1,1,0.1,0.4,0.1,0.6c0,16.5,13.9,30.5,30.3,30.5c17.3,0,30.3-13.1,30.3-30.5
				C621.9-78.4,621.9-77.8,622-78.8z M573.2-78.7c0,10.3,8.3,18.5,18.4,18.5c9.2,0,18.4-5.7,18.4-18.6c0,0,0-0.1,0-0.1L573.2-78.7
				C573.1-78.8,573.2-78.7,573.2-78.7z M534.5-106.9l56.3-25.6c0.4-0.2,1-0.3,1.4-0.3c0.4,0,0.7,0.1,1,0.3l54.3,25.5v-49.8h-113
				V-106.9z M534.5-83.8h113v-17l-55.8-26.1l-57.2,26.1V-83.8z"/>
			<path fill="#F69B7C" d="M1367.7-112.2v109c0,2.2-1.8,3.2-4,3.2h-166.1c-2.2,0-3.7-1.1-3.7-3.2v-109c0-2.2,1.5-4.1,3.7-4.1h33
				c-0.1-1.4-0.2-0.6-0.2-0.9c0-28.8,21.6-50.5,50.3-50.5c27.2,0,50.3,23.1,50.3,50.5c0,0.3-0.1-0.5-0.2,0.9h33
				C1365.9-116.3,1367.7-114.4,1367.7-112.2z M1238.1-116.3h9c0,0,0,0,0-0.1c0-19.9,13.8-33.8,33.6-33.8c18.5,0,33.6,15.2,33.6,33.8
				c0,0.1,0,0.1,0,0.1h9c-0.1-1.4-0.2-0.6-0.2-0.9c0-23.2-19.4-42.7-42.4-42.7c-24.2,0-42.4,18.3-42.4,42.7
				C1238.3-116.8,1238.2-117.7,1238.1-116.3z M1306.5-116.4c0-14.4-11.6-26-25.8-26c-12.8,0-25.8,8-25.8,26c0,0.1,0,0.1,0,0.1h51.7
				C1306.5-116.3,1306.5-116.3,1306.5-116.4z M1360.7-76.8L1281.9-41c-0.5,0.2-1.4,0.4-2,0.4c-0.6,0-0.9-0.1-1.5-0.4l-76.1-35.7V-7
				h158.3V-76.8z M1360.7-109.3h-158.3v23.9l78.2,36.5l80.1-36.5V-109.3z"/>
			<path fill="#F69B7C" d="M696.8-145.6l-132-132c-2.6-2.6-2.6-6.9,0-9.5L766-488.1c2.6-2.6,7-2.7,9.6-0.1l132,132
				c2.6,2.6,2.5,7-0.1,9.6l-39.9,39.9c0.8,0.6,1,0.5,1.4,0.9c34.9,34.9,35.1,87.4,0.4,122.1c-33,33-88.9,32.8-122.1-0.4
				c-0.4-0.4-0.3-0.6-0.9-1.4l-39.9,39.9C703.7-143,699.5-142.9,696.8-145.6z M858.5-297.7l-11,11c0,0,0.2,0.1,0.3,0.2
				c24.2,24.2,24.3,57.8,0.3,81.7c-22.4,22.4-59.1,22.3-81.7-0.3c-0.1-0.1-0.2-0.3-0.2-0.3l-11,11c0.8,0.6,1,0.5,1.4,0.9
				c28,28,75.3,28.2,103.1,0.4c29.3-29.3,29.1-73.6-0.4-103.1C859-296.8,859.1-296.9,858.5-297.7z M775.9-214.7
				c17.4,17.4,45.6,17.5,62.8,0.3c15.5-15.5,21.5-41-0.3-62.8c-0.1-0.1-0.2-0.3-0.2-0.3l-62.5,62.5
				C775.6-214.9,775.8-214.8,775.9-214.7z M663.2-197.6L715-336.1c0.3-0.9,1-1.8,1.6-2.5c0.7-0.7,1.4-1.1,2.4-1.5l135.7-49.2
				l-84.6-84.6L578.5-282.2L663.2-197.6z M701.6-159.2l191.6-191.6l-28-28l-138.9,50.4l-52.7,141.2L701.6-159.2z"/>
			<path fill="#F69B7C" d="M1037.5-384.5L1182-502.6c2.9-2.3,7.1-1.9,9.4,1l180,220.2c2.3,2.9,2,7.2-0.8,9.6l-144.5,118.1
				c-2.9,2.3-7.2,1.8-9.5-1.1l-35.7-43.7c-0.7,0.7-0.6,0.9-1.1,1.3c-38.2,31.2-90.5,26.1-121.5-11.9
				c-29.5-36.1-23.8-91.7,12.6-121.4c0.5-0.4,0.6-0.3,1.5-0.8l-35.7-43.7C1034.3-378,1034.7-382.2,1037.5-384.5z M1172.8-208.5
				l-9.8-12c0,0-0.1,0.2-0.2,0.2c-26.4,21.6-59.9,18.4-81.3-7.9c-20.1-24.6-16.3-61,8.5-81.3c0.1-0.1,0.3-0.2,0.3-0.1l-9.8-12
				c-0.7,0.7-0.6,0.9-1.1,1.3c-30.7,25.1-35.6,72.1-10.7,102.6c26.2,32.1,70.3,36.4,102.6,10
				C1171.7-208.1,1171.9-207.9,1172.8-208.5z M1098.4-299c-19,15.6-22,43.6-6.6,62.4c13.9,17,38.6,25.5,62.5,6
				c0.1-0.1,0.3-0.2,0.3-0.1l-56-68.5C1098.6-299.2,1098.5-299.1,1098.4-299z M1092.7-412.8l132.6,65.4c0.9,0.4,1.7,1.2,2.3,1.9
				c0.6,0.7,1,1.6,1.2,2.5l35.4,140l92.6-75.7l-171.5-209.8L1092.7-412.8z M1050.7-378.5l171.5,209.8l30.6-25l-36.3-143.2
				l-135.2-66.6L1050.7-378.5z"/>
		</g>
		<g>
			<path fill="#F69B7C" d="M298-366.7v186.6c0,3.7-2.5,6.5-6.2,6.5H7.4c-3.7,0-7.4-2.8-7.4-6.5v-186.6c0-3.7,3.7-6.9,7.4-6.9h56.5
				c-0.1-1-0.3-1-0.3-1.6c0-49.4,37-86.5,86.1-86.5c46.6,0,86.1,39.6,86.1,86.5c0,0.6-0.2,0.5-0.3,1.5h56.5
				C295.5-373.7,298-370.4,298-366.7z M76.6-373.7h15.5c0,0-0.1-0.1-0.1-0.2c0-34.2,23.7-57.9,57.6-57.9c31.7,0,57.6,26,57.6,58
				c0,0.1-0.1,0.2-0.1,0.2h15.5c-0.1-1-0.3-1-0.3-1.6c0-39.7-33.3-73.1-72.7-73.1c-41.4,0-72.7,31.4-72.7,73.1
				C76.9-374.6,76.7-374.7,76.6-373.7z M193.7-373.9c0-24.6-19.8-44.5-44.2-44.5c-22,0-44.2,13.7-44.2,44.6c0,0.1-0.1,0.2-0.1,0.2
				h88.5C193.8-373.7,193.7-373.8,193.7-373.9z M285-306.2l-134.4,61.3c-0.9,0.4-1.8,0.6-2.8,0.6c-1,0-1.9-0.2-2.8-0.6L14-306.1
				v119.4h271V-306.2z M285-360.7H14v39.8l133.8,62.5L285-320.9V-360.7z"/>
			<path fill="#F69B7C" d="M349-513.6l55,55c1.1,1.1,1.2,2.6,0.1,3.7l-83.8,83.8c-1.1,1.1-2.9,1.3-4,0.2l-55-55
				c-1.1-1.1-0.8-2.8,0.3-3.9l16.6-16.6c-0.7-0.7-0.5-0.3-0.7-0.5c-14.5-14.5-14.7-36.5-0.2-50.9c13.7-13.7,37.1-13.6,50.9,0.2
				c0.2,0.2-0.2-0.1,0.5,0.7l16.6-16.6C346.6-514.7,347.9-514.7,349-513.6z M282-450.2l4.6-4.6c0,0-0.1-0.1-0.2-0.1
				c-10.1-10.1-10.2-24.1-0.2-34.1c9.4-9.4,24.7-9.3,34.1,0.2c0,0,0.2,0.2,0.2,0.2l4.6-4.6c-0.7-0.7-0.5-0.3-0.7-0.5
				c-11.7-11.7-31.4-11.8-43-0.2c-12.2,12.2-12.1,30.7,0.2,43C281.7-450.7,281.4-450.9,282-450.2z M316.4-484.9
				c-7.2-7.2-19.1-7.4-26.2-0.2c-6.5,6.5-8.9,17.1,0.2,26.2c0,0,0.2,0.2,0.2,0.2l26.1-26.1C316.6-484.7,316.4-484.8,316.4-484.9z
				 M363.3-492.2l-21.6,57.8c-0.1,0.4-0.4,0.8-0.7,1.1c-0.3,0.3-0.6,0.5-1,0.6l-56.5,20.5l35.5,35.5l79.9-79.9L363.3-492.2z
				 M347.2-508.3l-79.9,79.9l11.8,11.8l57.9-21l22-58.9L347.2-508.3z"/>
			<path fill="#F69B7C" d="M229.4-618.5l55,55c1.1,1.1,1.2,2.6,0.1,3.7L200.7-476c-1.1,1.1-2.9,1.3-4,0.2l-55-55
				c-1.1-1.1-0.8-2.8,0.3-3.9l16.6-16.6c-0.7-0.7-0.5-0.3-0.7-0.5c-14.5-14.5-14.7-36.5-0.2-50.9c13.7-13.7,37.1-13.6,50.9,0.2
				c0.2,0.2-0.2-0.1,0.5,0.7l16.6-16.6C227-619.6,228.3-619.6,229.4-618.5z M162.5-555.1l4.6-4.6c0,0-0.1-0.1-0.2-0.1
				c-10.1-10.1-10.2-24.1-0.2-34.1c9.4-9.4,24.7-9.3,34.1,0.2c0,0,0.2,0.2,0.2,0.2l4.6-4.6c-0.7-0.7-0.5-0.3-0.7-0.5
				c-11.7-11.7-31.4-11.8-43-0.2c-12.2,12.2-12.1,30.7,0.2,43C162.1-555.6,161.8-555.9,162.5-555.1z M196.8-589.8
				c-7.2-7.2-19.1-7.4-26.2-0.2c-6.5,6.5-8.9,17.1,0.2,26.2c0,0,0.2,0.2,0.2,0.2l26.1-26.1C197-589.7,196.9-589.8,196.8-589.8z
				 M243.8-597.1l-21.6,57.8c-0.1,0.4-0.4,0.8-0.7,1.1c-0.3,0.3-0.6,0.5-1,0.6l-56.5,20.5l35.5,35.5l79.9-79.9L243.8-597.1z
				 M227.6-613.2l-79.9,79.9l11.8,11.8l57.9-21l22-58.9L227.6-613.2z"/>
			<path fill="#F69B7C" d="M229.4-852.5l55,55c1.1,1.1,1.2,2.6,0.1,3.7L200.7-710c-1.1,1.1-2.9,1.3-4,0.2l-55-55
				c-1.1-1.1-0.8-2.8,0.3-3.9l16.6-16.6c-0.7-0.7-0.5-0.3-0.7-0.5c-14.5-14.5-14.7-36.5-0.2-50.9c13.7-13.7,37.1-13.6,50.9,0.2
				c0.2,0.2-0.2-0.1,0.5,0.7l16.6-16.6C227-853.6,228.3-853.6,229.4-852.5z M162.5-789.1l4.6-4.6c0,0-0.1-0.1-0.2-0.1
				c-10.1-10.1-10.2-24.1-0.2-34.1c9.4-9.4,24.7-9.3,34.1,0.2c0,0,0.2,0.2,0.2,0.2l4.6-4.6c-0.7-0.7-0.5-0.3-0.7-0.5
				c-11.7-11.7-31.4-11.8-43-0.2c-12.2,12.2-12.1,30.7,0.2,43C162.1-789.6,161.8-789.9,162.5-789.1z M196.8-823.8
				c-7.2-7.2-19.1-7.4-26.2-0.2c-6.5,6.5-8.9,17.1,0.2,26.2c0,0,0.2,0.2,0.2,0.2l26.1-26.1C197-823.7,196.9-823.8,196.8-823.8z
				 M243.8-831.1l-21.6,57.8c-0.1,0.4-0.4,0.8-0.7,1.1c-0.3,0.3-0.6,0.5-1,0.6l-56.5,20.5l35.5,35.5l79.9-79.9L243.8-831.1z
				 M227.6-847.2l-79.9,79.9l11.8,11.8l57.9-21l22-58.9L227.6-847.2z"/>
			<path fill="#F69B7C" d="M602.2-469.7v109c0,2.2-1.8,3.2-4,3.2H432.1c-2.2,0-3.7-1.1-3.7-3.2v-109c0-2.2,1.5-4.1,3.7-4.1h33
				c-0.1-1.4-0.2-0.6-0.2-0.9c0-28.8,21.6-50.5,50.3-50.5c27.2,0,50.3,23.1,50.3,50.5c0,0.3-0.1-0.5-0.2,0.9h33
				C600.3-473.8,602.2-471.8,602.2-469.7z M472.5-473.8h9c0,0,0,0,0-0.1c0-19.9,13.8-33.8,33.6-33.8c18.5,0,33.6,15.2,33.6,33.8
				c0,0.1,0,0.1,0,0.1h9c-0.1-1.4-0.2-0.6-0.2-0.9c0-23.2-19.4-42.7-42.4-42.7c-24.2,0-42.4,18.3-42.4,42.7
				C472.7-474.3,472.6-475.2,472.5-473.8z M540.9-473.9c0-14.4-11.6-26-25.8-26c-12.8,0-25.8,8-25.8,26c0,0.1,0,0.1,0,0.1H541
				C541-473.8,540.9-473.8,540.9-473.9z M595.1-434.3l-78.8,35.8c-0.5,0.2-1.4,0.4-2,0.4c-0.6,0-0.9-0.1-1.5-0.4l-76.1-35.7v69.8
				h158.3V-434.3z M595.1-466.7H436.8v23.9l78.2,36.5l80.1-36.5V-466.7z"/>
			<path fill="#F69B7C" d="M456-305.7v77.8c0,1.5-1.3,2.3-2.8,2.3H334.6c-1.5,0-2.6-0.8-2.6-2.3v-77.8c0-1.5,1.1-2.9,2.6-2.9h23.5
				c-0.1-1-0.1-0.4-0.1-0.6c0-20.6,15.4-36,35.9-36c19.4,0,35.9,16.5,35.9,36.1c0,0.2-0.1-0.4-0.1,0.6h23.5
				C454.7-308.7,456-307.3,456-305.7z M363.5-308.7h6.5c0,0,0,0,0-0.1c0-14.2,9.9-24.1,24-24.1c13.2,0,24,10.8,24,24.1
				c0,0,0,0.1,0,0.1h6.5c-0.1-1-0.1-0.4-0.1-0.6c0-16.5-13.9-30.5-30.3-30.5c-17.3,0-30.3,13.1-30.3,30.5
				C363.6-309,363.5-309.7,363.5-308.7z M412.3-308.7c0-10.3-8.3-18.5-18.4-18.5c-9.2,0-18.4,5.7-18.4,18.6c0,0,0,0.1,0,0.1
				L412.3-308.7C412.3-308.7,412.3-308.7,412.3-308.7z M451-280.5l-56.3,25.6c-0.4,0.2-1,0.3-1.4,0.3c-0.4,0-0.7-0.1-1-0.3
				L338-280.5v49.8h113V-280.5z M451-303.7H338v17l55.8,26.1l57.2-26.1V-303.7z"/>
			<path fill="#F69B7C" d="M272-742l144.5-118.1c2.9-2.3,7.1-1.9,9.4,1l180,220.2c2.3,2.9,2,7.2-0.8,9.6L460.5-511.3
				c-2.9,2.3-7.2,1.8-9.5-1.1l-35.7-43.7c-0.7,0.7-0.6,0.9-1.1,1.3c-38.2,31.2-90.5,26.1-121.5-11.9
				c-29.5-36.1-23.8-91.7,12.6-121.4c0.5-0.4,0.6-0.3,1.5-0.8L271-732.6C268.7-735.4,269.1-739.7,272-742z M407.2-565.9l-9.8-12
				c0,0-0.1,0.2-0.2,0.2c-26.4,21.6-59.9,18.4-81.3-7.9c-20.1-24.6-16.3-61,8.5-81.3c0.1-0.1,0.3-0.2,0.3-0.1l-9.8-12
				c-0.7,0.7-0.6,0.9-1.1,1.3c-30.7,25.1-35.6,72.1-10.7,102.6c26.2,32.1,70.3,36.4,102.6,10C406.2-565.5,406.3-565.4,407.2-565.9z
				 M332.8-656.5c-19,15.6-22,43.6-6.6,62.4c13.9,17,38.6,25.5,62.5,6c0.1-0.1,0.3-0.2,0.3-0.1l-56-68.5
				C333-656.7,332.9-656.5,332.8-656.5z M327.1-770.3l132.6,65.4c0.9,0.4,1.7,1.2,2.3,1.9c0.6,0.7,1,1.6,1.2,2.5l35.4,140l92.6-75.7
				L419.8-846L327.1-770.3z M285.1-735.9l171.5,209.8l30.6-25l-36.3-143.2l-135.2-66.6L285.1-735.9z"/>
		</g>
		<g>
			<path fill="#F69B7C" d="M1829.2-1081.7v186.6c0,3.7-2.5,6.5-6.2,6.5h-284.4c-3.7,0-7.4-2.8-7.4-6.5v-186.6c0-3.7,3.7-6.9,7.4-6.9
				h56.5c-0.1-1-0.3-1-0.3-1.6c0-49.4,37-86.5,86.1-86.5c46.6,0,86.1,39.6,86.1,86.5c0,0.6-0.2,0.5-0.3,1.5h56.5
				C1826.6-1088.6,1829.2-1085.4,1829.2-1081.7z M1607.7-1088.6h15.5c0,0-0.1-0.1-0.1-0.2c0-34.2,23.7-57.9,57.6-57.9
				c31.7,0,57.6,26,57.6,58c0,0.1-0.1,0.2-0.1,0.2h15.5c-0.1-1-0.3-1-0.3-1.6c0-39.7-33.3-73.1-72.7-73.1
				c-41.4,0-72.7,31.4-72.7,73.1C1608-1089.5,1607.9-1089.6,1607.7-1088.6z M1724.9-1088.8c0-24.6-19.8-44.5-44.2-44.5
				c-22,0-44.2,13.7-44.2,44.6c0,0.1-0.1,0.2-0.1,0.2h88.5C1724.9-1088.6,1724.9-1088.7,1724.9-1088.8z M1816.2-1021.1l-134.4,61.3
				c-0.9,0.4-1.8,0.6-2.8,0.6c-1,0-1.9-0.2-2.8-0.6l-131-61.2v119.4h271V-1021.1z M1816.2-1075.6h-271v39.8l133.8,62.5l137.2-62.6
				V-1075.6z"/>
			<path fill="#F69B7C" d="M1760.6-1333.4l55,55c1.1,1.1,1.2,2.6,0.1,3.7l-83.8,83.8c-1.1,1.1-2.9,1.3-4,0.2l-55-55
				c-1.1-1.1-0.8-2.8,0.3-3.9l16.6-16.6c-0.7-0.7-0.5-0.3-0.7-0.5c-14.5-14.5-14.7-36.5-0.2-50.9c13.7-13.7,37.1-13.6,50.9,0.2
				c0.2,0.2-0.2-0.1,0.5,0.7l16.6-16.6C1758.1-1334.6,1759.5-1334.5,1760.6-1333.4z M1693.6-1270l4.6-4.6c0,0-0.1-0.1-0.2-0.1
				c-10.1-10.1-10.2-24.1-0.2-34.1c9.4-9.4,24.7-9.2,34.1,0.2c0,0,0.2,0.2,0.2,0.2l4.6-4.6c-0.7-0.7-0.5-0.3-0.7-0.5
				c-11.7-11.7-31.4-11.8-43-0.2c-12.2,12.2-12.1,30.7,0.2,43C1693.3-1270.6,1692.9-1270.8,1693.6-1270z M1728-1304.7
				c-7.2-7.2-19.1-7.4-26.2-0.2c-6.5,6.5-8.9,17.1,0.2,26.2c0,0,0.2,0.2,0.2,0.2l26.1-26.1C1728.1-1304.6,1728-1304.7,1728-1304.7z
				 M1774.9-1312.1l-21.6,57.8c-0.1,0.4-0.4,0.8-0.7,1.1c-0.3,0.3-0.6,0.5-1,0.6l-56.5,20.5l35.5,35.5l79.9-79.9L1774.9-1312.1z
				 M1758.8-1328.2l-79.9,79.9l11.8,11.8l57.9-21l22-58.9L1758.8-1328.2z"/>
			<path fill="#F69B7C" d="M1760.6-1567.4l55,55c1.1,1.1,1.2,2.6,0.1,3.7l-83.8,83.8c-1.1,1.1-2.9,1.3-4,0.2l-55-55
				c-1.1-1.1-0.8-2.8,0.3-3.9l16.6-16.6c-0.7-0.7-0.5-0.3-0.7-0.5c-14.5-14.5-14.7-36.5-0.2-50.9c13.7-13.7,37.1-13.6,50.9,0.2
				c0.2,0.2-0.2-0.1,0.5,0.7l16.6-16.6C1758.1-1568.6,1759.5-1568.5,1760.6-1567.4z M1693.6-1504l4.6-4.6c0,0-0.1-0.1-0.2-0.1
				c-10.1-10.1-10.2-24.1-0.2-34.1c9.4-9.4,24.7-9.2,34.1,0.2c0,0,0.2,0.2,0.2,0.2l4.6-4.6c-0.7-0.7-0.5-0.3-0.7-0.5
				c-11.7-11.7-31.4-11.8-43-0.2c-12.2,12.2-12.1,30.7,0.2,43C1693.3-1504.6,1692.9-1504.8,1693.6-1504z M1728-1538.7
				c-7.2-7.2-19.1-7.4-26.2-0.2c-6.5,6.5-8.9,17.1,0.2,26.2c0,0,0.2,0.2,0.2,0.2l26.1-26.1C1728.1-1538.6,1728-1538.7,1728-1538.7z
				 M1774.9-1546.1l-21.6,57.8c-0.1,0.4-0.4,0.8-0.7,1.1c-0.3,0.3-0.6,0.5-1,0.6l-56.5,20.5l35.5,35.5l79.9-79.9L1774.9-1546.1z
				 M1758.8-1562.2l-79.9,79.9l11.8,11.8l57.9-21l22-58.9L1758.8-1562.2z"/>
			<path fill="#F69B7C" d="M1577.2-1178.7v77.8c0,1.5-1.3,2.3-2.8,2.3h-118.5c-1.5,0-2.6-0.8-2.6-2.3v-77.8c0-1.5,1.1-2.9,2.6-2.9
				h23.5c-0.1-1-0.1-0.4-0.1-0.6c0-20.6,15.4-36,35.9-36c19.4,0,35.9,16.5,35.9,36.1c0,0.2-0.1-0.4-0.1,0.6h23.5
				C1575.9-1181.6,1577.2-1180.2,1577.2-1178.7z M1484.6-1181.6h6.5c0,0,0,0,0-0.1c0-14.2,9.9-24.1,24-24.1c13.2,0,24,10.8,24,24.1
				c0,0,0,0.1,0,0.1h6.5c-0.1-1-0.1-0.4-0.1-0.6c0-16.5-13.9-30.5-30.3-30.5c-17.3,0-30.3,13.1-30.3,30.5
				C1484.8-1182,1484.7-1182.6,1484.6-1181.6z M1533.5-1181.7c0-10.3-8.3-18.5-18.4-18.5c-9.2,0-18.4,5.7-18.4,18.6c0,0,0,0.1,0,0.1
				L1533.5-1181.7C1533.5-1181.6,1533.5-1181.6,1533.5-1181.7z M1572.2-1153.4l-56.3,25.6c-0.4,0.2-1,0.3-1.4,0.3
				c-0.4,0-0.7-0.1-1-0.3l-54.3-25.5v49.8h113V-1153.4z M1572.2-1176.6h-113v17l55.8,26.1l57.2-26.1V-1176.6z"/>
			<path fill="#F69B7C" d="M1428.9-1056.4h77.8c1.5,0,2.3,1.3,2.3,2.8v118.5c0,1.5-0.8,2.6-2.3,2.6h-77.8c-1.5,0-2.9-1.1-2.9-2.6
				v-23.5c-1,0.1-0.4,0.1-0.6,0.1c-20.6,0-36-15.4-36-35.9c0-19.4,16.5-35.9,36.1-35.9c0.2,0-0.4,0.1,0.6,0.1v-23.5
				C1426-1055.1,1427.4-1056.4,1428.9-1056.4z M1426-963.9v-6.5c0,0,0,0-0.1,0c-14.2,0-24.1-9.9-24.1-24c0-13.2,10.8-24,24.1-24
				c0,0,0.1,0,0.1,0v-6.5c-1,0.1-0.4,0.1-0.6,0.1c-16.5,0-30.5,13.9-30.5,30.3c0,17.3,13.1,30.3,30.5,30.3
				C1425.6-964,1425-964,1426-963.9z M1425.9-1012.7c-10.3,0-18.5,8.3-18.5,18.4c0,9.2,5.7,18.4,18.6,18.4c0,0,0.1,0,0.1,0
				L1425.9-1012.7C1426-1012.8,1426-1012.7,1425.9-1012.7z M1454.2-1051.4l25.6,56.3c0.2,0.4,0.3,1,0.3,1.4c0,0.4-0.1,0.7-0.3,1
				l-25.5,54.3h49.8v-113H1454.2z M1431-1051.4v113h17l26.1-55.8l-26.1-57.2H1431z"/>
			<path fill="#F69B7C" d="M1295.1-1154.1v-77.8c0-1.5,1.3-2.3,2.8-2.3h118.5c1.5,0,2.6,0.8,2.6,2.3v77.8c0,1.5-1.1,2.9-2.6,2.9
				h-23.5c0.1,1,0.1,0.4,0.1,0.6c0,20.6-15.4,36-35.9,36c-19.4,0-35.9-16.5-35.9-36.1c0-0.2,0.1,0.4,0.1-0.6h-23.5
				C1296.3-1151.2,1295.1-1152.5,1295.1-1154.1z M1387.6-1151.2h-6.5c0,0,0,0,0,0.1c0,14.2-9.9,24.1-24,24.1
				c-13.2,0-24-10.8-24-24.1c0,0,0-0.1,0-0.1h-6.5c0.1,1,0.1,0.4,0.1,0.6c0,16.5,13.9,30.5,30.3,30.5c17.3,0,30.3-13.1,30.3-30.5
				C1387.4-1150.8,1387.5-1150.2,1387.6-1151.2z M1338.7-1151.1c0,10.3,8.3,18.5,18.4,18.5c9.2,0,18.4-5.7,18.4-18.6
				c0,0,0-0.1,0-0.1L1338.7-1151.1C1338.7-1151.2,1338.7-1151.1,1338.7-1151.1z M1300.1-1179.3l56.3-25.6c0.4-0.2,1-0.3,1.4-0.3
				c0.4,0,0.7,0.1,1,0.3l54.3,25.5v-49.8h-113V-1179.3z M1300.1-1156.2h113v-17l-55.8-26.1l-57.2,26.1V-1156.2z"/>
			<path fill="#F69B7C" d="M1462.4-1218l-132-132c-2.6-2.6-2.6-6.9,0-9.5l201.1-201.1c2.6-2.6,7-2.7,9.6-0.1l132,132
				c2.6,2.6,2.5,7-0.1,9.6l-39.9,39.9c0.8,0.6,1,0.5,1.4,0.9c34.9,34.9,35.1,87.4,0.4,122.1c-33,33-88.9,32.8-122.1-0.4
				c-0.4-0.4-0.3-0.6-0.9-1.4l-39.9,39.9C1469.3-1215.4,1465-1215.3,1462.4-1218z M1624.1-1370.1l-11,11c0,0,0.2,0.1,0.3,0.2
				c24.2,24.2,24.3,57.8,0.3,81.7c-22.4,22.4-59.1,22.3-81.7-0.3c-0.1-0.1-0.2-0.3-0.2-0.3l-11,11c0.8,0.6,1,0.5,1.4,0.9
				c28,28,75.3,28.2,103.1,0.4c29.3-29.3,29.1-73.6-0.4-103.1C1624.6-1369.1,1624.7-1369.3,1624.1-1370.1z M1541.4-1287.1
				c17.4,17.4,45.6,17.5,62.8,0.3c15.5-15.5,21.5-41-0.3-62.8c-0.1-0.1-0.2-0.3-0.2-0.3l-62.5,62.5
				C1541.2-1287.3,1541.4-1287.1,1541.4-1287.1z M1428.8-1270l51.8-138.5c0.3-0.9,1-1.8,1.6-2.5c0.7-0.7,1.4-1.1,2.4-1.5l135.7-49.2
				l-84.6-84.6l-191.6,191.6L1428.8-1270z M1467.2-1231.6l191.6-191.6l-28-28l-138.9,50.4l-52.7,141.2L1467.2-1231.6z"/>
		</g>
		<g>
			<path fill="#F69B7C" d="M1063.6-724.2v186.6c0,3.7-2.5,6.5-6.2,6.5H772.9c-3.7,0-7.4-2.8-7.4-6.5v-186.6c0-3.7,3.7-6.9,7.4-6.9
				h56.5c-0.1-1-0.3-1-0.3-1.6c0-49.4,37-86.5,86.1-86.5c46.6,0,86.1,39.6,86.1,86.5c0,0.6-0.2,0.5-0.3,1.5h56.5
				C1061-731.1,1063.6-727.9,1063.6-724.2z M842.1-731.1h15.5c0,0-0.1-0.1-0.1-0.2c0-34.2,23.7-57.9,57.6-57.9
				c31.7,0,57.6,26,57.6,58c0,0.1-0.1,0.2-0.1,0.2h15.5c-0.1-1-0.3-1-0.3-1.6c0-39.7-33.3-73.1-72.7-73.1
				c-41.4,0-72.7,31.4-72.7,73.1C842.5-732.1,842.3-732.1,842.1-731.1z M959.3-731.3c0-24.6-19.8-44.5-44.2-44.5
				c-22,0-44.2,13.7-44.2,44.6c0,0.1-0.1,0.2-0.1,0.2h88.5C959.4-731.1,959.3-731.2,959.3-731.3z M1050.6-663.6l-134.4,61.3
				c-0.9,0.4-1.8,0.6-2.8,0.6c-1,0-1.9-0.2-2.8-0.6l-131-61.2v119.4h271V-663.6z M1050.6-718.1h-271v39.8l133.8,62.5l137.2-62.6
				V-718.1z"/>
			<path fill="#F69B7C" d="M1114.6-871l55,55c1.1,1.1,1.2,2.6,0.1,3.7l-83.8,83.8c-1.1,1.1-2.9,1.3-4,0.2l-55-55
				c-1.1-1.1-0.8-2.8,0.3-3.9l16.6-16.6c-0.7-0.7-0.5-0.3-0.7-0.5c-14.5-14.5-14.7-36.5-0.2-50.9c13.7-13.7,37.1-13.6,50.9,0.2
				c0.2,0.2-0.2-0.1,0.5,0.7l16.6-16.6C1112.1-872.2,1113.5-872.1,1114.6-871z M1047.6-807.7l4.6-4.6c0,0-0.1-0.1-0.2-0.1
				c-10.1-10.1-10.2-24.1-0.2-34.1c9.4-9.4,24.7-9.3,34.1,0.2c0,0,0.2,0.2,0.2,0.2l4.6-4.6c-0.7-0.7-0.5-0.3-0.7-0.5
				c-11.7-11.7-31.4-11.8-43-0.2c-12.2,12.2-12.1,30.7,0.2,43C1047.3-808.2,1047-808.4,1047.6-807.7z M1082-842.3
				c-7.2-7.2-19.1-7.4-26.2-0.2c-6.5,6.5-8.9,17.1,0.2,26.2c0,0,0.2,0.2,0.2,0.2l26.1-26.1C1082.2-842.2,1082-842.3,1082-842.3z
				 M1128.9-849.7l-21.6,57.8c-0.1,0.4-0.4,0.8-0.7,1.1c-0.3,0.3-0.6,0.5-1,0.6l-56.5,20.5l35.5,35.5l79.9-79.9L1128.9-849.7z
				 M1112.8-865.8l-79.9,79.9l11.8,11.8l57.9-21l22-58.9L1112.8-865.8z"/>
			<path fill="#F69B7C" d="M995-976l55,55c1.1,1.1,1.2,2.6,0.1,3.7l-83.8,83.8c-1.1,1.1-2.9,1.3-4,0.2l-55-55
				c-1.1-1.1-0.8-2.8,0.3-3.9l16.6-16.6c-0.7-0.7-0.5-0.3-0.7-0.5c-14.5-14.5-14.7-36.5-0.2-50.9c13.7-13.7,37.1-13.6,50.9,0.2
				c0.2,0.2-0.2-0.1,0.5,0.7l16.6-16.6C992.5-977.1,993.9-977.1,995-976z M928-912.6l4.6-4.6c0,0-0.1-0.1-0.2-0.1
				c-10.1-10.1-10.2-24.1-0.2-34.1c9.4-9.4,24.7-9.3,34.1,0.2c0,0,0.2,0.2,0.2,0.2l4.6-4.6c-0.7-0.7-0.5-0.3-0.7-0.5
				c-11.7-11.7-31.4-11.8-43-0.2c-12.2,12.2-12.1,30.7,0.2,43C927.7-913.1,927.4-913.3,928-912.6z M962.4-947.3
				c-7.2-7.2-19.1-7.4-26.2-0.2c-6.5,6.5-8.9,17.1,0.2,26.2c0,0,0.2,0.2,0.2,0.2l26.1-26.1C962.6-947.1,962.4-947.2,962.4-947.3z
				 M1009.3-954.6l-21.6,57.8c-0.1,0.4-0.4,0.8-0.7,1.1c-0.3,0.3-0.6,0.5-1,0.6l-56.5,20.5l35.5,35.5l79.9-79.9L1009.3-954.6z
				 M993.2-970.7l-79.9,79.9l11.8,11.8l57.9-21l22-58.9L993.2-970.7z"/>
			<path fill="#F69B7C" d="M995-1210l55,55c1.1,1.1,1.2,2.6,0.1,3.7l-83.8,83.8c-1.1,1.1-2.9,1.3-4,0.2l-55-55
				c-1.1-1.1-0.8-2.8,0.3-3.9l16.6-16.6c-0.7-0.7-0.5-0.3-0.7-0.5c-14.5-14.5-14.7-36.5-0.2-50.9c13.7-13.7,37.1-13.6,50.9,0.2
				c0.2,0.2-0.2-0.1,0.5,0.7l16.6-16.6C992.5-1211.1,993.9-1211.1,995-1210z M928-1146.6l4.6-4.6c0,0-0.1-0.1-0.2-0.1
				c-10.1-10.1-10.2-24.1-0.2-34.1c9.4-9.4,24.7-9.2,34.1,0.2c0,0,0.2,0.2,0.2,0.2l4.6-4.6c-0.7-0.7-0.5-0.3-0.7-0.5
				c-11.7-11.7-31.4-11.8-43-0.2c-12.2,12.2-12.1,30.7,0.2,43C927.7-1147.1,927.4-1147.3,928-1146.6z M962.4-1181.3
				c-7.2-7.2-19.1-7.4-26.2-0.2c-6.5,6.5-8.9,17.1,0.2,26.2c0,0,0.2,0.2,0.2,0.2l26.1-26.1C962.6-1181.1,962.4-1181.2,962.4-1181.3z
				 M1009.3-1188.6l-21.6,57.8c-0.1,0.4-0.4,0.8-0.7,1.1c-0.3,0.3-0.6,0.5-1,0.6l-56.5,20.5l35.5,35.5l79.9-79.9L1009.3-1188.6z
				 M993.2-1204.7l-79.9,79.9l11.8,11.8l57.9-21l22-58.9L993.2-1204.7z"/>
			<path fill="#F69B7C" d="M811.6-821.2v77.8c0,1.5-1.3,2.3-2.8,2.3H690.2c-1.5,0-2.6-0.8-2.6-2.3v-77.8c0-1.5,1.1-2.9,2.6-2.9h23.5
				c-0.1-1-0.1-0.4-0.1-0.6c0-20.6,15.4-36,35.9-36c19.4,0,35.9,16.5,35.9,36.1c0,0.2-0.1-0.4-0.1,0.6h23.5
				C810.3-824.1,811.6-822.8,811.6-821.2z M719.1-824.1h6.5c0,0,0,0,0-0.1c0-14.2,9.9-24.1,24-24.1c13.2,0,24,10.8,24,24.1
				c0,0,0,0.1,0,0.1h6.5c-0.1-1-0.1-0.4-0.1-0.6c0-16.5-13.9-30.5-30.3-30.5c-17.3,0-30.3,13.1-30.3,30.5
				C719.2-824.5,719.1-825.1,719.1-824.1z M767.9-824.2c0-10.3-8.3-18.5-18.4-18.5c-9.2,0-18.4,5.7-18.4,18.6c0,0,0,0.1,0,0.1
				L767.9-824.2C767.9-824.1,767.9-824.2,767.9-824.2z M806.6-796l-56.3,25.6c-0.4,0.2-1,0.3-1.4,0.3c-0.4,0-0.7-0.1-1-0.3
				l-54.3-25.5v49.8h113V-796z M806.6-819.1h-113v17l55.8,26.1l57.2-26.1V-819.1z"/>
			<path fill="#F69B7C" d="M663.3-699h77.8c1.5,0,2.3,1.3,2.3,2.8v118.5c0,1.5-0.8,2.6-2.3,2.6h-77.8c-1.5,0-2.9-1.1-2.9-2.6v-23.5
				c-1,0.1-0.4,0.1-0.6,0.1c-20.6,0-36-15.4-36-35.9c0-19.4,16.5-35.9,36.1-35.9c0.2,0-0.4,0.1,0.6,0.1v-23.5
				C660.4-697.7,661.8-699,663.3-699z M660.4-606.4v-6.5c0,0,0,0-0.1,0c-14.2,0-24.1-9.9-24.1-24c0-13.2,10.8-24,24.1-24
				c0,0,0.1,0,0.1,0v-6.5c-1,0.1-0.4,0.1-0.6,0.1c-16.5,0-30.5,13.9-30.5,30.3c0,17.3,13.1,30.3,30.5,30.3
				C660-606.6,659.4-606.5,660.4-606.4z M660.3-655.3c-10.3,0-18.5,8.3-18.5,18.4c0,9.2,5.7,18.4,18.6,18.4c0,0,0.1,0,0.1,0
				L660.3-655.3C660.4-655.3,660.4-655.3,660.3-655.3z M688.6-694l25.6,56.3c0.2,0.4,0.3,1,0.3,1.4c0,0.4-0.1,0.7-0.3,1L688.6-581
				h49.8v-113H688.6z M665.4-694v113h17l26.1-55.8L682.4-694H665.4z"/>
			<path fill="#F69B7C" d="M529.5-796.6v-77.8c0-1.5,1.3-2.3,2.8-2.3h118.5c1.5,0,2.6,0.8,2.6,2.3v77.8c0,1.5-1.1,2.9-2.6,2.9h-23.5
				c0.1,1,0.1,0.4,0.1,0.6c0,20.6-15.4,36-35.9,36c-19.4,0-35.9-16.5-35.9-36.1c0-0.2,0.1,0.4,0.1-0.6h-23.5
				C530.8-793.7,529.5-795.1,529.5-796.6z M622-793.7h-6.5c0,0,0,0,0,0.1c0,14.2-9.9,24.1-24,24.1c-13.2,0-24-10.8-24-24.1
				c0,0,0-0.1,0-0.1h-6.5c0.1,1,0.1,0.4,0.1,0.6c0,16.5,13.9,30.5,30.3,30.5c17.3,0,30.3-13.1,30.3-30.5
				C621.9-793.3,621.9-792.7,622-793.7z M573.2-793.6c0,10.3,8.3,18.5,18.4,18.5c9.2,0,18.4-5.7,18.4-18.6c0,0,0-0.1,0-0.1
				L573.2-793.6C573.1-793.7,573.2-793.7,573.2-793.6z M534.5-821.9l56.3-25.6c0.4-0.2,1-0.3,1.4-0.3c0.4,0,0.7,0.1,1,0.3l54.3,25.5
				v-49.8h-113V-821.9z M534.5-798.7h113v-17l-55.8-26.1l-57.2,26.1V-798.7z"/>
			<path fill="#F69B7C" d="M1367.7-827.1v109c0,2.2-1.8,3.2-4,3.2h-166.1c-2.2,0-3.7-1.1-3.7-3.2v-109c0-2.2,1.5-4.1,3.7-4.1h33
				c-0.1-1.4-0.2-0.6-0.2-0.9c0-28.8,21.6-50.5,50.3-50.5c27.2,0,50.3,23.1,50.3,50.5c0,0.3-0.1-0.5-0.2,0.9h33
				C1365.9-831.2,1367.7-829.3,1367.7-827.1z M1238.1-831.2h9c0,0,0,0,0-0.1c0-19.9,13.8-33.8,33.6-33.8c18.5,0,33.6,15.2,33.6,33.8
				c0,0.1,0,0.1,0,0.1h9c-0.1-1.4-0.2-0.6-0.2-0.9c0-23.2-19.4-42.7-42.4-42.7c-24.2,0-42.4,18.3-42.4,42.7
				C1238.3-831.8,1238.2-832.6,1238.1-831.2z M1306.5-831.3c0-14.4-11.6-26-25.8-26c-12.8,0-25.8,8-25.8,26c0,0.1,0,0.1,0,0.1h51.7
				C1306.5-831.2,1306.5-831.3,1306.5-831.3z M1360.7-791.8l-78.8,35.8c-0.5,0.2-1.4,0.4-2,0.4c-0.6,0-0.9-0.1-1.5-0.4l-76.1-35.7
				v69.8h158.3V-791.8z M1360.7-824.2h-158.3v23.9l78.2,36.5l80.1-36.5V-824.2z"/>
			<path fill="#F69B7C" d="M1221.6-663.2v77.8c0,1.5-1.3,2.3-2.8,2.3h-118.5c-1.5,0-2.6-0.8-2.6-2.3v-77.8c0-1.5,1.1-2.9,2.6-2.9
				h23.5c-0.1-1-0.1-0.4-0.1-0.6c0-20.6,15.4-36,35.9-36c19.4,0,35.9,16.5,35.9,36.1c0,0.2-0.1-0.4-0.1,0.6h23.5
				C1220.3-666.1,1221.6-664.8,1221.6-663.2z M1129.1-666.1h6.5c0,0,0,0,0-0.1c0-14.2,9.9-24.1,24-24.1c13.2,0,24,10.8,24,24.1
				c0,0,0,0.1,0,0.1h6.5c-0.1-1-0.1-0.4-0.1-0.6c0-16.5-13.9-30.5-30.3-30.5c-17.3,0-30.3,13.1-30.3,30.5
				C1129.2-666.5,1129.1-667.1,1129.1-666.1z M1177.9-666.2c0-10.3-8.3-18.5-18.4-18.5c-9.2,0-18.4,5.7-18.4,18.6c0,0,0,0.1,0,0.1
				L1177.9-666.2C1177.9-666.1,1177.9-666.2,1177.9-666.2z M1216.6-638l-56.3,25.6c-0.4,0.2-1,0.3-1.4,0.3c-0.4,0-0.7-0.1-1-0.3
				l-54.3-25.5v49.8h113V-638z M1216.6-661.1h-113v17l55.8,26.1l57.2-26.1V-661.1z"/>
			<path fill="#F69B7C" d="M696.8-860.5l-132-132c-2.6-2.6-2.6-6.9,0-9.5L766-1203c2.6-2.6,7-2.7,9.6-0.1l132,132
				c2.6,2.6,2.5,7-0.1,9.6l-39.9,39.9c0.8,0.6,1,0.5,1.4,0.9c34.9,34.9,35.1,87.4,0.4,122.1c-33,33-88.9,32.8-122.1-0.4
				c-0.4-0.4-0.3-0.6-0.9-1.4l-39.9,39.9C703.7-857.9,699.5-857.9,696.8-860.5z M858.5-1012.7l-11,11c0,0,0.2,0.1,0.3,0.2
				c24.2,24.2,24.3,57.8,0.3,81.7c-22.4,22.4-59.1,22.3-81.7-0.3c-0.1-0.1-0.2-0.3-0.2-0.3l-11,11c0.8,0.6,1,0.5,1.4,0.9
				c28,28,75.3,28.2,103.1,0.4c29.3-29.3,29.1-73.6-0.4-103.1C859-1011.7,859.1-1011.9,858.5-1012.7z M775.9-929.6
				c17.4,17.4,45.6,17.5,62.8,0.3c15.5-15.5,21.5-41-0.3-62.8c-0.1-0.1-0.2-0.3-0.2-0.3l-62.5,62.5
				C775.6-929.8,775.8-929.7,775.9-929.6z M663.2-912.5L715-1051c0.3-0.9,1-1.8,1.6-2.5c0.7-0.7,1.4-1.1,2.4-1.5l135.7-49.2
				l-84.6-84.6L578.5-997.2L663.2-912.5z M701.6-874.1l191.6-191.6l-28-28l-138.9,50.4l-52.7,141.2L701.6-874.1z"/>
			<path fill="#F69B7C" d="M1037.5-1099.5l144.5-118.1c2.9-2.3,7.1-1.9,9.4,1l180,220.2c2.3,2.9,2,7.2-0.8,9.6l-144.5,118.1
				c-2.9,2.3-7.2,1.8-9.5-1.1l-35.7-43.7c-0.7,0.7-0.6,0.9-1.1,1.3c-38.2,31.2-90.5,26.1-121.5-11.9
				c-29.5-36.1-23.8-91.7,12.6-121.4c0.5-0.4,0.6-0.3,1.5-0.8l-35.7-43.7C1034.3-1092.9,1034.7-1097.1,1037.5-1099.5z M1172.8-923.4
				l-9.8-12c0,0-0.1,0.2-0.2,0.2c-26.4,21.6-59.9,18.4-81.3-7.9c-20.1-24.6-16.3-61,8.5-81.3c0.1-0.1,0.3-0.2,0.3-0.1l-9.8-12
				c-0.7,0.7-0.6,0.9-1.1,1.3c-30.7,25.1-35.6,72.1-10.7,102.6c26.2,32.1,70.3,36.4,102.6,10C1171.7-923,1171.9-922.9,1172.8-923.4z
				 M1098.4-1013.9c-19,15.6-22,43.6-6.6,62.4c13.9,17,38.6,25.5,62.5,6c0.1-0.1,0.3-0.2,0.3-0.1l-56-68.5
				C1098.6-1014.2,1098.5-1014,1098.4-1013.9z M1092.7-1127.7l132.6,65.4c0.9,0.4,1.7,1.2,2.3,1.9c0.6,0.7,1,1.6,1.2,2.5l35.4,140
				l92.6-75.7l-171.5-209.8L1092.7-1127.7z M1050.7-1093.4l171.5,209.8l30.6-25l-36.3-143.2l-135.2-66.6L1050.7-1093.4z"/>
		</g>
		<g>
			<path fill="#F69B7C" d="M298-1081.7v186.6c0,3.7-2.5,6.5-6.2,6.5H7.4c-3.7,0-7.4-2.8-7.4-6.5v-186.6c0-3.7,3.7-6.9,7.4-6.9h56.5
				c-0.1-1-0.3-1-0.3-1.6c0-49.4,37-86.5,86.1-86.5c46.6,0,86.1,39.6,86.1,86.5c0,0.6-0.2,0.5-0.3,1.5h56.5
				C295.5-1088.6,298-1085.4,298-1081.7z M76.6-1088.6h15.5c0,0-0.1-0.1-0.1-0.2c0-34.2,23.7-57.9,57.6-57.9c31.7,0,57.6,26,57.6,58
				c0,0.1-0.1,0.2-0.1,0.2h15.5c-0.1-1-0.3-1-0.3-1.6c0-39.7-33.3-73.1-72.7-73.1c-41.4,0-72.7,31.4-72.7,73.1
				C76.9-1089.5,76.7-1089.6,76.6-1088.6z M193.7-1088.8c0-24.6-19.8-44.5-44.2-44.5c-22,0-44.2,13.7-44.2,44.6
				c0,0.1-0.1,0.2-0.1,0.2h88.5C193.8-1088.6,193.7-1088.7,193.7-1088.8z M285-1021.1l-134.4,61.3c-0.9,0.4-1.8,0.6-2.8,0.6
				c-1,0-1.9-0.2-2.8-0.6L14-1021v119.4h271V-1021.1z M285-1075.6H14v39.8l133.8,62.5l137.2-62.6V-1075.6z"/>
			<path fill="#F69B7C" d="M349-1228.5l55,55c1.1,1.1,1.2,2.6,0.1,3.7l-83.8,83.8c-1.1,1.1-2.9,1.3-4,0.2l-55-55
				c-1.1-1.1-0.8-2.8,0.3-3.9l16.6-16.6c-0.7-0.7-0.5-0.3-0.7-0.5c-14.5-14.5-14.7-36.5-0.2-50.9c13.7-13.7,37.1-13.6,50.9,0.2
				c0.2,0.2-0.2-0.1,0.5,0.7l16.6-16.6C346.6-1229.6,347.9-1229.6,349-1228.5z M282-1165.1l4.6-4.6c0,0-0.1-0.1-0.2-0.1
				c-10.1-10.1-10.2-24.1-0.2-34.1c9.4-9.4,24.7-9.3,34.1,0.2c0,0,0.2,0.2,0.2,0.2l4.6-4.6c-0.7-0.7-0.5-0.3-0.7-0.5
				c-11.7-11.7-31.4-11.8-43-0.2c-12.2,12.2-12.1,30.7,0.2,43C281.7-1165.6,281.4-1165.9,282-1165.1z M316.4-1199.8
				c-7.2-7.2-19.1-7.4-26.2-0.2c-6.5,6.5-8.9,17.1,0.2,26.2c0,0,0.2,0.2,0.2,0.2l26.1-26.1C316.6-1199.7,316.4-1199.8,316.4-1199.8z
				 M363.3-1207.1l-21.6,57.8c-0.1,0.4-0.4,0.8-0.7,1.1c-0.3,0.3-0.6,0.5-1,0.6l-56.5,20.5l35.5,35.5l79.9-79.9L363.3-1207.1z
				 M347.2-1223.2l-79.9,79.9l11.8,11.8l57.9-21l22-58.9L347.2-1223.2z"/>
			<path fill="#F69B7C" d="M229.4-1333.4l55,55c1.1,1.1,1.2,2.6,0.1,3.7l-83.8,83.8c-1.1,1.1-2.9,1.3-4,0.2l-55-55
				c-1.1-1.1-0.8-2.8,0.3-3.9l16.6-16.6c-0.7-0.7-0.5-0.3-0.7-0.5c-14.5-14.5-14.7-36.5-0.2-50.9c13.7-13.7,37.1-13.6,50.9,0.2
				c0.2,0.2-0.2-0.1,0.5,0.7l16.6-16.6C227-1334.6,228.3-1334.5,229.4-1333.4z M162.5-1270l4.6-4.6c0,0-0.1-0.1-0.2-0.1
				c-10.1-10.1-10.2-24.1-0.2-34.1c9.4-9.4,24.7-9.2,34.1,0.2c0,0,0.2,0.2,0.2,0.2l4.6-4.6c-0.7-0.7-0.5-0.3-0.7-0.5
				c-11.7-11.7-31.4-11.8-43-0.2c-12.2,12.2-12.1,30.7,0.2,43C162.1-1270.6,161.8-1270.8,162.5-1270z M196.8-1304.7
				c-7.2-7.2-19.1-7.4-26.2-0.2c-6.5,6.5-8.9,17.1,0.2,26.2c0,0,0.2,0.2,0.2,0.2l26.1-26.1C197-1304.6,196.9-1304.7,196.8-1304.7z
				 M243.8-1312.1l-21.6,57.8c-0.1,0.4-0.4,0.8-0.7,1.1c-0.3,0.3-0.6,0.5-1,0.6l-56.5,20.5l35.5,35.5l79.9-79.9L243.8-1312.1z
				 M227.6-1328.2l-79.9,79.9l11.8,11.8l57.9-21l22-58.9L227.6-1328.2z"/>
			<path fill="#F69B7C" d="M229.4-1567.4l55,55c1.1,1.1,1.2,2.6,0.1,3.7l-83.8,83.8c-1.1,1.1-2.9,1.3-4,0.2l-55-55
				c-1.1-1.1-0.8-2.8,0.3-3.9l16.6-16.6c-0.7-0.7-0.5-0.3-0.7-0.5c-14.5-14.5-14.7-36.5-0.2-50.9c13.7-13.7,37.1-13.6,50.9,0.2
				c0.2,0.2-0.2-0.1,0.5,0.7l16.6-16.6C227-1568.6,228.3-1568.5,229.4-1567.4z M162.5-1504l4.6-4.6c0,0-0.1-0.1-0.2-0.1
				c-10.1-10.1-10.2-24.1-0.2-34.1c9.4-9.4,24.7-9.2,34.1,0.2c0,0,0.2,0.2,0.2,0.2l4.6-4.6c-0.7-0.7-0.5-0.3-0.7-0.5
				c-11.7-11.7-31.4-11.8-43-0.2c-12.2,12.2-12.1,30.7,0.2,43C162.1-1504.6,161.8-1504.8,162.5-1504z M196.8-1538.7
				c-7.2-7.2-19.1-7.4-26.2-0.2c-6.5,6.5-8.9,17.1,0.2,26.2c0,0,0.2,0.2,0.2,0.2l26.1-26.1C197-1538.6,196.9-1538.7,196.8-1538.7z
				 M243.8-1546.1l-21.6,57.8c-0.1,0.4-0.4,0.8-0.7,1.1c-0.3,0.3-0.6,0.5-1,0.6l-56.5,20.5l35.5,35.5l79.9-79.9L243.8-1546.1z
				 M227.6-1562.2l-79.9,79.9l11.8,11.8l57.9-21l22-58.9L227.6-1562.2z"/>
			<path fill="#F69B7C" d="M602.2-1184.6v109c0,2.2-1.8,3.2-4,3.2H432.1c-2.2,0-3.7-1.1-3.7-3.2v-109c0-2.2,1.5-4.1,3.7-4.1h33
				c-0.1-1.4-0.2-0.6-0.2-0.9c0-28.8,21.6-50.5,50.3-50.5c27.2,0,50.3,23.1,50.3,50.5c0,0.3-0.1-0.5-0.2,0.9h33
				C600.3-1188.7,602.2-1186.8,602.2-1184.6z M472.5-1188.7h9c0,0,0,0,0-0.1c0-19.9,13.8-33.8,33.6-33.8c18.5,0,33.6,15.2,33.6,33.8
				c0,0.1,0,0.1,0,0.1h9c-0.1-1.4-0.2-0.6-0.2-0.9c0-23.2-19.4-42.7-42.4-42.7c-24.2,0-42.4,18.3-42.4,42.7
				C472.7-1189.2,472.6-1190.1,472.5-1188.7z M540.9-1188.8c0-14.4-11.6-26-25.8-26c-12.8,0-25.8,8-25.8,26c0,0.1,0,0.1,0,0.1H541
				C541-1188.7,540.9-1188.7,540.9-1188.8z M595.1-1149.2l-78.8,35.8c-0.5,0.2-1.4,0.4-2,0.4c-0.6,0-0.9-0.1-1.5-0.4l-76.1-35.7
				v69.8h158.3V-1149.2z M595.1-1181.7H436.8v23.9l78.2,36.5l80.1-36.5V-1181.7z"/>
			<path fill="#F69B7C" d="M456-1020.7v77.8c0,1.5-1.3,2.3-2.8,2.3H334.6c-1.5,0-2.6-0.8-2.6-2.3v-77.8c0-1.5,1.1-2.9,2.6-2.9h23.5
				c-0.1-1-0.1-0.4-0.1-0.6c0-20.6,15.4-36,35.9-36c19.4,0,35.9,16.5,35.9,36.1c0,0.2-0.1-0.4-0.1,0.6h23.5
				C454.7-1023.6,456-1022.2,456-1020.7z M363.5-1023.6h6.5c0,0,0,0,0-0.1c0-14.2,9.9-24.1,24-24.1c13.2,0,24,10.8,24,24.1
				c0,0,0,0.1,0,0.1h6.5c-0.1-1-0.1-0.4-0.1-0.6c0-16.5-13.9-30.5-30.3-30.5c-17.3,0-30.3,13.1-30.3,30.5
				C363.6-1024,363.5-1024.6,363.5-1023.6z M412.3-1023.7c0-10.3-8.3-18.5-18.4-18.5c-9.2,0-18.4,5.7-18.4,18.6c0,0,0,0.1,0,0.1
				L412.3-1023.7C412.3-1023.6,412.3-1023.6,412.3-1023.7z M451-995.4l-56.3,25.6c-0.4,0.2-1,0.3-1.4,0.3c-0.4,0-0.7-0.1-1-0.3
				L338-995.4v49.8h113V-995.4z M451-1018.6H338v17l55.8,26.1l57.2-26.1V-1018.6z"/>
			<path fill="#F69B7C" d="M272-1456.9L416.5-1575c2.9-2.3,7.1-1.9,9.4,1l180,220.2c2.3,2.9,2,7.2-0.8,9.6l-144.5,118.1
				c-2.9,2.3-7.2,1.8-9.5-1.1l-35.7-43.7c-0.7,0.7-0.6,0.9-1.1,1.3c-38.2,31.2-90.5,26.1-121.5-11.9
				c-29.5-36.1-23.8-91.7,12.6-121.4c0.5-0.4,0.6-0.3,1.5-0.8l-35.7-43.7C268.7-1450.4,269.1-1454.6,272-1456.9z M407.2-1280.9
				l-9.8-12c0,0-0.1,0.2-0.2,0.2c-26.4,21.6-59.9,18.4-81.3-7.9c-20.1-24.6-16.3-61,8.5-81.3c0.1-0.1,0.3-0.2,0.3-0.1l-9.8-12
				c-0.7,0.7-0.6,0.9-1.1,1.3c-30.7,25.1-35.6,72.1-10.7,102.6c26.2,32.1,70.3,36.4,102.6,10
				C406.2-1280.5,406.3-1280.3,407.2-1280.9z M332.8-1371.4c-19,15.6-22,43.6-6.6,62.4c13.9,17,38.6,25.5,62.5,6
				c0.1-0.1,0.3-0.2,0.3-0.1l-56-68.5C333-1371.6,332.9-1371.5,332.8-1371.4z M327.1-1485.2l132.6,65.4c0.9,0.4,1.7,1.2,2.3,1.9
				c0.6,0.7,1,1.6,1.2,2.5l35.4,140l92.6-75.7L419.8-1561L327.1-1485.2z M285.1-1450.9L456.6-1241l30.6-25l-36.3-143.2l-135.2-66.6
				L285.1-1450.9z"/>
		</g>
		<g>
			<path fill="#F69B7C" d="M1063.6-1439.1v186.6c0,3.7-2.5,6.5-6.2,6.5H772.9c-3.7,0-7.4-2.8-7.4-6.5v-186.6c0-3.7,3.7-6.9,7.4-6.9
				h56.5c-0.1-1-0.3-1-0.3-1.6c0-49.4,37-86.5,86.1-86.5c46.6,0,86.1,39.6,86.1,86.5c0,0.6-0.2,0.5-0.3,1.5h56.5
				C1061-1446.1,1063.6-1442.8,1063.6-1439.1z M842.1-1446.1h15.5c0,0-0.1-0.1-0.1-0.2c0-34.2,23.7-57.9,57.6-57.9
				c31.7,0,57.6,26,57.6,58c0,0.1-0.1,0.2-0.1,0.2h15.5c-0.1-1-0.3-1-0.3-1.6c0-39.7-33.3-73.1-72.7-73.1
				c-41.4,0-72.7,31.4-72.7,73.1C842.5-1447,842.3-1447.1,842.1-1446.1z M959.3-1446.3c0-24.6-19.8-44.5-44.2-44.5
				c-22,0-44.2,13.7-44.2,44.6c0,0.1-0.1,0.2-0.1,0.2h88.5C959.4-1446.1,959.3-1446.2,959.3-1446.3z M1050.6-1378.6l-134.4,61.3
				c-0.9,0.4-1.8,0.6-2.8,0.6c-1,0-1.9-0.2-2.8-0.6l-131-61.2v119.4h271V-1378.6z M1050.6-1433.1h-271v39.8l133.8,62.5l137.2-62.6
				V-1433.1z"/>
			<path fill="#F69B7C" d="M1114.6-1586l55,55c1.1,1.1,1.2,2.6,0.1,3.7l-83.8,83.8c-1.1,1.1-2.9,1.3-4,0.2l-55-55
				c-1.1-1.1-0.8-2.8,0.3-3.9l16.6-16.6c-0.7-0.7-0.5-0.3-0.7-0.5c-14.5-14.5-14.7-36.5-0.2-50.9c13.7-13.7,37.1-13.6,50.9,0.2
				c0.2,0.2-0.2-0.1,0.5,0.7l16.6-16.6C1112.1-1587.1,1113.5-1587.1,1114.6-1586z M1047.6-1522.6l4.6-4.6c0,0-0.1-0.1-0.2-0.1
				c-10.1-10.1-10.2-24.1-0.2-34.1c9.4-9.4,24.7-9.3,34.1,0.2c0,0,0.2,0.2,0.2,0.2l4.6-4.6c-0.7-0.7-0.5-0.3-0.7-0.5
				c-11.7-11.7-31.4-11.8-43-0.2c-12.2,12.2-12.1,30.7,0.2,43C1047.3-1523.1,1047-1523.3,1047.6-1522.6z M1082-1557.3
				c-7.2-7.2-19.1-7.4-26.2-0.2c-6.5,6.5-8.9,17.1,0.2,26.2c0,0,0.2,0.2,0.2,0.2l26.1-26.1C1082.2-1557.1,1082-1557.2,1082-1557.3z
				 M1128.9-1564.6l-21.6,57.8c-0.1,0.4-0.4,0.8-0.7,1.1c-0.3,0.3-0.6,0.5-1,0.6l-56.5,20.5l35.5,35.5l79.9-79.9L1128.9-1564.6z
				 M1112.8-1580.7l-79.9,79.9l11.8,11.8l57.9-21l22-58.9L1112.8-1580.7z"/>
			<path fill="#F69B7C" d="M995-1690.9l55,55c1.1,1.1,1.2,2.6,0.1,3.7l-83.8,83.8c-1.1,1.1-2.9,1.3-4,0.2l-55-55
				c-1.1-1.1-0.8-2.8,0.3-3.9l16.6-16.6c-0.7-0.7-0.5-0.3-0.7-0.5c-14.5-14.5-14.7-36.5-0.2-50.9c13.7-13.7,37.1-13.6,50.9,0.2
				c0.2,0.2-0.2-0.1,0.5,0.7l16.6-16.6C992.5-1692,993.9-1692,995-1690.9z M928-1627.5l4.6-4.6c0,0-0.1-0.1-0.2-0.1
				c-10.1-10.1-10.2-24.1-0.2-34.1c9.4-9.4,24.7-9.2,34.1,0.2c0,0,0.2,0.2,0.2,0.2l4.6-4.6c-0.7-0.7-0.5-0.3-0.7-0.5
				c-11.7-11.7-31.4-11.8-43-0.2c-12.2,12.2-12.1,30.7,0.2,43C927.7-1628,927.4-1628.3,928-1627.5z M962.4-1662.2
				c-7.2-7.2-19.1-7.4-26.2-0.2c-6.5,6.5-8.9,17.1,0.2,26.2c0,0,0.2,0.2,0.2,0.2l26.1-26.1C962.6-1662.1,962.4-1662.2,962.4-1662.2z
				 M1009.3-1669.5l-21.6,57.8c-0.1,0.4-0.4,0.8-0.7,1.1c-0.3,0.3-0.6,0.5-1,0.6l-56.5,20.5l35.5,35.5l79.9-79.9L1009.3-1669.5z
				 M993.2-1685.6l-79.9,79.9l11.8,11.8l57.9-21l22-58.9L993.2-1685.6z"/>
			<path fill="#F69B7C" d="M811.6-1536.1v77.8c0,1.5-1.3,2.3-2.8,2.3H690.2c-1.5,0-2.6-0.8-2.6-2.3v-77.8c0-1.5,1.1-2.9,2.6-2.9
				h23.5c-0.1-1-0.1-0.4-0.1-0.6c0-20.6,15.4-36,35.9-36c19.4,0,35.9,16.5,35.9,36.1c0,0.2-0.1-0.4-0.1,0.6h23.5
				C810.3-1539.1,811.6-1537.7,811.6-1536.1z M719.1-1539.1h6.5c0,0,0,0,0-0.1c0-14.2,9.9-24.1,24-24.1c13.2,0,24,10.8,24,24.1
				c0,0,0,0.1,0,0.1h6.5c-0.1-1-0.1-0.4-0.1-0.6c0-16.5-13.9-30.5-30.3-30.5c-17.3,0-30.3,13.1-30.3,30.5
				C719.2-1539.4,719.1-1540.1,719.1-1539.1z M767.9-1539.1c0-10.3-8.3-18.5-18.4-18.5c-9.2,0-18.4,5.7-18.4,18.6c0,0,0,0.1,0,0.1
				L767.9-1539.1C767.9-1539.1,767.9-1539.1,767.9-1539.1z M806.6-1510.9l-56.3,25.6c-0.4,0.2-1,0.3-1.4,0.3c-0.4,0-0.7-0.1-1-0.3
				l-54.3-25.5v49.8h113V-1510.9z M806.6-1534.1h-113v17l55.8,26.1l57.2-26.1V-1534.1z"/>
			<path fill="#F69B7C" d="M663.3-1413.9h77.8c1.5,0,2.3,1.3,2.3,2.8v118.5c0,1.5-0.8,2.6-2.3,2.6h-77.8c-1.5,0-2.9-1.1-2.9-2.6
				v-23.5c-1,0.1-0.4,0.1-0.6,0.1c-20.6,0-36-15.4-36-35.9c0-19.4,16.5-35.9,36.1-35.9c0.2,0-0.4,0.1,0.6,0.1v-23.5
				C660.4-1412.6,661.8-1413.9,663.3-1413.9z M660.4-1321.4v-6.5c0,0,0,0-0.1,0c-14.2,0-24.1-9.9-24.1-24c0-13.2,10.8-24,24.1-24
				c0,0,0.1,0,0.1,0v-6.5c-1,0.1-0.4,0.1-0.6,0.1c-16.5,0-30.5,13.9-30.5,30.3c0,17.3,13.1,30.3,30.5,30.3
				C660-1321.5,659.4-1321.4,660.4-1321.4z M660.3-1370.2c-10.3,0-18.5,8.3-18.5,18.4c0,9.2,5.7,18.4,18.6,18.4c0,0,0.1,0,0.1,0
				L660.3-1370.2C660.4-1370.2,660.4-1370.2,660.3-1370.2z M688.6-1408.9l25.6,56.3c0.2,0.4,0.3,1,0.3,1.4c0,0.4-0.1,0.7-0.3,1
				l-25.5,54.3h49.8v-113H688.6z M665.4-1408.9v113h17l26.1-55.8l-26.1-57.2H665.4z"/>
			<path fill="#F69B7C" d="M529.5-1511.6v-77.8c0-1.5,1.3-2.3,2.8-2.3h118.5c1.5,0,2.6,0.8,2.6,2.3v77.8c0,1.5-1.1,2.9-2.6,2.9
				h-23.5c0.1,1,0.1,0.4,0.1,0.6c0,20.6-15.4,36-35.9,36c-19.4,0-35.9-16.5-35.9-36.1c0-0.2,0.1,0.4,0.1-0.6h-23.5
				C530.8-1508.6,529.5-1510,529.5-1511.6z M622-1508.6h-6.5c0,0,0,0,0,0.1c0,14.2-9.9,24.1-24,24.1c-13.2,0-24-10.8-24-24.1
				c0,0,0-0.1,0-0.1h-6.5c0.1,1,0.1,0.4,0.1,0.6c0,16.5,13.9,30.5,30.3,30.5c17.3,0,30.3-13.1,30.3-30.5
				C621.9-1508.3,621.9-1507.6,622-1508.6z M573.2-1508.6c0,10.3,8.3,18.5,18.4,18.5c9.2,0,18.4-5.7,18.4-18.6c0,0,0-0.1,0-0.1
				L573.2-1508.6C573.1-1508.6,573.2-1508.6,573.2-1508.6z M534.5-1536.8l56.3-25.6c0.4-0.2,1-0.3,1.4-0.3c0.4,0,0.7,0.1,1,0.3
				l54.3,25.5v-49.8h-113V-1536.8z M534.5-1513.6h113v-17l-55.8-26.1l-57.2,26.1V-1513.6z"/>
			<path fill="#F69B7C" d="M1367.7-1542.1v109c0,2.2-1.8,3.2-4,3.2h-166.1c-2.2,0-3.7-1.1-3.7-3.2v-109c0-2.2,1.5-4.1,3.7-4.1h33
				c-0.1-1.4-0.2-0.6-0.2-0.9c0-28.8,21.6-50.5,50.3-50.5c27.2,0,50.3,23.1,50.3,50.5c0,0.3-0.1-0.5-0.2,0.9h33
				C1365.9-1546.2,1367.7-1544.2,1367.7-1542.1z M1238.1-1546.2h9c0,0,0,0,0-0.1c0-19.9,13.8-33.8,33.6-33.8
				c18.5,0,33.6,15.2,33.6,33.8c0,0.1,0,0.1,0,0.1h9c-0.1-1.4-0.2-0.6-0.2-0.9c0-23.2-19.4-42.7-42.4-42.7
				c-24.2,0-42.4,18.3-42.4,42.7C1238.3-1546.7,1238.2-1547.6,1238.1-1546.2z M1306.5-1546.3c0-14.4-11.6-26-25.8-26
				c-12.8,0-25.8,8-25.8,26c0,0.1,0,0.1,0,0.1h51.7C1306.5-1546.2,1306.5-1546.2,1306.5-1546.3z M1360.7-1506.7l-78.8,35.8
				c-0.5,0.2-1.4,0.4-2,0.4c-0.6,0-0.9-0.1-1.5-0.4l-76.1-35.7v69.8h158.3V-1506.7z M1360.7-1539.1h-158.3v23.9l78.2,36.5l80.1-36.5
				V-1539.1z"/>
			<path fill="#F69B7C" d="M1221.6-1378.1v77.8c0,1.5-1.3,2.3-2.8,2.3h-118.5c-1.5,0-2.6-0.8-2.6-2.3v-77.8c0-1.5,1.1-2.9,2.6-2.9
				h23.5c-0.1-1-0.1-0.4-0.1-0.6c0-20.6,15.4-36,35.9-36c19.4,0,35.9,16.5,35.9,36.1c0,0.2-0.1-0.4-0.1,0.6h23.5
				C1220.3-1381.1,1221.6-1379.7,1221.6-1378.1z M1129.1-1381.1h6.5c0,0,0,0,0-0.1c0-14.2,9.9-24.1,24-24.1c13.2,0,24,10.8,24,24.1
				c0,0,0,0.1,0,0.1h6.5c-0.1-1-0.1-0.4-0.1-0.6c0-16.5-13.9-30.5-30.3-30.5c-17.3,0-30.3,13.1-30.3,30.5
				C1129.2-1381.4,1129.1-1382.1,1129.1-1381.1z M1177.9-1381.1c0-10.3-8.3-18.5-18.4-18.5c-9.2,0-18.4,5.7-18.4,18.6
				c0,0,0,0.1,0,0.1L1177.9-1381.1C1177.9-1381.1,1177.9-1381.1,1177.9-1381.1z M1216.6-1352.9l-56.3,25.6c-0.4,0.2-1,0.3-1.4,0.3
				c-0.4,0-0.7-0.1-1-0.3l-54.3-25.5v49.8h113V-1352.9z M1216.6-1376.1h-113v17l55.8,26.1l57.2-26.1V-1376.1z"/>
			<path fill="#F69B7C" d="M696.8-1575.4l-132-132c-2.6-2.6-2.6-6.9,0-9.5L766-1918c2.6-2.6,7-2.7,9.6-0.1l132,132
				c2.6,2.6,2.5,7-0.1,9.6l-39.9,39.9c0.8,0.6,1,0.5,1.4,0.9c34.9,34.9,35.1,87.4,0.4,122.1c-33,33-88.9,32.8-122.1-0.4
				c-0.4-0.4-0.3-0.6-0.9-1.4l-39.9,39.9C703.7-1572.8,699.5-1572.8,696.8-1575.4z M858.5-1727.6l-11,11c0,0,0.2,0.1,0.3,0.2
				c24.2,24.2,24.3,57.8,0.3,81.7c-22.4,22.4-59.1,22.3-81.7-0.3c-0.1-0.1-0.2-0.3-0.2-0.3l-11,11c0.8,0.6,1,0.5,1.4,0.9
				c28,28,75.3,28.2,103.1,0.4c29.3-29.3,29.1-73.6-0.4-103.1C859-1726.6,859.1-1726.8,858.5-1727.6z M775.9-1644.5
				c17.4,17.4,45.6,17.5,62.8,0.3c15.5-15.5,21.5-41-0.3-62.8c-0.1-0.1-0.2-0.3-0.2-0.3l-62.5,62.5
				C775.6-1644.7,775.8-1644.6,775.9-1644.5z M663.2-1627.4l51.8-138.5c0.3-0.9,1-1.8,1.6-2.5c0.7-0.7,1.4-1.1,2.4-1.5l135.7-49.2
				l-84.6-84.6l-191.6,191.6L663.2-1627.4z M701.6-1589.1l191.6-191.6l-28-28l-138.9,50.4L673.6-1617L701.6-1589.1z"/>
			<path fill="#F69B7C" d="M1037.5-1814.4l144.5-118.1c2.9-2.3,7.1-1.9,9.4,1l180,220.2c2.3,2.9,2,7.2-0.8,9.6l-144.5,118.1
				c-2.9,2.3-7.2,1.8-9.5-1.1l-35.7-43.7c-0.7,0.7-0.6,0.9-1.1,1.3c-38.2,31.2-90.5,26.1-121.5-11.9
				c-29.5-36.1-23.8-91.7,12.6-121.4c0.5-0.4,0.6-0.3,1.5-0.8l-35.7-43.7C1034.3-1807.8,1034.7-1812.1,1037.5-1814.4z
				 M1172.8-1638.3l-9.8-12c0,0-0.1,0.2-0.2,0.2c-26.4,21.6-59.9,18.4-81.3-7.9c-20.1-24.6-16.3-61,8.5-81.3
				c0.1-0.1,0.3-0.2,0.3-0.1l-9.8-12c-0.7,0.7-0.6,0.9-1.1,1.3c-30.7,25.1-35.6,72.1-10.7,102.6c26.2,32.1,70.3,36.4,102.6,10
				C1171.7-1637.9,1171.9-1637.8,1172.8-1638.3z M1098.4-1728.9c-19,15.6-22,43.6-6.6,62.4c13.9,17,38.6,25.5,62.5,6
				c0.1-0.1,0.3-0.2,0.3-0.1l-56-68.5C1098.6-1729.1,1098.5-1728.9,1098.4-1728.9z M1092.7-1842.7l132.6,65.4
				c0.9,0.4,1.7,1.2,2.3,1.9c0.6,0.7,1,1.6,1.2,2.5l35.4,140l92.6-75.7l-171.5-209.8L1092.7-1842.7z M1050.7-1808.3l171.5,209.8
				l30.6-25l-36.3-143.2l-135.2-66.6L1050.7-1808.3z"/>
		</g>
	</g>
</pattern>
<pattern  id="SVGID_1_" xlink:href="#New_Pattern_4" patternTransform="matrix(1 0 0 1 516.3701 642.0642)">
</pattern>
<rect x="0" fill="url(#SVGID_1_)" width="762.1" height="560"/>
</svg>
