<?xml version="1.0" encoding="utf-8"?>
<!-- Generator: Adobe Illustrator 19.2.0, SVG Export Plug-In . SVG Version: 6.00 Build 0)  -->
<svg version="1.1" id="Layer_1" xmlns="http://www.w3.org/2000/svg" xmlns:xlink="http://www.w3.org/1999/xlink" x="0px" y="0px"
	 viewBox="0 0 100 30" enable-background="new 0 0 100 30" xml:space="preserve">
<g>
	<g>
		<path d="M38.4,22.9v3.5h-0.8v-3.5H38.4z"/>
		<path d="M42.4,22.9h0.8v3.5h-0.7l-1.7-2.2v2.2h-0.8v-3.5h0.7l1.7,2.2V22.9z"/>
		<path d="M46.4,26.4h-0.8v-2.8h-1.1v-0.7h2.9v0.7h-1.1V26.4z"/>
		<path d="M51.4,23.6h-1.9v0.7h1.7V25h-1.7v0.7h1.9v0.7h-2.7v-3.5h2.7V23.6z"/>
		<path d="M55.1,26.4l-0.8-1.1h-0.6v1.1h-0.8v-3.5h1.6c0.8,0,1.3,0.4,1.3,1.2c0,0.6-0.3,0.9-0.8,1.1l0.9,1.3H55.1z M54.5,23.6h-0.8
			v1h0.8c0.4,0,0.6-0.2,0.6-0.5C55.1,23.8,54.9,23.6,54.5,23.6z"/>
		<path d="M59.8,22.9h0.8v3.5h-0.7l-1.7-2.2v2.2h-0.8v-3.5h0.7l1.7,2.2V22.9z"/>
		<path d="M65.5,26.4h-0.8l-0.3-0.8h-1.5l-0.3,0.8h-0.8l1.5-3.6H64L65.5,26.4z M63.7,23.8l-0.5,1.1h0.9L63.7,23.8z"/>
		<path d="M68,26.4h-0.8v-2.8h-1.1v-0.7h2.9v0.7H68V26.4z"/>
		<path d="M71.2,22.9v3.5h-0.8v-3.5H71.2z"/>
		<path d="M74.6,26.5c-1.1,0-1.9-0.8-1.9-1.8c0-1,0.8-1.8,1.9-1.8c1.1,0,1.9,0.8,1.9,1.8C76.4,25.7,75.6,26.5,74.6,26.5z M74.6,23.5
			c-0.6,0-1.1,0.5-1.1,1.1c0,0.6,0.4,1.1,1.1,1.1c0.6,0,1.1-0.5,1.1-1.1C75.6,24.1,75.2,23.5,74.6,23.5z"/>
		<path d="M80.3,22.9H81v3.5h-0.7l-1.7-2.2v2.2h-0.8v-3.5h0.7l1.7,2.2V22.9z"/>
		<path d="M86.1,26.4h-0.8l-0.3-0.8h-1.5l-0.3,0.8h-0.8l1.5-3.6h0.7L86.1,26.4z M84.2,23.8l-0.5,1.1h0.9L84.2,23.8z"/>
		<path d="M87.3,22.9h0.8v2.8h1.8v0.7h-2.5V22.9z"/>
	</g>
	<path d="M47.5,19.6v-0.5c-0.6,0.6-1.5,1-2.5,1c-2.2,0-3.9-1.5-3.9-3.4c0-2.5,2.2-3.4,4.4-3.4c0.9,0,1.6,0.1,2,0.2v-0.6
		c0-1.1-1.4-1.7-2.1-1.7c-1.2,0-1.8,0.2-2.5,0.8l-1.5-1.7c1.2-1,2.6-1.3,4-1.3c3,0,4.3,2,4.3,4.1v6.5H47.5z M47.5,15.5
		c-0.4-0.1-1.2-0.3-2.1-0.3c-1.5,0-2.2,0.6-2.2,1.4c0,0.4,0.7,1.3,1.8,1.3c1,0,2.1-0.4,2.5-1.6V15.5z"/>
	<path d="M58.6,19.6v-5.1c0-1.6-0.4-3.3-2.1-3.3c-0.9,0-1.7,0.5-2.3,1.9v6.5H52V9.5h2.2v0.7C55,9.4,55.9,9,56.6,9
		c3.1,0,4.3,2.1,4.3,5.1v5.5H58.6z"/>
	<path d="M62.6,14.4c0-3.1,2.1-5.4,5.2-5.4c0.8,0,1.9,0.4,2.7,1.1V3.5h2.2v16h-2.2v-0.7C69.8,19.6,69,20,67.8,20
		C64.7,20,62.6,17.5,62.6,14.4z M65,14.4c0,1.7,1,3.5,2.8,3.5c0.9,0,2.9-0.7,2.9-3.5c0-2.4-1.9-3.3-2.9-3.3C66,11.1,65,13,65,14.4z"
		/>
	<g>
		<path d="M75.9,6c0.7,0,1.3,0.6,1.3,1.3s-0.6,1.3-1.3,1.3s-1.3-0.6-1.3-1.3S75.1,6,75.9,6z M81.2,13c0.7-1.4,1.5-1.9,2.3-1.9
			c1.6,0,2.1,1.7,2.1,3.3v5.1h2.2V14c0-3-1.1-5.1-4.3-5.1c-0.7,0-1.6,0.4-2.3,1.1V9.5H79v7.3c0,0.6-0.5,1.1-1.1,1.1
			c-0.6,0-1.1-0.5-1.1-1.1V9.5h-2.2v7.3c0,1.8,1.5,3.3,3.3,3.3c1.8,0,3.3-1.5,3.3-3.3V13z"/>
	</g>
	<path d="M39.4,17.8c-0.6,0-1.1-0.5-1.1-1.1V3.5h-2.2v13.2c0,1.8,1.5,3.3,3.3,3.3V17.8z"/>
	<g>
		<path d="M100,9h-6v0c0,0,0,0,0,0h0c-1.4,0-2.7,0.6-3.6,1.6c-0.9,0.9-1.3,2.2-1.3,3.6c0,2.8,2.2,5.1,4.9,5.1c0,0,0,0,0.1,0
			c0.7,0,1.3,0.3,1.8,0.7c0.5,0.5,0.7,1.1,0.7,1.8c0,0.7-0.3,1.3-0.7,1.8c-0.3,0.3-0.9,0.7-1.8,0.8h-2.3v2.4H94v0h0c0,0,0,0,0,0h0.2
			v0c1.3,0,2.5-0.6,3.4-1.5c0.9-0.9,1.4-2.2,1.4-3.5c0-1.3-0.5-2.6-1.4-3.5c-0.1-0.1-0.2-0.2-0.3-0.3c0.1-0.1,0.3-0.2,0.4-0.4
			c0.9-1,1.3-2.2,1.3-3.5c0-1-0.3-2-0.8-2.8h1.8V9z M94.1,17.2c-1,0-2.6-0.8-2.6-3c0-2.6,1.8-3.2,2.6-3.2c1.6,0,2.5,1.7,2.5,3.2
			C96.6,15.5,95.7,17.2,94.1,17.2z"/>
	</g>
</g>
<g>
	<circle cx="13.9" cy="8.5" r="1.5"/>
</g>
<path d="M11.5,2.2C5.2,2.2,0,7.4,0,13.7C0,20,5.2,25.2,11.5,25.2C17.8,25.2,23,20,23,13.7C23,7.4,17.8,2.2,11.5,2.2z M11.5,4.7
	c5,0,9,4,9,9c0,1.2-0.2,2.3-0.7,3.4h-4.7v-5.7h-2.5v5.7h-2.3V7.4H7.8v9.7H3.1c-0.4-1-0.7-2.2-0.7-3.4C2.5,8.7,6.5,4.7,11.5,4.7z
	 M11.5,22.7c-2.7,0-5.2-1.2-6.8-3.1h13.7C16.7,21.5,14.2,22.7,11.5,22.7z"/>
</svg>
