<?xml version="1.0" encoding="UTF-8" standalone="no"?>
<svg width="37px" height="37px" viewBox="0 0 37 37" version="1.1" xmlns="http://www.w3.org/2000/svg" xmlns:xlink="http://www.w3.org/1999/xlink" xmlns:sketch="http://www.bohemiancoding.com/sketch/ns">
    <!-- Generator: Sketch 3.4.4 (17249) - http://www.bohemiancoding.com/sketch -->
    <title>Facebook</title>
    <desc>Created with Sketch.</desc>
    <defs></defs>
    <g id="Landing-1" stroke="none" stroke-width="1" fill="none" fill-rule="evenodd" sketch:type="MSPage">
        <g id="FRONT-PAGE-1024-v2.2-Copy" sketch:type="MSArtboardGroup" transform="translate(-747.000000, -2625.000000)" fill="#8E99A8">
            <g id="Group" sketch:type="MSLayerGroup" transform="translate(1.000000, 100.000000)">
                <g id="FOOTER" transform="translate(36.000000, 2448.000000)" sketch:type="MSShapeGroup">
                    <g id="Group" transform="translate(642.000000, 77.000000)">
                        <path d="M104.711,34.685 C104.711,35.804 103.804,36.712 102.685,36.712 L93.33,36.712 L93.33,22.495 L98.102,22.495 L98.817,16.955 L93.33,16.955 L93.33,13.417 C93.33,11.813 93.776,10.72 96.076,10.72 L99.01,10.719 L99.01,5.763 C98.502,5.696 96.761,5.545 94.735,5.545 C90.505,5.545 87.609,8.127 87.609,12.869 L87.609,16.955 L82.825,16.955 L82.825,22.495 L87.609,22.495 L87.609,36.712 L70.026,36.712 C68.907,36.712 68,35.804 68,34.685 L68,2.027 C68,0.907 68.907,0 70.026,0 L102.685,0 C103.804,0 104.711,0.907 104.711,2.027 L104.711,34.685" id="Facebook"></path>
                    </g>
                </g>
            </g>
        </g>
    </g>
</svg>