<?xml version="1.0" encoding="UTF-8" standalone="no"?>
<svg width="41px" height="26px" viewBox="0 0 41 26" version="1.1" xmlns="http://www.w3.org/2000/svg" xmlns:xlink="http://www.w3.org/1999/xlink" xmlns:sketch="http://www.bohemiancoding.com/sketch/ns">
    <!-- Generator: Sketch 3.4.4 (17249) - http://www.bohemiancoding.com/sketch -->
    <title>Google+</title>
    <desc>Created with Sketch.</desc>
    <defs></defs>
    <g id="Landing-1" stroke="none" stroke-width="1" fill="none" fill-rule="evenodd" sketch:type="MSPage">
        <g id="FRONT-PAGE-1024-v2.2-Copy" sketch:type="MSArtboardGroup" transform="translate(-679.000000, -2630.000000)" fill="#8E99A8">
            <g id="Group" sketch:type="MSLayerGroup" transform="translate(1.000000, 100.000000)">
                <g id="FOOTER" transform="translate(36.000000, 2448.000000)" sketch:type="MSShapeGroup">
                    <g id="Group" transform="translate(642.000000, 77.000000)">
                        <path d="M12.817,15.297 L12.817,20.382 C12.817,20.382 17.741,20.375 19.746,20.375 C18.66,23.672 16.972,25.467 12.817,25.467 C8.612,25.467 5.33,22.052 5.33,17.839 C5.33,13.627 8.612,10.212 12.817,10.212 C15.04,10.212 16.476,10.995 17.793,12.086 C18.847,11.03 18.759,10.879 21.441,8.341 C19.164,6.265 16.138,5 12.817,5 C5.739,5 0,10.748 0,17.839 C0,24.93 5.739,30.679 12.817,30.679 C23.397,30.679 25.983,21.45 25.126,15.297 L12.817,15.297 Z M35.912,15.551 L35.912,11.102 L32.74,11.102 L32.74,15.551 L28.171,15.551 L28.171,18.729 L32.74,18.729 L32.74,23.306 L35.912,23.306 L35.912,18.729 L40.353,18.729 L40.353,15.551 L35.912,15.551 Z" id="Google+"></path>
                    </g>
                </g>
            </g>
        </g>
    </g>
</svg>