<?xml version="1.0" encoding="UTF-8" standalone="no"?>
<svg width="37px" height="34px" viewBox="0 0 37 34" version="1.1" xmlns="http://www.w3.org/2000/svg" xmlns:xlink="http://www.w3.org/1999/xlink" xmlns:sketch="http://www.bohemiancoding.com/sketch/ns">
    <!-- Generator: Sketch 3.4.4 (17249) - http://www.bohemiancoding.com/sketch -->
    <title>Fill 88</title>
    <desc>Created with Sketch.</desc>
    <defs></defs>
    <g id="Landing-1" stroke="none" stroke-width="1" fill="none" fill-rule="evenodd" sketch:type="MSPage">
        <g id="FRONT-PAGE-1024-v2.2-Copy" sketch:type="MSArtboardGroup" transform="translate(-811.000000, -2626.000000)" fill="#8E99A8">
            <g id="Group" sketch:type="MSLayerGroup" transform="translate(1.000000, 100.000000)">
                <g id="FOOTER" transform="translate(36.000000, 2448.000000)" sketch:type="MSShapeGroup">
                    <g id="Group" transform="translate(642.000000, 77.000000)">
                        <path d="M132.93,11.754 L140.12,11.754 L140.12,34.536 L132.93,34.536 L132.93,11.754 Z M159.765,11.535 C155.646,11.535 153.065,13.766 152.588,15.33 L152.588,11.754 L144.511,11.754 C144.615,13.653 144.511,34.536 144.511,34.536 L152.588,34.536 L152.588,22.208 C152.588,21.523 152.556,20.838 152.764,20.346 C153.319,18.976 154.512,17.555 156.657,17.555 C159.462,17.555 160.737,19.661 160.737,22.747 L160.737,34.536 L168.89,34.536 L168.89,21.869 C168.89,14.812 164.875,11.535 159.765,11.535 Z M136.392,1 C133.737,1 132,2.705 132,4.955 C132,7.163 133.688,8.905 136.29,8.905 L136.342,8.905 C139.045,8.905 140.728,7.157 140.728,4.949 C140.676,2.701 139.045,1 136.392,1 Z" id="Fill-88"></path>
                    </g>
                </g>
            </g>
        </g>
    </g>
</svg>