<?xml version="1.0" encoding="UTF-8" standalone="no"?>
<svg width="32px" height="32px" viewBox="0 0 32 32" version="1.1" xmlns="http://www.w3.org/2000/svg" xmlns:xlink="http://www.w3.org/1999/xlink" xmlns:sketch="http://www.bohemiancoding.com/sketch/ns">
    <!-- Generator: Sketch 3.4.4 (17249) - http://www.bohemiancoding.com/sketch -->
    <title>USER ICON</title>
    <desc>Created with Sketch.</desc>
    <defs></defs>
    <g id="Landing-1" stroke="none" stroke-width="1" fill="none" fill-rule="evenodd" sketch:type="MSPage">
        <g id="FRONT-PAGE-1024-v2.2-Copy" sketch:type="MSArtboardGroup" transform="translate(-952.000000, -12.000000)">
            <g id="Landing-/-Header-v2" sketch:type="MSLayerGroup" transform="translate(29.000000, 14.000000)">
                <g id="USER-ICON" transform="translate(925.000000, 0.000000)" sketch:type="MSShapeGroup">
                    <path d="M23.7638685,4.23612 C29.1563348,9.62855945 29.1563348,18.3714252 23.7638685,23.7638685 C18.3714252,29.1563363 9.62855945,29.1563363 4.23612,23.7638685 C-1.15635014,18.3714252 -1.15635014,9.62855945 4.23612,4.23612 C9.62855945,-1.15635014 18.3714252,-1.15635014 23.7638685,4.23612" id="Fill-1" fill="#FFFFFF"></path>
                    <path d="M23.7638685,23.7638685 C18.3714137,29.1563233 9.62854795,29.1563233 4.23613151,23.7638685 C-1.15636164,18.3714137 -1.15636164,9.62854795 4.23613151,4.23613151 C9.62854795,-1.15636164 18.3714137,-1.15636164 23.7638685,4.23613151 C29.1563233,9.62854795 29.1563233,18.3714137 23.7638685,23.7638685 Z" id="Stroke-3" stroke="#000000" stroke-width="3" stroke-linecap="round" stroke-linejoin="round"></path>
                    <path d="M15.6343638,8.34064 C16.5780444,9.28431671 16.5780444,10.8143173 15.6343638,11.757994 C14.6906871,12.7016745 13.1606827,12.7016745 12.217006,11.757994 C11.2733255,10.8143173 11.2733255,9.28431671 12.217006,8.34064 C13.1606827,7.39695562 14.6906871,7.39695562 15.6343638,8.34064" id="Fill-4" fill="#000000"></path>
                    <path d="M15.6343562,8.34062466 C16.5780329,9.28430137 16.5780329,10.8143288 15.6343562,11.7580055 C14.6906795,12.7016822 13.1606904,12.7016822 12.2170137,11.7580055 C11.273337,10.8143288 11.273337,9.28430137 12.2170137,8.34062466 C13.1606904,7.39694795 14.6906795,7.39694795 15.6343562,8.34062466" id="Stroke-5" stroke="#000000" stroke-width="4" stroke-linecap="round" stroke-linejoin="round"></path>
                    <path d="M17.260274,14.9589041 C18.3194488,14.9589041 19.1780822,15.8175375 19.1780822,16.8767123 L19.1780822,25.3150685 C19.1780822,26.3742433 18.3194488,27.2328767 17.260274,27.2328767 L10.3561644,27.2328767 C9.29698959,27.2328767 8.43835616,26.3742433 8.43835616,25.3150685 L8.43835616,16.8767123 C8.43835616,15.8175375 9.29698959,14.9589041 10.3561644,14.9589041 L17.260274,14.9589041 Z" id="Fill-6" fill="#000000"></path>
                </g>
            </g>
        </g>
    </g>
</svg>