<?xml version="1.0" encoding="UTF-8" standalone="no"?>
<svg width="32px" height="32px" viewBox="0 0 32 32" version="1.1" xmlns="http://www.w3.org/2000/svg" xmlns:xlink="http://www.w3.org/1999/xlink">
    <!-- Generator: Sketch 3.6.1 (26313) - http://www.bohemiancoding.com/sketch -->
    <title>USER ICON</title>
    <desc>Created with Sketch.</desc>
    <defs></defs>
    <g id="Page-1" stroke="none" stroke-width="1" fill="none" fill-rule="evenodd">
        <g id="USER-ICON" transform="translate(2.000000, 2.000000)">
            <path d="M23.7638685,4.23612 C29.1563348,9.62855945 29.1563348,18.3714252 23.7638685,23.7638685 C18.3714252,29.1563363 9.62855945,29.1563363 4.23612,23.7638685 C-1.15635014,18.3714252 -1.15635014,9.62855945 4.23612,4.23612 C9.62855945,-1.15635014 18.3714252,-1.15635014 23.7638685,4.23612" id="Fill-1" fill="#FFFFFF"></path>
            <path d="M23.7638685,23.7638685 C18.3714137,29.1563233 9.62854795,29.1563233 4.23613151,23.7638685 C-1.15636164,18.3714137 -1.15636164,9.62854795 4.23613151,4.23613151 C9.62854795,-1.15636164 18.3714137,-1.15636164 23.7638685,4.23613151 C29.1563233,9.62854795 29.1563233,18.3714137 23.7638685,23.7638685 Z" id="Stroke-3" stroke="#000000" stroke-width="3" stroke-linecap="round" stroke-linejoin="round"></path>
            <path d="M17.046129,5.92599421 C18.7702984,7.65016365 18.7702984,10.4456406 17.046129,12.16981 C15.3219596,13.8939795 12.5265527,13.8939795 10.8023832,12.16981 C9.0782138,10.4456406 9.0782138,7.65016365 10.8023832,5.92599421 C12.5265527,4.20182476 15.3219596,4.20182476 17.046129,5.92599421" id="Stroke-5" stroke="#000000" stroke-width="2" stroke-linecap="round" stroke-linejoin="round"></path>
            <path d="M17.260274,14.9589041 C18.3194488,14.9589041 19.1780822,15.8175375 19.1780822,16.8767123 L19.1780822,25.3150685 C19.1780822,26.3742433 18.3194488,27.2328767 17.260274,27.2328767 L10.3561644,27.2328767 C9.29698959,27.2328767 8.43835616,26.3742433 8.43835616,25.3150685 L8.43835616,16.8767123 C8.43835616,15.8175375 9.29698959,14.9589041 10.3561644,14.9589041 L17.260274,14.9589041 Z" id="Fill-6" stroke="#000000" stroke-width="2"></path>
        </g>
    </g>
</svg>